<svg width="34" height="86" viewBox="0 0 34 86" fill="none" xmlns="http://www.w3.org/2000/svg">
<mask id="path-1-outside-1_474_821" maskUnits="userSpaceOnUse" x="-0.821144" y="-0.656982" width="35" height="87" fill="black">
<rect fill="white" x="-0.821144" y="-0.656982" width="35" height="87"/>
<path d="M2.22496 16.3626C3.84732 16.3626 5.70145 16.2081 7.78735 15.8991C9.87324 15.59 11.8046 14.972 13.5815 14.0449C15.4356 13.0406 16.9807 11.6114 18.2168 9.75725C19.4529 7.82586 20.071 5.31506 20.071 2.22485H31.4275V83.343H20.071V22.9679C20.071 21.6546 20.1868 20.2254 20.4186 18.6802C20.6504 17.1351 20.9208 15.7059 21.2298 14.3926L21.1139 14.2767C20.7276 15.59 20.3027 17.0579 19.8392 18.6802C19.4529 20.2254 18.8349 21.4614 17.9851 22.3885C16.2854 24.3199 13.9678 25.5946 11.0321 26.2126C8.09637 26.7534 5.16066 27.0238 2.22496 27.0238V16.3626Z"/>
</mask>
<path d="M2.22496 16.3626C3.84732 16.3626 5.70145 16.2081 7.78735 15.8991C9.87324 15.59 11.8046 14.972 13.5815 14.0449C15.4356 13.0406 16.9807 11.6114 18.2168 9.75725C19.4529 7.82586 20.071 5.31506 20.071 2.22485H31.4275V83.343H20.071V22.9679C20.071 21.6546 20.1868 20.2254 20.4186 18.6802C20.6504 17.1351 20.9208 15.7059 21.2298 14.3926L21.1139 14.2767C20.7276 15.59 20.3027 17.0579 19.8392 18.6802C19.4529 20.2254 18.8349 21.4614 17.9851 22.3885C16.2854 24.3199 13.9678 25.5946 11.0321 26.2126C8.09637 26.7534 5.16066 27.0238 2.22496 27.0238V16.3626Z" fill="url(#paint0_linear_474_821)" fill-opacity="0.26"/>
<path d="M2.22496 16.3626V14.1376H2.20537e-06V16.3626H2.22496ZM7.78735 15.8991L7.46128 13.6981L7.78735 15.8991ZM13.5815 14.0449L14.6107 16.0175L14.626 16.0095L14.6412 16.0013L13.5815 14.0449ZM18.2168 9.75725L20.0681 10.9914L20.0796 10.9741L20.0908 10.9566L18.2168 9.75725ZM20.071 2.22485V-0.000106812H17.846V2.22485H20.071ZM31.4275 2.22485H33.6525V-0.000106812H31.4275V2.22485ZM31.4275 83.343V85.568H33.6525V83.343H31.4275ZM20.071 83.343H17.846V85.568H20.071V83.343ZM20.4186 18.6802L18.2183 18.3502V18.3502L20.4186 18.6802ZM21.2298 14.3926L23.3956 14.9022L23.6795 13.6957L22.8031 12.8193L21.2298 14.3926ZM21.1139 14.2767L22.6872 12.7034L20.0369 10.0532L18.9794 13.6489L21.1139 14.2767ZM19.8392 18.6802L17.6998 18.069L17.6897 18.1047L17.6807 18.1406L19.8392 18.6802ZM17.9851 22.3885L16.3449 20.8851L16.3297 20.9017L16.3148 20.9186L17.9851 22.3885ZM11.0321 26.2126L11.4352 28.4008L11.4629 28.3957L11.4904 28.3899L11.0321 26.2126ZM2.22496 27.0238H2.20537e-06V29.2488H2.22496V27.0238ZM2.22496 16.3626V18.5875C3.98315 18.5875 5.94966 18.4205 8.11341 18.1L7.78735 15.8991L7.46128 13.6981C5.45324 13.9956 3.71149 14.1376 2.22496 14.1376V16.3626ZM7.78735 15.8991L8.11341 18.1C10.4319 17.7565 12.6025 17.0653 14.6107 16.0175L13.5815 14.0449L12.5523 12.0723C11.0067 12.8787 9.31461 13.4236 7.46128 13.6981L7.78735 15.8991ZM13.5815 14.0449L14.6412 16.0013C16.8322 14.8145 18.6427 13.1295 20.0681 10.9914L18.2168 9.75725L16.3656 8.52306C15.3188 10.0932 14.039 11.2667 12.5218 12.0885L13.5815 14.0449ZM18.2168 9.75725L20.0908 10.9566C21.6229 8.56282 22.2959 5.59647 22.2959 2.22485H20.071H17.846C17.846 5.03366 17.283 7.08891 16.3428 8.55788L18.2168 9.75725ZM20.071 2.22485V4.4498H31.4275V2.22485V-0.000106812H20.071V2.22485ZM31.4275 2.22485H29.2025V83.343H31.4275H33.6525V2.22485H31.4275ZM31.4275 83.343V81.1181H20.071V83.343V85.568H31.4275V83.343ZM20.071 83.343H22.2959V22.9679H20.071H17.846V83.343H20.071ZM20.071 22.9679H22.2959C22.2959 21.7834 22.4006 20.466 22.6189 19.0103L20.4186 18.6802L18.2183 18.3502C17.9731 19.9847 17.846 21.5257 17.846 22.9679H20.071ZM20.4186 18.6802L22.6189 19.0103C22.843 17.5163 23.1025 16.1478 23.3956 14.9022L21.2298 14.3926L19.064 13.883C18.739 15.2641 18.4577 16.754 18.2183 18.3502L20.4186 18.6802ZM21.2298 14.3926L22.8031 12.8193L22.6872 12.7034L21.1139 14.2767L19.5406 15.85L19.6565 15.9659L21.2298 14.3926ZM21.1139 14.2767L18.9794 13.6489C18.5911 14.9688 18.1646 16.4423 17.6998 18.069L19.8392 18.6802L21.9785 19.2915C22.4408 17.6734 22.8641 16.2112 23.2484 14.9045L21.1139 14.2767ZM19.8392 18.6802L17.6807 18.1406C17.3608 19.42 16.8864 20.2944 16.3449 20.8851L17.9851 22.3885L19.6252 23.892C20.7834 22.6285 21.545 21.0307 21.9977 19.2199L19.8392 18.6802ZM17.9851 22.3885L16.3148 20.9186C14.9828 22.4322 13.1206 23.4992 10.5737 24.0354L11.0321 26.2126L11.4904 28.3899C14.8149 27.69 17.5881 26.2076 19.6554 23.8584L17.9851 22.3885ZM11.0321 26.2126L10.629 24.0245C7.82401 24.5412 5.0232 24.7989 2.22496 24.7989V27.0238V29.2488C5.29812 29.2488 8.36873 28.9657 11.4352 28.4008L11.0321 26.2126ZM2.22496 27.0238H4.44991V16.3626H2.22496H2.20537e-06V27.0238H2.22496Z" fill="url(#paint1_linear_474_821)" mask="url(#path-1-outside-1_474_821)"/>
<defs>
<linearGradient id="paint0_linear_474_821" x1="17.1789" y1="-20.657" x2="17.1789" y2="118.343" gradientUnits="userSpaceOnUse">
<stop stop-color="#D99F4F"/>
<stop offset="1" stop-color="#BF822E"/>
</linearGradient>
<linearGradient id="paint1_linear_474_821" x1="17.1789" y1="-20.657" x2="17.1789" y2="118.343" gradientUnits="userSpaceOnUse">
<stop stop-color="#D99F4F"/>
<stop offset="1" stop-color="#BF822E"/>
</linearGradient>
</defs>
</svg>
