<svg width="65" height="87" viewBox="0 0 65 87" fill="none" xmlns="http://www.w3.org/2000/svg">
<mask id="path-1-outside-1_474_820" maskUnits="userSpaceOnUse" x="-0.458679" y="-0.96167" width="66" height="88" fill="black">
<rect fill="white" x="-0.458679" y="-0.96167" width="66" height="88"/>
<path d="M2.22496 84.0383V81.7207C2.22496 76.6991 2.92026 72.3341 4.31086 68.6259C5.70145 64.8404 7.51696 61.557 9.75736 58.7758C11.9978 55.9174 14.5472 53.4838 17.4056 51.4752C20.2641 49.3893 23.1998 47.5352 26.2128 45.9128C29.2257 44.2904 32.1614 42.8226 35.0199 41.5092C37.8783 40.1959 40.4278 38.8439 42.6682 37.4533C44.9086 36.0627 46.7241 34.5949 48.1147 33.0498C49.5053 31.4274 50.2006 29.5346 50.2006 27.3715C50.2006 24.5903 49.737 22.2726 48.81 20.4185C47.9602 18.4871 46.7241 16.942 45.1017 15.7832C43.5566 14.6244 41.7025 13.8132 39.5393 13.3496C37.4534 12.8089 35.1358 12.5385 32.5863 12.5385C30.1914 12.5385 27.9124 12.8475 25.7492 13.4655C23.5861 14.0063 21.6933 14.9334 20.071 16.2467C18.5259 17.4828 17.2511 19.0665 16.2468 20.9979C15.3198 22.9293 14.8176 25.247 14.7403 27.9509L3.49968 27.0238C4.04046 18.3712 6.89891 12.0749 12.075 8.1349C17.2511 4.19487 24.2814 2.22486 33.1657 2.22486C37.5693 2.22486 41.548 2.72702 45.1017 3.73134C48.6555 4.73566 51.6684 6.24214 54.1406 8.25078C56.69 10.1822 58.6214 12.6543 59.9347 15.6673C61.3253 18.603 62.0206 22.0795 62.0206 26.0968C62.0206 30.1913 61.2095 33.5906 59.5871 36.2945C57.9647 38.9212 55.8402 41.2388 53.2135 43.2475C50.6641 45.1789 47.767 46.9171 44.5223 48.4622C41.3548 49.9301 38.1873 51.6297 35.0199 53.5611C31.8524 55.4152 28.8394 57.617 25.981 60.1664C23.1998 62.6386 20.8821 65.8061 19.028 69.6688C18.41 70.7504 17.5988 71.832 16.5945 72.9136C15.6674 73.9951 14.6631 74.8836 13.5815 75.5789L13.6974 75.8106C14.779 75.1153 16.0537 74.5359 17.5215 74.0724C18.9894 73.6089 20.38 73.3771 21.6933 73.3771H62.4842V84.0383H2.22496Z"/>
</mask>
<path d="M2.22496 84.0383V81.7207C2.22496 76.6991 2.92026 72.3341 4.31086 68.6259C5.70145 64.8404 7.51696 61.557 9.75736 58.7758C11.9978 55.9174 14.5472 53.4838 17.4056 51.4752C20.2641 49.3893 23.1998 47.5352 26.2128 45.9128C29.2257 44.2904 32.1614 42.8226 35.0199 41.5092C37.8783 40.1959 40.4278 38.8439 42.6682 37.4533C44.9086 36.0627 46.7241 34.5949 48.1147 33.0498C49.5053 31.4274 50.2006 29.5346 50.2006 27.3715C50.2006 24.5903 49.737 22.2726 48.81 20.4185C47.9602 18.4871 46.7241 16.942 45.1017 15.7832C43.5566 14.6244 41.7025 13.8132 39.5393 13.3496C37.4534 12.8089 35.1358 12.5385 32.5863 12.5385C30.1914 12.5385 27.9124 12.8475 25.7492 13.4655C23.5861 14.0063 21.6933 14.9334 20.071 16.2467C18.5259 17.4828 17.2511 19.0665 16.2468 20.9979C15.3198 22.9293 14.8176 25.247 14.7403 27.9509L3.49968 27.0238C4.04046 18.3712 6.89891 12.0749 12.075 8.1349C17.2511 4.19487 24.2814 2.22486 33.1657 2.22486C37.5693 2.22486 41.548 2.72702 45.1017 3.73134C48.6555 4.73566 51.6684 6.24214 54.1406 8.25078C56.69 10.1822 58.6214 12.6543 59.9347 15.6673C61.3253 18.603 62.0206 22.0795 62.0206 26.0968C62.0206 30.1913 61.2095 33.5906 59.5871 36.2945C57.9647 38.9212 55.8402 41.2388 53.2135 43.2475C50.6641 45.1789 47.767 46.9171 44.5223 48.4622C41.3548 49.9301 38.1873 51.6297 35.0199 53.5611C31.8524 55.4152 28.8394 57.617 25.981 60.1664C23.1998 62.6386 20.8821 65.8061 19.028 69.6688C18.41 70.7504 17.5988 71.832 16.5945 72.9136C15.6674 73.9951 14.6631 74.8836 13.5815 75.5789L13.6974 75.8106C14.779 75.1153 16.0537 74.5359 17.5215 74.0724C18.9894 73.6089 20.38 73.3771 21.6933 73.3771H62.4842V84.0383H2.22496Z" fill="url(#paint0_linear_474_820)" fill-opacity="0.26"/>
<path d="M2.22496 84.0383H5.78165e-06V86.2633H2.22496V84.0383ZM4.31086 68.6259L6.39415 69.4071L6.39678 69.4001L6.39936 69.3931L4.31086 68.6259ZM9.75736 58.7758L11.4901 60.1716L11.4994 60.16L11.5085 60.1483L9.75736 58.7758ZM17.4056 51.4752L18.6849 53.2956L18.7011 53.2842L18.7172 53.2725L17.4056 51.4752ZM26.2128 45.9128L27.2676 47.8718V47.8718L26.2128 45.9128ZM42.6682 37.4533L43.8415 39.3437V39.3437L42.6682 37.4533ZM48.1147 33.0498L49.7685 34.5382L49.7865 34.5182L49.804 34.4977L48.1147 33.0498ZM48.81 20.4185L46.7734 21.3146L46.7955 21.3646L46.8199 21.4135L48.81 20.4185ZM45.1017 15.7832L43.7667 17.5631L43.7874 17.5787L43.8085 17.5937L45.1017 15.7832ZM39.5393 13.3496L38.9809 15.5034L39.0268 15.5153L39.0731 15.5252L39.5393 13.3496ZM25.7492 13.4655L26.2889 15.624L26.3248 15.6151L26.3605 15.6049L25.7492 13.4655ZM20.071 16.2467L21.4609 17.9841L21.4709 17.9761L20.071 16.2467ZM16.2468 20.9979L14.2728 19.9714L14.2564 20.003L14.241 20.0351L16.2468 20.9979ZM14.7403 27.9509L14.5575 30.1683L16.8973 30.3613L16.9644 28.0145L14.7403 27.9509ZM3.49968 27.0238L1.27905 26.8851L1.14299 29.062L3.3168 29.2413L3.49968 27.0238ZM12.075 8.1349L13.4226 9.9053V9.9053L12.075 8.1349ZM54.1406 8.25078L52.7376 9.9776L52.7669 10.0014L52.797 10.0243L54.1406 8.25078ZM59.9347 15.6673L57.8951 16.5564L57.9091 16.5883L57.924 16.6198L59.9347 15.6673ZM59.5871 36.2945L61.4801 37.4637L61.4876 37.4515L61.495 37.4392L59.5871 36.2945ZM53.2135 43.2475L54.5571 45.021L54.5651 45.0149L53.2135 43.2475ZM44.5223 48.4622L45.4578 50.4809L45.4684 50.476L45.4789 50.471L44.5223 48.4622ZM35.0199 53.5611L36.1439 55.4812L36.1611 55.4711L36.1782 55.4607L35.0199 53.5611ZM25.981 60.1664L27.4592 61.8294L27.462 61.8269L25.981 60.1664ZM19.028 69.6688L20.9598 70.7727L20.9994 70.7035L21.0339 70.6316L19.028 69.6688ZM16.5945 72.9136L14.964 71.3996L14.9339 71.432L14.9052 71.4656L16.5945 72.9136ZM13.5815 75.5789L12.3783 73.7073L10.6982 74.7874L11.5914 76.5739L13.5815 75.5789ZM13.6974 75.8106L11.7073 76.8057L12.8157 79.0225L14.9006 77.6822L13.6974 75.8106ZM17.5215 74.0724L18.1915 76.1941H18.1915L17.5215 74.0724ZM62.4842 73.3771H64.7091V71.1521H62.4842V73.3771ZM62.4842 84.0383V86.2633H64.7091V84.0383H62.4842ZM2.22496 84.0383H4.44992V81.7207H2.22496H5.78165e-06V84.0383H2.22496ZM2.22496 81.7207H4.44992C4.44992 76.8975 5.11857 72.8087 6.39415 69.4071L4.31086 68.6259L2.22757 67.8446C0.721954 71.8596 5.78165e-06 76.5007 5.78165e-06 81.7207H2.22496ZM4.31086 68.6259L6.39936 69.3931C7.71704 65.806 9.41995 62.7414 11.4901 60.1716L9.75736 58.7758L8.02467 57.38C5.61396 60.3726 3.68587 63.8747 2.22236 67.8587L4.31086 68.6259ZM9.75736 58.7758L11.5085 60.1483C13.6198 57.4547 16.0118 55.174 18.6849 53.2956L17.4056 51.4752L16.1264 49.6547C13.0826 51.7936 10.3758 54.38 8.0062 57.4033L9.75736 58.7758ZM17.4056 51.4752L18.7172 53.2725C21.4966 51.2442 24.3468 49.4446 27.2676 47.8718L26.2128 45.9128L25.1579 43.9538C22.0528 45.6257 19.0316 47.5343 16.0941 49.6779L17.4056 51.4752ZM26.2128 45.9128L27.2676 47.8718C30.2428 46.2698 33.1365 44.8231 35.9488 43.531L35.0199 41.5092L34.091 39.4875C31.1864 40.822 28.2086 42.3111 25.1579 43.9538L26.2128 45.9128ZM35.0199 41.5092L35.9488 43.531C38.8759 42.1861 41.5092 40.7914 43.8415 39.3437L42.6682 37.4533L41.4948 35.5629C39.3463 36.8964 36.8808 38.2057 34.091 39.4875L35.0199 41.5092ZM42.6682 37.4533L43.8415 39.3437C46.2149 37.8706 48.2057 36.2745 49.7685 34.5382L48.1147 33.0498L46.4609 31.5613C45.2424 32.9152 43.6023 34.2548 41.4948 35.5629L42.6682 37.4533ZM48.1147 33.0498L49.804 34.4977C51.5449 32.4667 52.4255 30.0586 52.4255 27.3715H50.2006H47.9756C47.9756 29.0107 47.4656 30.3881 46.4254 31.6018L48.1147 33.0498ZM50.2006 27.3715H52.4255C52.4255 24.3575 51.9251 21.6736 50.8 19.4235L48.81 20.4185L46.8199 21.4135C47.549 22.8717 47.9756 24.8231 47.9756 27.3715H50.2006ZM48.81 20.4185L50.8465 19.5224C49.8454 17.2472 48.362 15.3777 46.3949 13.9727L45.1017 15.7832L43.8085 17.5937C45.0862 18.5063 46.0749 19.7271 46.7734 21.3146L48.81 20.4185ZM45.1017 15.7832L46.4367 14.0032C44.5991 12.625 42.4378 11.6953 40.0055 11.1741L39.5393 13.3496L39.0731 15.5252C40.9672 15.9311 42.5141 16.6237 43.7667 17.5631L45.1017 15.7832ZM39.5393 13.3496L40.0977 11.1959C37.7998 10.6001 35.2908 10.3135 32.5863 10.3135V12.5385V14.7634C34.9807 14.7634 37.1071 15.0176 38.9809 15.5034L39.5393 13.3496ZM32.5863 12.5385V10.3135C29.998 10.3135 27.5123 10.6478 25.138 11.3262L25.7492 13.4655L26.3605 15.6049C28.3124 15.0472 30.3848 14.7634 32.5863 14.7634V12.5385ZM25.7492 13.4655L25.2096 11.307C22.7537 11.921 20.5624 12.9863 18.671 14.5174L20.071 16.2467L21.4709 17.9761C22.8242 16.8805 24.4185 16.0916 26.2889 15.624L25.7492 13.4655ZM20.071 16.2467L18.681 14.5093C16.8705 15.9577 15.4057 17.7927 14.2728 19.9714L16.2468 20.9979L18.2208 22.0244C19.0965 20.3403 20.1812 19.0079 21.4609 17.9841L20.071 16.2467ZM16.2468 20.9979L14.241 20.0351C13.1485 22.3112 12.6002 24.9508 12.5163 27.8874L14.7403 27.9509L16.9644 28.0145C17.035 25.5431 17.4911 23.5474 18.2527 21.9607L16.2468 20.9979ZM14.7403 27.9509L14.9232 25.7335L3.68256 24.8064L3.49968 27.0238L3.3168 29.2413L14.5575 30.1683L14.7403 27.9509ZM3.49968 27.0238L5.7203 27.1626C6.23497 18.9279 8.91753 13.3346 13.4226 9.9053L12.075 8.1349L10.7274 6.36449C4.8803 10.8153 1.84596 17.8146 1.27905 26.8851L3.49968 27.0238ZM12.075 8.1349L13.4226 9.9053C18.0917 6.35128 24.5926 4.44981 33.1657 4.44981V2.22486V-9.15527e-05C23.9702 -9.15527e-05 16.4106 2.03847 10.7274 6.36449L12.075 8.1349ZM33.1657 2.22486V4.44981C37.4027 4.44981 41.1733 4.93323 44.4966 5.87244L45.1017 3.73135L45.7068 1.59025C41.9227 0.520813 37.7359 -9.15527e-05 33.1657 -9.15527e-05V2.22486ZM45.1017 3.73135L44.4966 5.87244C47.805 6.80741 50.5349 8.18792 52.7376 9.9776L54.1406 8.25078L55.5436 6.52396C52.802 4.29636 49.5059 2.66392 45.7068 1.59025L45.1017 3.73135ZM54.1406 8.25078L52.797 10.0243C55.0338 11.7188 56.7298 13.8829 57.8951 16.5564L59.9347 15.6673L61.9744 14.7782C60.513 11.4258 58.3462 8.64551 55.4841 6.47729L54.1406 8.25078ZM59.9347 15.6673L57.924 16.6198C59.1442 19.1958 59.7957 22.3328 59.7957 26.0968H62.0206H64.2456C64.2456 21.8262 63.5065 18.0102 61.9455 14.7148L59.9347 15.6673ZM62.0206 26.0968H59.7957C59.7957 29.9059 59.0409 32.8803 57.6792 35.1498L59.5871 36.2945L61.495 37.4392C63.3781 34.3008 64.2456 30.4767 64.2456 26.0968H62.0206ZM59.5871 36.2945L57.6941 35.1253C56.2241 37.5053 54.2886 39.6244 51.862 41.4801L53.2135 43.2475L54.5651 45.0149C57.3918 42.8533 59.7054 40.3371 61.4801 37.4637L59.5871 36.2945ZM53.2135 43.2475L51.87 41.474C49.4549 43.3036 46.6903 44.9655 43.5657 46.4534L44.5223 48.4622L45.4789 50.471C48.8438 48.8687 51.8733 47.0542 54.5571 45.021L53.2135 43.2475ZM44.5223 48.4622L43.5868 46.4435C40.3383 47.9489 37.0965 49.6889 33.8615 51.6614L35.0199 53.5611L36.1782 55.4607C39.2782 53.5705 42.3714 51.9112 45.4578 50.4809L44.5223 48.4622ZM35.0199 53.5611L33.8959 51.6409C30.5957 53.5727 27.4638 55.8626 24.5 58.5059L25.981 60.1664L27.462 61.8269C30.2151 59.3714 33.1091 57.2577 36.1439 55.4812L35.0199 53.5611ZM25.981 60.1664L24.5028 58.5035C21.4702 61.1991 18.9848 64.6171 17.0222 68.706L19.028 69.6688L21.0339 70.6316C22.7795 66.995 24.9294 64.078 27.4592 61.8294L25.981 60.1664ZM19.028 69.6688L17.0962 68.5649C16.5764 69.4746 15.8732 70.4205 14.964 71.3996L16.5945 72.9136L18.2249 74.4275C19.3244 73.2434 20.2435 72.0262 20.9598 70.7727L19.028 69.6688ZM16.5945 72.9136L14.9052 71.4656C14.1037 72.4006 13.2597 73.1407 12.3783 73.7073L13.5815 75.5789L14.7847 77.4504C16.0664 76.6265 17.2311 75.5897 18.2838 74.3615L16.5945 72.9136ZM13.5815 75.5789L11.5914 76.5739L11.7073 76.8057L13.6974 75.8106L15.6875 74.8156L15.5716 74.5838L13.5815 75.5789ZM13.6974 75.8106L14.9006 77.6822C15.7875 77.1121 16.876 76.6095 18.1915 76.1941L17.5215 74.0724L16.8515 71.9507C15.2314 72.4623 13.7705 73.1186 12.4942 73.939L13.6974 75.8106ZM17.5215 74.0724L18.1915 76.1941C19.479 75.7875 20.6425 75.602 21.6933 75.602V73.3771V71.1521C20.1175 71.1521 18.4998 71.4302 16.8515 71.9507L17.5215 74.0724ZM21.6933 73.3771V75.602H62.4842V73.3771V71.1521H21.6933V73.3771ZM62.4842 73.3771H60.2592V84.0383H62.4842H64.7091V73.3771H62.4842ZM62.4842 84.0383V81.8134H2.22496V84.0383V86.2633H62.4842V84.0383Z" fill="url(#paint1_linear_474_820)" mask="url(#path-1-outside-1_474_820)"/>
<defs>
<linearGradient id="paint0_linear_474_820" x1="32.0413" y1="-19.9617" x2="32.0413" y2="119.038" gradientUnits="userSpaceOnUse">
<stop stop-color="#D99F4F"/>
<stop offset="1" stop-color="#BF822E"/>
</linearGradient>
<linearGradient id="paint1_linear_474_820" x1="32.0413" y1="-19.9617" x2="32.0413" y2="119.038" gradientUnits="userSpaceOnUse">
<stop stop-color="#D99F4F"/>
<stop offset="1" stop-color="#BF822E"/>
</linearGradient>
</defs>
</svg>
