<svg width="66" height="87" viewBox="0 0 66 87" fill="none" xmlns="http://www.w3.org/2000/svg">
<mask id="path-1-outside-1_474_819" maskUnits="userSpaceOnUse" x="-0.781799" y="-0.0773926" width="66" height="87" fill="black">
<rect fill="white" x="-0.781799" y="-0.0773926" width="66" height="87"/>
<path d="M33.6326 84.6179C29.229 84.6179 25.1731 84.1544 21.4649 83.2273C17.7566 82.223 14.5119 80.7551 11.7307 78.8238C9.02675 76.8151 6.82497 74.3043 5.12535 71.2913C3.50299 68.2011 2.57592 64.5701 2.34416 60.3983L13.5848 59.703C13.6621 61.9434 14.2415 63.9521 15.3231 65.729C16.4046 67.4286 17.8339 68.8964 19.6107 70.1325C21.3876 71.3686 23.4349 72.2957 25.7525 72.9137C28.0702 73.5318 30.4265 73.8408 32.8214 73.8408C35.4481 73.8408 37.9203 73.5318 40.2379 72.9137C42.5556 72.2184 44.5642 71.2527 46.2639 70.0166C48.0407 68.7033 49.4313 67.1196 50.4356 65.2654C51.44 63.334 51.9421 61.1709 51.9421 58.776C51.9421 54.3724 50.3584 51.1663 47.1909 49.1577C44.1007 47.0718 39.3109 45.9902 32.8214 45.913H27.7226L27.4908 37.917H32.8214C38.9246 37.917 43.2509 36.7582 45.8003 34.4405C48.427 32.0456 49.7403 28.8781 49.7403 24.9381C49.7403 22.6977 49.2768 20.7277 48.3497 19.0281C47.4227 17.3285 46.1866 15.9379 44.6415 14.8563C43.0964 13.6975 41.2809 12.8476 39.195 12.3069C37.1863 11.7661 35.0618 11.4957 32.8214 11.4957C30.581 11.4957 28.4565 11.8819 26.4478 12.6545C24.4392 13.3498 22.6623 14.3155 21.1172 15.5516C19.5721 16.7877 18.2974 18.2555 17.2931 19.9551C16.366 21.6548 15.8252 23.5089 15.6707 25.5175L4.54594 24.5905C4.70045 20.7277 5.51163 17.4057 6.97948 14.6245C8.44733 11.8433 10.4173 9.52566 12.8895 7.67153C15.4389 5.8174 18.4519 4.46543 21.9284 3.61562C25.4821 2.68855 29.3449 2.22502 33.5167 2.22502C37.4567 2.22502 41.0491 2.68855 44.2938 3.61562C47.6158 4.46543 50.4356 5.77877 52.7533 7.55564C55.071 9.25526 56.8478 11.457 58.0839 14.161C59.3973 16.7877 60.0539 19.9165 60.0539 23.5475C60.0539 27.024 59.32 29.8825 57.8522 32.1229C56.4616 34.3633 54.5688 36.256 52.1739 37.8011C51.0923 38.5737 49.779 39.1531 48.2339 39.5394C46.766 39.8484 45.3754 40.0802 44.0621 40.2347V40.4664C45.3754 40.3119 46.8046 40.3119 48.3497 40.4664C49.8949 40.5437 51.2855 40.8913 52.5215 41.5094C55.9208 42.9772 58.5088 45.1018 60.2857 47.883C62.0626 50.6642 62.951 54.6814 62.951 59.9348C62.951 64.0293 62.2171 67.6217 60.7492 70.7119C59.3586 73.8022 57.3886 76.3902 54.8392 78.4761C52.2898 80.4847 49.1996 82.0299 45.5686 83.1114C42.0148 84.1157 38.0362 84.6179 33.6326 84.6179Z"/>
</mask>
<path d="M33.6326 84.6179C29.229 84.6179 25.1731 84.1544 21.4649 83.2273C17.7566 82.223 14.5119 80.7551 11.7307 78.8238C9.02675 76.8151 6.82497 74.3043 5.12535 71.2913C3.50299 68.2011 2.57592 64.5701 2.34416 60.3983L13.5848 59.703C13.6621 61.9434 14.2415 63.9521 15.3231 65.729C16.4046 67.4286 17.8339 68.8964 19.6107 70.1325C21.3876 71.3686 23.4349 72.2957 25.7525 72.9137C28.0702 73.5318 30.4265 73.8408 32.8214 73.8408C35.4481 73.8408 37.9203 73.5318 40.2379 72.9137C42.5556 72.2184 44.5642 71.2527 46.2639 70.0166C48.0407 68.7033 49.4313 67.1196 50.4356 65.2654C51.44 63.334 51.9421 61.1709 51.9421 58.776C51.9421 54.3724 50.3584 51.1663 47.1909 49.1577C44.1007 47.0718 39.3109 45.9902 32.8214 45.913H27.7226L27.4908 37.917H32.8214C38.9246 37.917 43.2509 36.7582 45.8003 34.4405C48.427 32.0456 49.7403 28.8781 49.7403 24.9381C49.7403 22.6977 49.2768 20.7277 48.3497 19.0281C47.4227 17.3285 46.1866 15.9379 44.6415 14.8563C43.0964 13.6975 41.2809 12.8476 39.195 12.3069C37.1863 11.7661 35.0618 11.4957 32.8214 11.4957C30.581 11.4957 28.4565 11.8819 26.4478 12.6545C24.4392 13.3498 22.6623 14.3155 21.1172 15.5516C19.5721 16.7877 18.2974 18.2555 17.2931 19.9551C16.366 21.6548 15.8252 23.5089 15.6707 25.5175L4.54594 24.5905C4.70045 20.7277 5.51163 17.4057 6.97948 14.6245C8.44733 11.8433 10.4173 9.52566 12.8895 7.67153C15.4389 5.8174 18.4519 4.46543 21.9284 3.61562C25.4821 2.68855 29.3449 2.22502 33.5167 2.22502C37.4567 2.22502 41.0491 2.68855 44.2938 3.61562C47.6158 4.46543 50.4356 5.77877 52.7533 7.55564C55.071 9.25526 56.8478 11.457 58.0839 14.161C59.3973 16.7877 60.0539 19.9165 60.0539 23.5475C60.0539 27.024 59.32 29.8825 57.8522 32.1229C56.4616 34.3633 54.5688 36.256 52.1739 37.8011C51.0923 38.5737 49.779 39.1531 48.2339 39.5394C46.766 39.8484 45.3754 40.0802 44.0621 40.2347V40.4664C45.3754 40.3119 46.8046 40.3119 48.3497 40.4664C49.8949 40.5437 51.2855 40.8913 52.5215 41.5094C55.9208 42.9772 58.5088 45.1018 60.2857 47.883C62.0626 50.6642 62.951 54.6814 62.951 59.9348C62.951 64.0293 62.2171 67.6217 60.7492 70.7119C59.3586 73.8022 57.3886 76.3902 54.8392 78.4761C52.2898 80.4847 49.1996 82.0299 45.5686 83.1114C42.0148 84.1157 38.0362 84.6179 33.6326 84.6179Z" fill="url(#paint0_linear_474_819)" fill-opacity="0.26"/>
<path d="M21.4649 83.2273L20.8832 85.3749L20.9042 85.3806L20.9252 85.3858L21.4649 83.2273ZM11.7307 78.8238L10.4039 80.6098L10.4324 80.631L10.4616 80.6513L11.7307 78.8238ZM5.12535 71.2914L3.15538 72.3256L3.17098 72.3553L3.18746 72.3845L5.12535 71.2914ZM2.34416 60.3983L2.20679 58.1776L-1.9908e-05 58.3141L0.122626 60.5218L2.34416 60.3983ZM13.5848 59.703L15.8085 59.6264L15.7297 57.3412L13.4475 57.4823L13.5848 59.703ZM15.3231 65.729L13.4225 66.8858L13.434 66.9048L13.446 66.9235L15.3231 65.729ZM19.6107 70.1325L18.3401 71.959V71.959L19.6107 70.1325ZM25.7525 72.9137L26.3258 70.7639V70.7639L25.7525 72.9137ZM40.2379 72.9137L40.8112 75.0635L40.8444 75.0547L40.8773 75.0448L40.2379 72.9137ZM46.2639 70.0166L47.5725 71.816L47.5794 71.811L47.5863 71.8059L46.2639 70.0166ZM50.4356 65.2654L52.392 66.3251L52.401 66.3086L52.4097 66.2919L50.4356 65.2654ZM47.1909 49.1577L45.9461 51.0018L45.9725 51.0196L45.9994 51.0367L47.1909 49.1577ZM32.8214 45.9129L32.8479 43.6882L32.8347 43.688H32.8214V45.9129ZM27.7226 45.9129L25.4985 45.9774L25.5612 48.1379H27.7226V45.9129ZM27.4908 37.917V35.6921H25.2004L25.2668 37.9815L27.4908 37.917ZM45.8003 34.4405L47.297 36.0869L47.2994 36.0847L45.8003 34.4405ZM48.3497 19.0281L46.3965 20.0935V20.0935L48.3497 19.0281ZM44.6415 14.8563L43.3065 16.6362L43.3357 16.6581L43.3656 16.679L44.6415 14.8563ZM39.195 12.3069L38.6166 14.4553L38.6266 14.458L38.6366 14.4606L39.195 12.3069ZM26.4478 12.6545L27.1756 14.7571L27.2113 14.7447L27.2466 14.7312L26.4478 12.6545ZM21.1172 15.5516L19.7273 13.8142H19.7273L21.1172 15.5516ZM17.2931 19.9551L15.3776 18.8232L15.3581 18.8561L15.3398 18.8897L17.2931 19.9551ZM15.6707 25.5175L15.4859 27.7348L17.7174 27.9207L17.8891 25.6882L15.6707 25.5175ZM4.54594 24.5905L2.32276 24.5015L2.23759 26.6308L4.36116 26.8077L4.54594 24.5905ZM6.97948 14.6245L5.01176 13.586H5.01176L6.97948 14.6245ZM12.8895 7.67152L11.5809 5.87212L11.5676 5.88174L11.5545 5.89156L12.8895 7.67152ZM21.9284 3.61562L22.4567 5.77694L22.4734 5.77287L22.49 5.76852L21.9284 3.61562ZM44.2938 3.61562L43.6826 5.75497L43.7124 5.76348L43.7424 5.77116L44.2938 3.61562ZM52.7533 7.55564L51.3996 9.32138L51.4184 9.33582L51.4375 9.34986L52.7533 7.55564ZM58.0839 14.161L56.0604 15.086L56.0765 15.1213L56.0939 15.156L58.0839 14.161ZM57.8522 32.1229L55.9911 30.9035L55.9761 30.9263L55.9617 30.9495L57.8522 32.1229ZM52.1739 37.8011L50.9677 35.9315L50.9235 35.96L50.8807 35.9906L52.1739 37.8011ZM48.2339 39.5394L48.6922 41.7166L48.733 41.708L48.7735 41.6979L48.2339 39.5394ZM44.0621 40.2347L43.8021 38.025L41.8371 38.2561V40.2347H44.0621ZM44.0621 40.4664H41.8371V42.9685L44.322 42.6762L44.0621 40.4664ZM48.3497 40.4664L48.1284 42.6804L48.1834 42.6859L48.2386 42.6886L48.3497 40.4664ZM52.5215 41.5094L51.5265 43.4995L51.5823 43.5273L51.6395 43.552L52.5215 41.5094ZM60.2857 47.883L62.1607 46.6851H62.1607L60.2857 47.883ZM60.7492 70.7119L58.7395 69.7573L58.7297 69.778L58.7203 69.7989L60.7492 70.7119ZM54.8392 78.4761L56.2162 80.2238L56.2323 80.2111L56.2481 80.1981L54.8392 78.4761ZM45.5686 83.1114L46.1736 85.2525L46.1887 85.2483L46.2037 85.2438L45.5686 83.1114ZM33.6326 84.6179V82.393C29.384 82.393 25.5119 81.9456 22.0045 81.0688L21.4649 83.2273L20.9252 85.3858C24.8343 86.3631 29.074 86.8429 33.6326 86.8429V84.6179ZM21.4649 83.2273L22.0465 81.0797C18.5513 80.1331 15.5457 78.7642 12.9998 76.9962L11.7307 78.8238L10.4616 80.6513C13.478 82.746 16.9619 84.3129 20.8832 85.3749L21.4649 83.2273ZM11.7307 78.8238L13.0575 77.0377C10.6103 75.2198 8.61412 72.9475 7.06324 70.1982L5.12535 71.2914L3.18746 72.3845C5.03582 75.6611 7.44318 78.4104 10.4039 80.6098L11.7307 78.8238ZM5.12535 71.2914L7.09532 70.2571C5.64733 67.499 4.78321 64.1903 4.56569 60.2749L2.34416 60.3983L0.122626 60.5218C0.368635 64.9499 1.35864 68.9032 3.15538 72.3256L5.12535 71.2914ZM2.34416 60.3983L2.48152 62.619L13.7222 61.9238L13.5848 59.703L13.4475 57.4823L2.20679 58.1776L2.34416 60.3983ZM13.5848 59.703L11.3612 59.7797C11.4506 62.3714 12.127 64.7574 13.4225 66.8858L15.3231 65.729L17.2236 64.5721C16.356 63.1467 15.8736 61.5155 15.8085 59.6264L13.5848 59.703ZM15.3231 65.729L13.446 66.9235C14.6973 68.8899 16.3394 70.5672 18.3401 71.959L19.6107 70.1325L20.8813 68.306C19.3283 67.2257 18.112 65.9672 17.2002 64.5344L15.3231 65.729ZM19.6107 70.1325L18.3401 71.959C20.3506 73.3576 22.639 74.3861 25.1793 75.0635L25.7525 72.9137L26.3258 70.7639C24.2307 70.2052 22.4246 69.3796 20.8813 68.306L19.6107 70.1325ZM25.7525 72.9137L25.1793 75.0635C27.6836 75.7314 30.2326 76.0657 32.8214 76.0657V73.8408V71.6158C30.6203 71.6158 28.4568 71.3321 26.3258 70.7639L25.7525 72.9137ZM32.8214 73.8408V76.0657C35.6235 76.0657 38.2897 75.7359 40.8112 75.0635L40.2379 72.9137L39.6646 70.7639C37.5508 71.3276 35.2727 71.6158 32.8214 71.6158V73.8408ZM40.2379 72.9137L40.8773 75.0448C43.3994 74.2882 45.6419 73.2201 47.5725 71.816L46.2639 70.0166L44.9552 68.2172C43.4865 69.2854 41.7118 70.1486 39.5986 70.7826L40.2379 72.9137ZM46.2639 70.0166L47.5863 71.8059C49.6126 70.3083 51.225 68.4797 52.392 66.3251L50.4356 65.2654L48.4793 64.2057C47.6377 65.7594 46.4689 67.0983 44.9414 68.2274L46.2639 70.0166ZM50.4356 65.2654L52.4097 66.2919C53.5949 64.0126 54.1671 61.4918 54.1671 58.776H51.9421H49.7172C49.7172 60.85 49.285 62.6554 48.4616 64.2389L50.4356 65.2654ZM51.9421 58.776H54.1671C54.1671 53.7654 52.3142 49.772 48.3825 47.2787L47.1909 49.1577L45.9994 51.0367C48.4026 52.5607 49.7172 54.9795 49.7172 58.776H51.9421ZM47.1909 49.1577L48.4357 47.3135C44.8062 44.8636 39.4885 43.7672 32.8479 43.6882L32.8214 45.9129L32.7949 48.1377C39.1333 48.2132 43.3952 49.28 45.9461 51.0018L47.1909 49.1577ZM32.8214 45.9129V43.688H27.7226V45.9129V48.1379H32.8214V45.9129ZM27.7226 45.9129L29.9466 45.8485L29.7148 37.8526L27.4908 37.917L25.2668 37.9815L25.4985 45.9774L27.7226 45.9129ZM27.4908 37.917V40.142H32.8214V37.917V35.6921H27.4908V37.917ZM32.8214 37.917V40.142C39.0906 40.142 44.1212 38.974 47.297 36.0869L45.8003 34.4405L44.3036 32.7942C42.3806 34.5424 38.7586 35.6921 32.8214 35.6921V37.917ZM45.8003 34.4405L47.2994 36.0847C50.4415 33.2198 51.9653 29.4284 51.9653 24.9381H49.7403H47.5154C47.5154 28.3279 46.4125 30.8714 44.3012 32.7964L45.8003 34.4405ZM49.7403 24.9381H51.9653C51.9653 22.3844 51.4346 20.0372 50.303 17.9626L48.3497 19.0281L46.3965 20.0935C47.119 21.4182 47.5154 23.011 47.5154 24.9381H49.7403ZM48.3497 19.0281L50.303 17.9626C49.2161 15.97 47.7513 14.3172 45.9174 13.0335L44.6415 14.8563L43.3656 16.679C44.6219 17.5585 45.6292 18.6869 46.3965 20.0935L48.3497 19.0281ZM44.6415 14.8563L45.9765 13.0763C44.1739 11.7244 42.0875 10.7583 39.7534 10.1531L39.195 12.3069L38.6366 14.4606C40.4742 14.937 42.0188 15.6705 43.3065 16.6362L44.6415 14.8563ZM39.195 12.3069L39.7734 10.1584C37.5622 9.56309 35.2422 9.27071 32.8214 9.27071V11.4957V13.7206C34.8814 13.7206 36.8104 13.969 38.6166 14.4553L39.195 12.3069ZM32.8214 11.4957V9.27071C30.3193 9.27071 27.9231 9.70326 25.6491 10.5779L26.4478 12.6545L27.2466 14.7312C28.9899 14.0606 30.8427 13.7206 32.8214 13.7206V11.4957ZM26.4478 12.6545L25.72 10.5519C23.4893 11.3241 21.4849 12.4081 19.7273 13.8142L21.1172 15.5516L22.5071 17.289C23.8397 16.2229 25.3891 15.3755 27.1756 14.7571L26.4478 12.6545ZM21.1172 15.5516L19.7273 13.8142C17.9723 15.2182 16.5193 16.8911 15.3776 18.8232L17.2931 19.9551L19.2086 21.087C20.0755 19.62 21.172 18.3571 22.5071 17.289L21.1172 15.5516ZM17.2931 19.9551L15.3398 18.8897C14.256 20.8767 13.6299 23.0376 13.4523 25.3469L15.6707 25.5175L17.8891 25.6882C18.0205 23.9801 18.4761 22.4328 19.2464 21.0206L17.2931 19.9551ZM15.6707 25.5175L15.8555 23.3003L4.73071 22.3732L4.54594 24.5905L4.36116 26.8077L15.4859 27.7348L15.6707 25.5175ZM4.54594 24.5905L6.76911 24.6794C6.91334 21.0738 7.66563 18.0913 8.9472 15.663L6.97948 14.6245L5.01176 13.586C3.35762 16.7202 2.48755 20.3816 2.32276 24.5015L4.54594 24.5905ZM6.97948 14.6245L8.9472 15.663C10.2643 13.1674 12.0202 11.1047 14.2245 9.45148L12.8895 7.67152L11.5545 5.89156C8.81449 7.94661 6.63034 10.5192 5.01176 13.586L6.97948 14.6245ZM12.8895 7.67152L14.1982 9.47092C16.484 7.80854 19.2236 6.56726 22.4567 5.77694L21.9284 3.61562L21.4001 1.4543C17.6802 2.36359 14.3939 3.82625 11.5809 5.87212L12.8895 7.67152ZM21.9284 3.61562L22.49 5.76852C25.8375 4.89526 29.5092 4.44997 33.5167 4.44997V2.22502V6.10352e-05C29.1806 6.10352e-05 25.1268 0.481842 21.3668 1.46272L21.9284 3.61562ZM33.5167 2.22502V4.44997C37.2837 4.44997 40.6666 4.89326 43.6826 5.75497L44.2938 3.61562L44.9051 1.47627C41.4316 0.483849 37.6298 6.10352e-05 33.5167 6.10352e-05V2.22502ZM44.2938 3.61562L43.7424 5.77116C46.8234 6.55932 49.3581 7.75625 51.3996 9.32138L52.7533 7.55564L54.107 5.7899C51.5132 3.80129 48.4083 2.37154 44.8453 1.46008L44.2938 3.61562ZM52.7533 7.55564L51.4375 9.34986C53.4382 10.817 54.9765 12.7151 56.0604 15.086L58.0839 14.161L60.1075 13.2359C58.7192 10.199 56.7038 7.69354 54.0691 5.76143L52.7533 7.55564ZM58.0839 14.161L56.0939 15.156C57.2205 17.4093 57.829 20.1819 57.829 23.5475H60.0539H62.2789C62.2789 19.6512 61.574 16.166 60.074 13.1659L58.0839 14.161ZM60.0539 23.5475H57.829C57.829 26.7183 57.1602 29.1191 55.9911 30.9035L57.8522 32.1229L59.7132 33.3422C61.4799 30.6458 62.2789 27.3298 62.2789 23.5475H60.0539ZM57.8522 32.1229L55.9617 30.9495C54.7586 32.8879 53.1086 34.5503 50.9677 35.9315L52.1739 37.8011L53.3801 39.6708C56.0291 37.9618 58.1645 35.8386 59.7426 33.2962L57.8522 32.1229ZM52.1739 37.8011L50.8807 35.9906C50.0664 36.5722 49.021 37.0492 47.6942 37.3809L48.2339 39.5394L48.7735 41.6979C50.537 41.257 52.1182 40.5751 53.4671 39.6117L52.1739 37.8011ZM48.2339 39.5394L47.7755 37.3622C46.3647 37.6592 45.0407 37.8792 43.8021 38.025L44.0621 40.2347L44.322 42.4444C45.7101 42.2811 47.1673 42.0376 48.6922 41.7166L48.2339 39.5394ZM44.0621 40.2347H41.8371V40.4664H44.0621H46.287V40.2347H44.0621ZM44.0621 40.4664L44.322 42.6762C45.4507 42.5434 46.7164 42.5392 48.1284 42.6804L48.3497 40.4664L48.5711 38.2525C46.8928 38.0847 45.3001 38.0805 43.8021 38.2567L44.0621 40.4664ZM48.3497 40.4664L48.2386 42.6886C49.513 42.7523 50.597 43.0347 51.5265 43.4995L52.5215 41.5094L53.5166 39.5193C51.9739 38.748 50.2767 38.3351 48.4609 38.2443L48.3497 40.4664ZM52.5215 41.5094L51.6395 43.552C54.6824 44.866 56.9016 46.7188 58.4107 49.0809L60.2857 47.883L62.1607 46.6851C60.116 43.4848 57.1592 41.0885 53.4036 39.4667L52.5215 41.5094ZM60.2857 47.883L58.4107 49.0809C59.8609 51.3507 60.7261 54.8768 60.7261 59.9348H62.951H65.176C65.176 54.4861 64.2642 49.9776 62.1607 46.6851L60.2857 47.883ZM62.951 59.9348H60.7261C60.7261 63.7633 60.0405 67.0184 58.7395 69.7573L60.7492 70.7119L62.759 71.6666C64.3937 68.2251 65.176 64.2954 65.176 59.9348H62.951ZM60.7492 70.7119L58.7203 69.7989C57.4668 72.5844 55.7054 74.8926 53.4303 76.7541L54.8392 78.4761L56.2481 80.1981C59.0719 77.8878 61.2505 75.0199 62.7782 71.625L60.7492 70.7119ZM54.8392 78.4761L53.4622 76.7284C51.1672 78.5366 48.3394 79.9645 44.9334 80.9791L45.5686 83.1114L46.2037 85.2438C50.0597 84.0952 53.4123 82.4329 56.2162 80.2238L54.8392 78.4761ZM45.5686 83.1114L44.9635 80.9703C41.6401 81.9095 37.8696 82.393 33.6326 82.393V84.6179V86.8429C38.2027 86.8429 42.3895 86.322 46.1736 85.2525L45.5686 83.1114Z" fill="url(#paint1_linear_474_819)" mask="url(#path-1-outside-1_474_819)"/>
<defs>
<linearGradient id="paint0_linear_474_819" x1="32.7182" y1="-20.0774" x2="32.7182" y2="118.923" gradientUnits="userSpaceOnUse">
<stop stop-color="#D99F4F"/>
<stop offset="1" stop-color="#BF822E"/>
</linearGradient>
<linearGradient id="paint1_linear_474_819" x1="32.7182" y1="-20.0774" x2="32.7182" y2="118.923" gradientUnits="userSpaceOnUse">
<stop stop-color="#D99F4F"/>
<stop offset="1" stop-color="#BF822E"/>
</linearGradient>
</defs>
</svg>
