<svg width="1230" height="91" viewBox="0 0 1230 91" fill="none" xmlns="http://www.w3.org/2000/svg">
<path d="M32.9237 72.3242H-1.18586e-07V-4.71965e-05H32.9237C55.3766 -4.71965e-05 69.5177 13.8171 69.5177 36.1621C69.5177 58.507 55.3766 72.3242 32.9237 72.3242ZM32.9237 10.4708H11.5503V61.8534H32.9237C49.6555 61.8534 57.2117 54.7289 57.2117 36.1621C57.2117 17.5953 49.6555 10.4708 32.9237 10.4708ZM105.622 73.4037C87.8112 73.4037 75.8292 62.0693 75.8292 45.5534C75.8292 28.8217 87.8112 17.5953 105.622 17.5953C123.542 17.5953 135.524 28.8217 135.524 45.5534C135.524 62.0693 123.542 73.4037 105.622 73.4037ZM105.622 63.0408C118.684 63.0408 124.081 56.8878 124.081 45.5534C124.081 34.1111 118.684 27.8502 105.622 27.8502C92.6688 27.8502 87.2715 34.1111 87.2715 45.5534C87.2715 56.8878 92.6688 63.0408 105.622 63.0408ZM169.675 72.3242H155.21L139.126 18.6747H151.216L160.176 49.1157L162.659 62.9329H163.522L167.516 48.0362L178.743 18.6747H193.639L204.974 48.0362L208.968 62.9329H209.831L212.314 49.1157L221.274 18.6747H233.148L216.848 72.3242H202.383L190.617 41.4515L186.515 28.282H185.651L181.549 41.4515L169.675 72.3242ZM250.728 72.3242H239.07V18.6747H249.757V35.2985H250.512C252.131 26.231 259.256 17.5953 272.857 17.5953C287.754 17.5953 295.094 27.6343 295.094 40.0482V72.3242H283.436V43.1786C283.436 33.1396 278.902 28.0661 267.784 28.0661C256.017 28.0661 250.728 34.1111 250.728 45.7693V72.3242ZM317.141 72.3242H305.482V-4.71965e-05H317.141V72.3242ZM355.355 73.4037C337.543 73.4037 325.561 62.0693 325.561 45.5534C325.561 28.8217 337.543 17.5953 355.355 17.5953C373.274 17.5953 385.256 28.8217 385.256 45.5534C385.256 62.0693 373.274 73.4037 355.355 73.4037ZM355.355 63.0408C368.416 63.0408 373.813 56.8878 373.813 45.5534C373.813 34.1111 368.416 27.8502 355.355 27.8502C342.401 27.8502 337.004 34.1111 337.004 45.5534C337.004 56.8878 342.401 63.0408 355.355 63.0408ZM409.476 73.4037C398.358 73.4037 391.341 68.2222 391.341 59.3706C391.341 51.0587 398.034 46.7409 408.613 45.5534L433.009 42.9627V39.8323C433.009 30.9806 429.123 27.8502 418.868 27.8502C408.937 27.8502 404.079 31.0886 404.079 38.9687V39.4005H392.529V38.9687C392.529 26.7707 402.676 17.5953 419.731 17.5953C436.787 17.5953 444.451 26.8787 444.451 39.7243V72.3242H433.764V58.9388H433.009C430.202 68.0064 421.674 73.4037 409.476 73.4037ZM402.999 58.615C402.999 62.9329 405.914 64.9838 412.607 64.9838C424.805 64.9838 433.009 60.4501 433.009 49.8713L411.959 52.2461C405.914 53.0018 402.999 54.4051 402.999 58.615ZM478.498 73.4037C461.55 73.4037 452.159 62.0693 452.159 45.5534C452.159 28.8217 461.442 17.5953 477.742 17.5953C490.48 17.5953 497.713 24.18 499.871 33.2475H500.519V-4.71965e-05H512.177V72.3242H501.491V56.8878H500.735C498.468 67.5746 490.588 73.4037 478.498 73.4037ZM463.925 45.5534C463.925 58.3991 470.51 62.717 482.06 62.717C493.503 62.717 500.519 57.3196 500.519 46.0932V45.2296C500.519 33.7873 493.826 28.174 481.844 28.174C470.618 28.174 463.925 32.5998 463.925 45.5534ZM577.351 72.3242H565.801V10.4708H537.303V-4.71965e-05H605.741V10.4708H577.351V72.3242ZM624.219 72.3242H612.561V-4.71965e-05H624.219V35.0826H624.867C626.702 26.0151 633.287 17.5953 646.996 17.5953C661.785 17.5953 669.017 27.3105 669.017 40.372V72.3242H657.467V43.1786C657.467 32.384 652.609 28.0661 641.491 28.0661C628.753 28.0661 624.219 34.9747 624.219 46.3091V72.3242ZM706.487 73.4037C688.892 73.4037 677.342 63.4726 677.342 45.5534C677.342 28.8217 688.784 17.5953 706.271 17.5953C722.895 17.5953 734.23 26.7707 734.23 43.0707C734.23 45.0137 734.122 46.525 733.798 48.1442H688.244C688.676 58.507 693.75 64.0123 706.163 64.0123C717.39 64.0123 722.032 60.3421 722.032 53.9733V53.1097H733.69V54.0812C733.69 65.5236 722.463 73.4037 706.487 73.4037ZM706.056 26.7707C694.181 26.7707 689 32.0601 688.352 41.6674H723.219V41.4515C723.219 31.5204 717.498 26.7707 706.056 26.7707ZM768.966 72.3242H756.012L788.288 -4.71965e-05H804.696L836.972 72.3242H823.803L815.491 53.5415H777.278L768.966 72.3242ZM791.742 21.0496L781.919 43.0707H810.849L801.026 21.0496L796.816 10.7946H795.952L791.742 21.0496ZM854.028 90.6752H842.369V18.6747H853.056V33.5714H854.028C856.187 23.6403 863.743 17.5953 876.373 17.5953C892.996 17.5953 902.388 28.9297 902.388 45.5534C902.388 62.1772 893.212 73.4037 876.481 73.4037C864.391 73.4037 856.618 67.0348 854.459 57.2117H854.028V90.6752ZM854.028 46.417C854.028 57.4276 861.044 62.8249 872.487 62.8249C884.037 62.8249 890.73 58.3991 890.73 45.5534C890.73 32.5998 883.929 28.282 872.702 28.282C860.72 28.282 854.028 33.8952 854.028 45.4455V46.417ZM922.127 90.6752H910.469V18.6747H921.155V33.5714H922.127C924.286 23.6403 931.842 17.5953 944.472 17.5953C961.096 17.5953 970.487 28.9297 970.487 45.5534C970.487 62.1772 961.311 73.4037 944.58 73.4037C932.49 73.4037 924.717 67.0348 922.559 57.2117H922.127V90.6752ZM922.127 46.417C922.127 57.4276 929.143 62.8249 940.586 62.8249C952.136 62.8249 958.829 58.3991 958.829 45.5534C958.829 32.5998 952.028 28.282 940.802 28.282C928.819 28.282 922.127 33.8952 922.127 45.4455V46.417ZM1008.67 72.3242H997.016V-4.71965e-05H1009.54L1041.92 42.315L1051.31 55.8084H1052.18L1051.64 42.7468V-4.71965e-05H1063.29V72.3242H1050.77L1018.17 30.1171L1009.11 17.3794H1008.24L1008.67 29.9012V72.3242ZM1101.49 73.4037C1083.68 73.4037 1071.7 62.0693 1071.7 45.5534C1071.7 28.8217 1083.68 17.5953 1101.49 17.5953C1119.41 17.5953 1131.39 28.8217 1131.39 45.5534C1131.39 62.0693 1119.41 73.4037 1101.49 73.4037ZM1101.49 63.0408C1114.56 63.0408 1119.95 56.8878 1119.95 45.5534C1119.95 34.1111 1114.56 27.8502 1101.49 27.8502C1088.54 27.8502 1083.14 34.1111 1083.14 45.5534C1083.14 56.8878 1088.54 63.0408 1101.49 63.0408ZM1165.55 72.3242H1151.08L1135 18.6747H1147.09L1156.05 49.1157L1158.53 62.9329H1159.39L1163.39 48.0362L1174.61 18.6747H1189.51L1200.85 48.0362L1204.84 62.9329H1205.7L1208.19 49.1157L1217.15 18.6747H1229.02L1212.72 72.3242H1198.25L1186.49 41.4515L1182.39 28.282H1181.52L1177.42 41.4515L1165.55 72.3242Z" fill="#1B1B1B"/>
</svg>
