<svg width="24" height="24" viewBox="0 0 24 24" fill="none" xmlns="http://www.w3.org/2000/svg">
<path fill-rule="evenodd" clip-rule="evenodd" d="M4.69566 0C2.4 0 0.521744 1.87826 0.521744 4.17391V19.3043C0.521744 21.6 2.4 23.4783 4.69566 23.4783H19.8261C22.1217 23.4783 24 21.6 24 19.3043V4.17391C24 1.87826 22.1217 0 19.8261 0H4.69566ZM17.4261 10.2261C17.5304 10.2261 17.7391 10.2261 17.8435 10.2261V8.03478C16.9044 7.93043 16.1739 7.61739 15.5478 6.9913C14.9217 6.46956 14.6087 5.63478 14.5044 4.8H12.5217V14.1913C12.5217 15.3391 11.4783 16.1739 10.3304 16.1739C9.8087 16.1739 9.18261 15.9652 8.86957 15.6522C8.45218 15.2348 8.24348 14.713 8.24348 14.1913C8.24348 13.5652 8.45218 13.0435 8.86957 12.6261C9.18261 12.313 9.8087 12.1043 10.3304 12.1043C10.4348 12.1043 10.4348 12.1043 10.5391 12.1043V10.1217C10.4348 10.1217 10.4348 10.1217 10.3304 10.1217C9.49566 10.1217 8.66087 10.3304 8.03479 10.7478C7.30435 11.1652 6.78261 11.8957 6.46957 12.6261C6.15653 13.3565 6.15653 14.1913 6.26087 14.9217C6.46957 15.7565 6.78261 16.487 7.4087 17.0087C7.93044 17.6348 8.76522 17.9478 9.49566 18.1565C10.3304 18.2609 11.1652 18.2609 11.8957 17.9478C12.6261 17.6348 13.2522 17.113 13.7739 16.3826C14.1913 15.7565 14.4 14.9217 14.4 14.1913V8.66087C14.8174 9.18261 15.2348 9.49565 15.7565 9.80869C16.2783 10.1217 16.9044 10.2261 17.4261 10.2261Z" fill="black"/>
</svg>
