<svg width="24" height="24" viewBox="0 0 24 24" fill="none" xmlns="http://www.w3.org/2000/svg">
<path d="M23.3658 4.44004C22.5058 4.82796 21.582 5.08901 20.6124 5.20676C21.6027 4.60433 22.362 3.65051 22.7197 2.5132C21.7941 3.0709 20.7678 3.47616 19.675 3.69523C18.8007 2.74869 17.5551 2.15723 16.1766 2.15723C13.5292 2.15723 11.3832 4.33781 11.3832 7.02589C11.3832 7.40742 11.4263 7.77983 11.5072 8.1349C7.5235 7.93226 3.99181 5.99356 1.62656 3.04717C1.21497 3.76643 0.978634 4.60251 0.978634 5.49611C0.978634 7.18471 1.82426 8.67525 3.11023 9.54785C2.32481 9.52229 1.58522 9.30323 0.939094 8.93903C0.939094 8.96003 0.939094 8.9792 0.939094 9.00019C0.939094 11.3597 2.59081 13.3276 4.78442 13.7739C4.38272 13.8853 3.95856 13.9447 3.52091 13.9447C3.21267 13.9447 2.91163 13.9135 2.61957 13.8579C3.22975 15.7921 5.00009 17.2004 7.09755 17.2397C5.45751 18.5458 3.39061 19.3244 1.14399 19.3244C0.757563 19.3244 0.375636 19.3016 0 19.2559C2.12171 20.637 4.64063 21.4429 7.34827 21.4429C16.1658 21.4429 20.9862 14.024 20.9862 7.58998C20.9862 7.37913 20.9817 7.1692 20.9727 6.96017C21.91 6.27287 22.7233 5.41578 23.3658 4.44004Z" fill="black"/>
</svg>
