<svg width="24" height="24" viewBox="0 0 24 24" fill="none" xmlns="http://www.w3.org/2000/svg">
<path d="M21.014 0H2.1014C0.940374 0 0 0.955138 0 2.13438V21.3438C0 22.5232 0.940374 23.4783 2.1014 23.4783H21.014C22.175 23.4783 23.1153 22.5232 23.1153 21.3438V2.13438C23.1153 0.955138 22.175 0 21.014 0ZM7.30655 19.2095H4.20699V9.07968H7.30655V19.2095ZM5.72525 7.6315C4.72604 7.6315 3.91805 6.8087 3.91805 5.79593C3.91805 4.78316 4.72709 3.96142 5.72525 3.96142C6.72131 3.96142 7.5314 4.78423 7.5314 5.79593C7.5314 6.8087 6.72131 7.6315 5.72525 7.6315ZM18.9168 19.2095H15.8193V14.2833C15.8193 13.1084 15.7983 11.5972 14.2086 11.5972C12.5957 11.5972 12.3478 12.8767 12.3478 14.198V19.2095H9.25034V9.07968H12.2238V10.4638H12.2659C12.6798 9.66771 13.6905 8.82783 15.1984 8.82783C18.3367 8.82783 18.9168 10.9259 18.9168 13.6537V19.2095Z" fill="black"/>
</svg>
