<svg width="96" height="96" viewBox="0 0 96 96" fill="none" xmlns="http://www.w3.org/2000/svg">
<path d="M13.6732 56.9768C13.6979 56.9214 13.7272 56.8682 13.7607 56.8176C41.9094 14.1184 93.569 28.856 94.087 29.0097C94.3704 29.0967 94.608 29.292 94.7482 29.5533C94.8884 29.8145 94.9197 30.1205 94.8355 30.4048C94.7513 30.689 94.5583 30.9285 94.2984 31.0712C94.0386 31.214 93.7329 31.2483 93.4479 31.1669C92.9447 31.0187 42.8578 16.7664 15.6393 58.0555C15.4837 58.2913 15.245 58.4599 14.9708 58.5278C14.6966 58.5958 14.4069 58.558 14.1592 58.4221C13.9115 58.2863 13.724 58.0621 13.634 57.7944C13.5439 57.5266 13.5579 57.2347 13.6732 56.9768Z" fill="url(#paint0_linear_464_778)"/>
<path d="M8.19232 69.3625C9.24187 62.6294 9.57378 53.7342 8.22901 47.3542L15.683 55.9539L26.9125 57.7887C20.7742 59.9906 13.3768 64.9395 8.19232 69.3625Z" fill="url(#paint1_linear_464_778)"/>
<defs>
<linearGradient id="paint0_linear_464_778" x1="83.0437" y1="56.6962" x2="25.4135" y2="30.8247" gradientUnits="userSpaceOnUse">
<stop stop-color="#D99F4F"/>
<stop offset="1" stop-color="#BF822E"/>
</linearGradient>
<linearGradient id="paint1_linear_464_778" x1="23.5628" y1="65.2503" x2="4.1145" y2="56.5195" gradientUnits="userSpaceOnUse">
<stop stop-color="#D99F4F"/>
<stop offset="1" stop-color="#BF822E"/>
</linearGradient>
</defs>
</svg>
