<svg width="73" height="72" viewBox="0 0 73 72" fill="none" xmlns="http://www.w3.org/2000/svg">
<g clip-path="url(#clip0_464_621)">
<path d="M17.3562 6.81812L17.4368 6.34929L17.925 7.50605L17.5898 7.72355L16.9631 6.65701L20.1515 4.59159L20.8684 5.60013L20.5333 5.81602L19.6762 4.8977L20.137 5.01531L17.3546 6.81812H17.3562ZM19.4507 7.60433C19.0624 7.005 18.6709 6.40084 18.2649 5.8128L18.8497 5.43419C19.2122 6.03352 19.6037 6.63767 20 7.24828L20.1853 7.53505C20.5736 8.13438 20.9651 8.73853 21.3711 9.32658L20.7862 9.70519C20.4238 9.10586 20.0323 8.5017 19.6359 7.8911L19.4507 7.60433ZM20.9312 9.15097L21.8061 8.70792L21.9591 8.94475L20.1998 10.0838L20.0468 9.84696L20.8072 9.22992L20.9312 9.14936V9.15097Z" fill="#1B1B1B"/>
<path d="M22.436 3.66684L22.3312 3.40423L24.1437 2.67441L24.2484 2.93702L23.4461 3.37201L23.314 3.42518L22.436 3.66684ZM23.7361 5.15387C23.4703 4.49172 23.1996 3.82311 22.9145 3.16901L23.5605 2.90963C23.8022 3.56695 24.0712 4.23394 24.3435 4.90899L24.4208 5.10232C24.7366 5.88853 25.0056 6.55552 25.2924 7.20962L24.6464 7.46901C24.4047 6.81168 24.1357 6.14469 23.8634 5.46965L23.7361 5.15387ZM24.888 6.95668L25.7677 6.71502L25.874 6.97601L24.0615 7.70584L23.9568 7.44323L24.7575 7.00823L24.8896 6.95507L24.888 6.95668ZM24.1421 5.2892L24.0213 4.98954L26.7053 3.9085L26.8262 4.20816L24.1421 5.2892ZM25.1216 2.5858L25.0153 2.32319L26.8278 1.59337L26.9341 1.85598L26.1318 2.29097L25.9997 2.34414L25.12 2.5858H25.1216ZM26.4202 4.07283C26.1544 3.41068 25.8853 2.74207 25.5985 2.08797L26.2446 1.82859C26.4862 2.48591 26.7553 3.1529 27.0276 3.82795L27.1548 4.14372C27.4207 4.80588 27.6897 5.47448 27.9765 6.12858L27.3304 6.38797C27.0888 5.73064 26.8197 5.06365 26.4975 4.26455L26.4202 4.07122V4.07283ZM27.5753 5.87403L28.455 5.63237L28.5597 5.89497L26.7472 6.6248L26.6425 6.36219L27.4432 5.9272L27.5753 5.87403Z" fill="#1B1B1B"/>
<path d="M29.3878 1.19701L29.3346 0.919908L30.2948 0.734632L30.3673 1.11485L30.2964 1.12774L29.3862 1.19701H29.3878ZM30.3786 2.90477C30.2433 2.20394 30.1079 1.49668 29.9517 0.799076L30.6348 0.666967C30.7459 1.35812 30.8829 2.06539 31.0198 2.7791L31.0698 3.03527C31.2196 3.81503 31.3565 4.5223 31.5112 5.21829L30.8281 5.3504C30.7169 4.65924 30.58 3.95198 30.4431 3.23826L30.3786 2.90316V2.90477ZM31.0988 4.90735L31.1713 5.28757L30.2111 5.47284L30.1579 5.19573L31.0279 4.92185L31.0988 4.90896V4.90735ZM32.1653 0.373749L32.5487 0.655689L30.3609 1.07779L30.2948 0.734632L32.7211 0.267417L33.0015 1.46768L32.61 1.5434L32.1669 0.37536L32.1653 0.373749ZM32.2894 2.82582L30.754 3.12065L30.6928 2.80327L32.2281 2.50844L32.2894 2.82582ZM33.5476 3.57659L33.7329 4.79457L31.1713 5.28757L31.1052 4.94602L33.43 4.49813L33.1787 4.90091L33.1561 3.65231L33.5476 3.57659ZM32.0251 2.61961L31.9897 1.88334L32.3006 1.82373L32.61 3.42837L32.299 3.48798L32.0525 2.75655L32.0268 2.62122L32.0251 2.61961Z" fill="#1B1B1B"/>
<path d="M42.0188 4.1582L41.9866 4.53681L41.5483 4.59803L41.8093 3.58788L42.2363 3.62332L42.1251 4.62542C41.674 4.82197 41.1891 4.88158 40.6993 4.8413C39.3089 4.72531 38.4454 3.65071 38.5646 2.22973C38.6822 0.834529 39.7568 -0.101513 41.1005 0.00965184C41.4823 0.0418736 41.9624 0.148205 42.4054 0.452701L42.349 1.45963L41.9221 1.42419L41.8319 0.383424L42.254 0.517145L42.2185 0.936027C41.8593 0.541311 41.4887 0.39148 41.1585 0.364091C40.2369 0.286759 39.4314 0.942472 39.317 2.29256C39.2042 3.64266 39.8164 4.41598 40.7637 4.49492C41.1536 4.52714 41.5999 4.44498 42.0172 4.1582H42.0188Z" fill="#1B1B1B"/>
<path d="M44.9605 5.07172L45.8192 5.38427L45.7532 5.65977L43.8505 5.20222L43.9165 4.92672L44.822 5.03789L44.9605 5.07172ZM45.0653 2.93542C45.2312 2.24104 45.4004 1.54022 45.547 0.842615L46.2236 1.00534C46.04 1.68038 45.8724 2.3812 45.7016 3.08847L45.6211 3.42036C45.4551 4.11473 45.286 4.81556 45.1394 5.51316L44.4627 5.35044C44.6464 4.67539 44.8139 3.97457 44.9847 3.2673L45.0653 2.93542ZM44.8671 0.969891L44.9331 0.694395L46.8358 1.15033L46.7698 1.42583L45.8627 1.31466L45.7242 1.28083L44.8671 0.96828V0.969891Z" fill="#1B1B1B"/>
<path d="M48.5986 6.17849L49.3993 6.61671L49.2929 6.87771L47.4821 6.13822L47.5884 5.87722L48.4664 6.12372L48.5986 6.17849ZM49.0239 4.08086C49.2929 3.42031 49.5668 2.75332 49.8165 2.08472L50.4594 2.34733C50.1678 3.00626 49.9116 3.6362 49.6039 4.38857L49.5249 4.58191C49.2301 5.30367 48.9578 5.97066 48.7065 6.63926L48.0637 6.37666C48.3472 5.73706 48.6195 5.07007 48.895 4.39663L49.0239 4.08086ZM49.127 2.10727L49.2333 1.84628L50.1388 2.21683L49.9921 2.57449L49.9261 2.5471L49.1254 2.10889L49.127 2.10727ZM49.3171 4.23069L50.1162 4.55774C50.8057 4.83968 51.2826 4.59963 51.4937 4.0873C51.7128 3.5492 51.5436 3.13998 50.8847 2.87093L50.0163 2.51649L50.1388 2.21683L51.0281 2.57932C52.0108 2.98048 52.4168 3.63136 52.1284 4.34185C51.9077 4.88318 51.2794 5.20379 50.3933 4.92507L50.4336 4.87996C50.9089 5.12484 51.1006 5.45834 51.0313 6.11083L50.904 7.29659L50.7413 7.07426L51.3873 7.43031L51.281 7.69131C51.1376 7.68003 50.9765 7.64458 50.7784 7.56242C50.3724 7.39648 50.2338 7.21603 50.2821 6.87932L50.4465 5.74672C50.5319 5.18123 50.3385 4.99112 49.8149 4.77685L49.1979 4.52552L49.3171 4.2323V4.23069Z" fill="#1B1B1B"/>
<path d="M55.9306 9.71163L55.7276 10.0322L55.3104 9.8824L56.0112 9.10908L56.3737 9.33785L55.8098 10.174C55.32 10.1402 54.8609 9.96779 54.4468 9.70518C53.2691 8.95764 53.0017 7.60593 53.7653 6.40245C54.5161 5.21991 55.9033 4.88803 57.0407 5.6098C57.3629 5.8144 57.7399 6.13179 57.9928 6.60706L57.4757 7.47382L57.1132 7.24505L57.516 6.28162L57.8285 6.59578L57.603 6.95022C57.4676 6.43467 57.2082 6.13018 56.9279 5.95296C56.1481 5.45835 55.1299 5.66457 54.4033 6.80844C53.6783 7.95232 53.8636 8.92219 54.6643 9.4313C54.9946 9.64074 55.428 9.77446 55.9306 9.71324V9.71163Z" fill="#1B1B1B"/>
<path d="M58.0298 11.8012L57.7688 12.0864L57.047 11.4258L57.2371 11.218L57.975 11.7545L58.0282 11.8028L58.0298 11.8012ZM60.6478 8.43404L61.1601 8.90447C60.6623 9.41519 60.1758 9.94685 59.6924 10.4737L59.3686 10.8265C58.9707 11.2615 58.4825 11.7932 58.025 12.3232L57.5126 11.8528C58.0105 11.342 58.497 10.8104 58.9739 10.29L59.2107 10.0322C59.7021 9.49574 60.1886 8.9657 60.6478 8.43565V8.43404ZM60.5254 12.8436L59.5925 13.7587L57.7704 12.0864L58.0056 11.8286L59.6505 13.3366L59.1269 13.3301L60.2128 12.5552L60.5254 12.842V12.8436ZM59.9921 8.21654L60.1838 8.00871L61.6273 9.33302L61.4356 9.54085L60.6961 9.00436L60.5898 8.90608L59.9921 8.21654Z" fill="#1B1B1B"/>
<path d="M61.6402 15.526L61.3357 15.7629L60.7364 14.9895L60.9603 14.8155L61.5983 15.468L61.6418 15.5244L61.6402 15.526ZM63.0999 13.9794C63.6638 13.5428 64.2325 13.0997 64.7835 12.647L65.2104 13.1964C64.6449 13.6088 64.0762 14.0503 63.501 14.4966L63.2948 14.6561C62.6681 15.1426 62.0978 15.584 61.5468 16.0384L61.1198 15.489C61.6853 15.0765 62.2541 14.6351 62.8292 14.1888L63.0983 13.9794H63.0999ZM63.936 17.1081L62.9339 17.8251L61.3357 15.7645L61.6112 15.5502L63.0612 17.4207L62.5875 17.3788L63.6911 16.794L63.936 17.1097V17.1081ZM64.0359 15.6469L63.0773 14.4112L63.3335 14.213L64.2921 15.4487L64.0359 15.6469ZM64.0987 15.3166L64.74 14.9509L64.9349 15.2006L63.6444 16.2011L63.4495 15.9514L63.9908 15.4004L64.1004 15.315L64.0987 15.3166ZM64.1745 12.3216L64.3968 12.1476L64.9961 12.9209L64.6916 13.1577L64.6481 13.1014L64.1745 12.3216ZM66.1658 14.4273L66.0884 14.8961L64.7222 13.1352L64.9977 12.9209L66.5122 14.8719L65.5697 15.6646L65.3248 15.3488L66.1658 14.4257V14.4273Z" fill="#1B1B1B"/>
<path d="M67.1776 23.6347C67.5869 23.4607 67.6674 23.1385 67.6497 22.5021L67.6432 22.2169C67.6239 21.45 67.806 20.8475 68.4585 20.5688C69.1931 20.2562 69.9036 20.6848 70.2516 21.5032C70.4337 21.9318 70.4465 22.3329 70.3595 22.6954L69.5105 23.0096L69.3429 22.6149L70.2307 22.0284L70.1984 22.5311L69.8794 22.6664C70.0486 22.2234 70.0583 21.9414 69.9149 21.6031C69.7071 21.1133 69.3011 20.8475 68.8306 21.0473C68.4327 21.2164 68.3102 21.5725 68.328 22.109L68.336 22.4022C68.365 23.3817 68.1346 23.8635 67.5321 24.1196C66.7797 24.4386 66.0499 24.0085 65.6729 23.1224C65.4699 22.6439 65.4199 22.1106 65.4812 21.7336L66.393 21.392L66.5606 21.7868L65.6455 22.3716V21.877L65.9516 21.7465C65.8372 22.262 65.8034 22.5359 65.987 22.9677C66.2416 23.5654 66.6879 23.8393 67.176 23.6315L67.1776 23.6347Z" fill="#1B1B1B"/>
<path d="M70.2145 29.8341C68.7323 30.1773 67.619 29.3669 67.3758 28.3165C67.1325 27.266 67.7173 26.0561 69.2575 25.7001C70.7397 25.3569 71.8562 26.1802 72.0979 27.2242C72.3395 28.2681 71.7547 29.4781 70.2145 29.8341ZM67.7173 28.2375C67.9348 29.1736 69.0271 29.3331 70.0453 29.0962C71.0636 28.861 71.9754 28.2375 71.7595 27.3015C71.5437 26.3654 70.4481 26.1995 69.4299 26.4363C68.4117 26.6716 67.5014 27.3015 67.7173 28.2375Z" fill="#1B1B1B"/>
<path d="M68.9882 35.7371L68.608 35.7516L68.4953 35.3247L69.5296 35.4632L69.5457 35.8918L68.5371 35.9015C68.2874 35.4777 68.1698 35.0025 68.1521 34.5127C68.1005 33.1175 69.064 32.1315 70.4882 32.0783C71.8882 32.0268 72.9467 32.9822 72.9966 34.329C73.0111 34.7109 72.9628 35.2022 72.7131 35.6791L71.7061 35.7436L71.69 35.315L72.7115 35.1007L72.6293 35.5357L72.2088 35.5519C72.5568 35.1475 72.6615 34.7608 72.6486 34.4305C72.6148 33.5074 71.8673 32.7856 70.5123 32.8356C69.159 32.8855 68.4646 33.5879 68.5001 34.5369C68.5146 34.9284 68.6499 35.3617 68.985 35.7404L68.9882 35.7371Z" fill="#1B1B1B"/>
<path d="M68.431 38.7676L68.2232 39.6569L67.9429 39.6247L68.1701 37.6817L68.4504 37.714V38.6258L68.431 38.7676ZM70.5657 38.6162C71.2746 38.6983 71.9899 38.7821 72.7004 38.8449L72.6199 39.5361C71.9271 39.4346 71.2118 39.3508 70.4884 39.2654L70.1501 39.2252C69.4412 39.143 68.7259 39.0592 68.0138 38.9964L68.0943 38.3052C68.7871 38.4067 69.5024 38.4905 70.2242 38.5759L70.5625 38.6162H70.5657ZM72.4942 38.186L72.7745 38.2182L72.5474 40.1612L72.267 40.129V39.2155L72.2864 39.0737L72.4942 38.186Z" fill="#1B1B1B"/>
<path d="M67.896 45.2297L66.7215 44.8607L67.4046 42.3426L67.7413 42.4344L67.1211 44.719L66.8697 44.3162L68.0023 44.8446L67.8976 45.2297H67.896ZM69.8921 42.6777C70.5801 42.8646 71.2761 43.0531 71.9704 43.2206L71.7884 43.8925C71.1182 43.6895 70.4238 43.501 69.7214 43.3109L69.4684 43.2416C68.7032 43.0338 68.0072 42.8453 67.3128 42.6793L67.4948 42.0075C68.1651 42.2105 68.8594 42.399 69.5619 42.5891L69.8905 42.6777H69.8921ZM67.7768 42.4441L67.4046 42.3426L67.6608 41.3985L67.9331 41.4726L67.7961 42.3748L67.7768 42.4441ZM69.4249 44.2807L70.1032 44.5723L70.021 44.8785L68.4454 44.4515L68.5276 44.1454L69.2928 44.2453L69.4265 44.2807H69.4249ZM69.1237 44.429L69.5329 42.9194L69.8454 43.0048L69.4362 44.5127L69.1237 44.4274V44.429ZM71.3808 45.3956L70.9603 45.6163L71.5435 43.4655L71.8802 43.5574L71.2342 45.9418L70.0339 45.6663L70.1386 45.2812L71.3824 45.3972L71.3808 45.3956ZM71.8625 42.5375L72.1348 42.6117L71.8786 43.5558L71.5048 43.4543L71.5242 43.385L71.8625 42.5375Z" fill="#1B1B1B"/>
<path d="M65.6937 48.3278L65.1878 49.1672L64.9316 49.0479L65.8177 47.1485L66.0739 47.2677L65.7565 48.1941L65.6937 48.3278ZM67.7687 48.853C68.4148 49.1543 69.0689 49.4588 69.7246 49.7423L69.4298 50.3739C68.8047 50.0581 68.1522 49.7536 67.4916 49.4475L67.1823 49.3025C66.5346 49.0012 65.8821 48.6967 65.2264 48.4132L65.5213 47.7832C66.1464 48.0974 66.7989 48.4019 67.4594 48.7096L67.7687 48.8546V48.853ZM69.9598 48.4083L70.1403 48.8482L69.1124 48.1264L69.2815 47.7655L70.3787 48.3375L68.7724 51.7804L67.6302 51.3067L67.7993 50.9458L69.0125 51.2696L68.5598 51.4146L69.9614 48.41L69.9598 48.4083Z" fill="#1B1B1B"/>
<path d="M62.9404 53.0499L62.2944 53.7862L62.064 53.6234L63.2707 51.9109L63.5011 52.0736L63.0258 52.9291L62.9404 53.0499ZM64.558 53.6992L64.181 54.234C63.5236 53.7701 62.9839 53.3898 62.4668 53.0515L62.8679 52.4828C63.3496 52.8485 63.8942 53.232 64.558 53.6992ZM64.0585 53.4929L67.4499 54.0294L67.0149 54.6465L64.0795 54.1068L64.2164 53.9086L65.6922 56.5218L65.4843 56.8166L63.8249 53.8232L64.0569 53.4929H64.0585ZM65.3957 56.2721L65.9193 55.7082L66.1497 55.8709L65.2362 57.1662L65.0058 57.0035L65.3168 56.3816L65.3941 56.2721H65.3957ZM67.4354 53.559L67.6657 53.7217L66.538 55.3199L66.3076 55.1572L66.741 54.3629L66.8264 54.2421L67.4354 53.559Z" fill="#1B1B1B"/>
<path d="M51.8689 62.884L50.9909 63.319L50.8395 63.0805L52.6068 61.956L52.7583 62.1944L51.993 62.8034L51.8689 62.8824V62.884ZM53.335 64.4435C53.7185 65.046 54.1051 65.6534 54.5047 66.2447L53.9183 66.6185C53.5606 66.0175 53.1739 65.4085 52.784 64.7947L52.6004 64.5063C52.2169 63.9038 51.8303 63.2964 51.4307 62.7051L52.0172 62.3314C52.3748 62.9323 52.7615 63.5413 53.1514 64.1551L53.335 64.4435ZM55.4214 65.2474L55.336 65.7146L54.8575 64.5531L55.1942 64.3388L55.8129 65.4102L52.6068 67.4482L51.8979 66.4332L52.2347 66.2189L53.0837 67.1437L52.6246 67.0229L55.4214 65.2442V65.2474Z" fill="#1B1B1B"/>
<path d="M45.1942 66.1094L44.3129 66.3446L44.2098 66.082L46.0287 65.3651L46.1318 65.6277L45.3263 66.0562L45.1942 66.1078V66.1094ZM46.3348 67.9186C46.5958 68.5824 46.86 69.2526 47.142 69.9099L46.4943 70.1645C46.2575 69.5056 45.9933 68.8353 45.7258 68.1587L45.6002 67.8413C45.3392 67.1775 45.075 66.5073 44.793 65.85L45.4407 65.5954C45.6775 66.2544 45.9417 66.9246 46.2575 67.7253L46.3332 67.9186H46.3348ZM47.6237 69.4169L47.7268 69.6796L45.9095 70.3965L45.8064 70.1339L46.6119 69.7053L46.7441 69.6538L47.6253 69.4186L47.6237 69.4169ZM48.6226 66.7216L48.7418 67.0229L46.0481 68.083L45.9288 67.7817L48.6226 66.7216ZM47.8895 65.0477L47.0083 65.2829L46.9052 65.0203L48.7241 64.3034L48.8272 64.566L48.0233 64.9945L47.8911 65.0461L47.8895 65.0477ZM49.0286 66.8585C49.2896 67.5223 49.5538 68.1925 49.8357 68.8498L49.1881 69.1044C48.9512 68.4455 48.687 67.7752 48.4196 67.0986L48.3439 66.9053C48.0329 66.1174 47.7687 65.4472 47.4884 64.7899L48.136 64.5353C48.3729 65.1943 48.6371 65.8645 48.9045 66.5412L49.0302 66.8585H49.0286ZM50.3174 68.3552L50.4206 68.6178L48.6032 69.3348L48.5001 69.0722L49.3057 68.6436L49.4378 68.5921L50.3174 68.3569V68.3552Z" fill="#1B1B1B"/>
<path d="M39.2025 68.36L39.0269 67.1404L41.5934 66.6684L41.6562 67.0116L39.3282 67.4401L39.5827 67.0389L39.594 68.2892L39.2025 68.3617V68.36ZM40.5574 71.5726L40.1772 71.2874L42.3683 70.8846L42.4311 71.2278L40.0016 71.6741L39.731 70.4722L40.1225 70.3997L40.5558 71.5709L40.5574 71.5726ZM40.7186 69.3283L40.7492 70.0662L40.4366 70.1242L40.1418 68.5179L40.4527 68.4599L40.6928 69.193L40.7186 69.3283ZM40.4543 69.1205L41.9913 68.8385L42.0493 69.1575L40.5123 69.4395L40.4543 69.1205ZM42.3651 69.0576C42.494 69.7601 42.6245 70.469 42.7743 71.1666L42.0896 71.2922C41.9833 70.6011 41.8528 69.8922 41.7223 69.1769L41.6755 68.9207C41.5322 68.1409 41.4017 67.4321 41.2518 66.7328L41.9365 66.6072C42.0429 67.2999 42.1734 68.0072 42.3039 68.7225L42.3651 69.0576ZM41.6643 67.0486L41.595 66.6684L42.5568 66.4912L42.6084 66.7699L41.7352 67.0357L41.6643 67.0486ZM43.343 70.7735L43.3946 71.0522L42.4328 71.2294L42.3635 70.8492L42.4344 70.8363L43.3446 70.7751L43.343 70.7735Z" fill="#1B1B1B"/>
<path d="M30.7362 67.7092L30.77 67.3306L31.2082 67.2726L30.9392 68.2811L30.5122 68.2425L30.6314 67.242C31.0842 67.0487 31.5691 66.9923 32.0589 67.0374C33.4492 67.1647 34.3031 68.2457 34.1726 69.6651C34.0453 71.0603 32.9627 71.9882 31.619 71.8658C31.2372 71.8304 30.7587 71.7208 30.3173 71.4115L30.3817 70.4045L30.8087 70.4432L30.8908 71.484L30.4703 71.347L30.509 70.9282C30.865 71.3261 31.234 71.4775 31.5643 71.5081C32.4842 71.5919 33.2962 70.9427 33.4202 69.5942C33.5443 68.2457 32.9369 67.4675 31.9912 67.3805C31.6013 67.3451 31.1534 67.424 30.7362 67.7076V67.7092Z" fill="#1B1B1B"/>
<path d="M27.8652 70.875L27.7975 71.1488L25.8981 70.6784L25.9657 70.4045L26.8712 70.5221L27.0097 70.556L27.8652 70.875ZM27.6815 68.9078C27.5092 69.6006 27.3368 70.2998 27.1853 70.9974L26.5103 70.8298C26.6988 70.1564 26.8728 69.4556 27.0468 68.7499L27.1289 68.4197C27.3013 67.7269 27.4737 67.0277 27.6252 66.3301L28.3002 66.4976C28.1117 67.1711 27.9377 67.8719 27.7637 68.5775L27.6815 68.9094V68.9078ZM27.8024 66.7715L26.9469 66.4525L27.0146 66.1786L28.914 66.6491L28.8464 66.923L27.9409 66.8054L27.8024 66.7715Z" fill="#1B1B1B"/>
<path d="M23.4412 67.5787L22.6453 67.2452C21.959 66.9584 21.4789 67.1936 21.2646 67.7043C21.0406 68.2392 21.2066 68.6516 21.8623 68.9255L22.7275 69.288L22.6034 69.5861L21.7173 69.2155C20.7378 68.8063 20.3366 68.1506 20.633 67.4449C20.8586 66.9052 21.4901 66.5894 22.373 66.8778L22.3327 66.9213C21.8591 66.6716 21.6706 66.3365 21.7447 65.684L21.8816 64.4999L22.0427 64.7238L21.3999 64.3629L21.5095 64.1019C21.6512 64.1148 21.8124 64.1519 22.0105 64.234C22.4149 64.4032 22.5518 64.5836 22.5003 64.922L22.3263 66.053C22.2361 66.6168 22.4278 66.8102 22.9498 67.0293L23.5652 67.287L23.4428 67.5787H23.4412ZM23.7328 67.7317C23.4573 68.3906 23.1802 69.0544 22.9224 69.7214L22.2812 69.454C22.5776 68.7983 22.8402 68.1699 23.1544 67.4192L23.2349 67.2274C23.5362 66.5073 23.8133 65.8435 24.0711 65.1765L24.7123 65.444C24.4239 66.082 24.1452 66.7457 23.8649 67.4175L23.7328 67.7317ZM23.6136 69.7037L23.504 69.9647L22.6018 69.5877L22.7516 69.2316L22.8177 69.259L23.6136 69.7053V69.7037ZM24.1758 65.6373L23.3799 65.191L23.4895 64.93L25.2939 65.6856L25.1844 65.9466L24.3079 65.6921L24.1758 65.6373Z" fill="#1B1B1B"/>
<path d="M16.8745 62.0446L17.0807 61.7256L17.4964 61.8787L16.7907 62.6472L16.4299 62.4152L17.0002 61.5838C17.4899 61.6225 17.9475 61.7981 18.3599 62.064C19.5328 62.8212 19.789 64.1745 19.0156 65.3715C18.2568 66.5476 16.8665 66.8698 15.7339 66.1384C15.4116 65.9306 15.0379 65.6116 14.7898 65.1331L15.3134 64.2711L15.6726 64.5031L15.2634 65.4633L14.9541 65.1476L15.1829 64.7947C15.315 65.3119 15.5711 65.618 15.8499 65.7985C16.6264 66.2995 17.6462 66.1013 18.3809 64.9623C19.1155 63.8249 18.9383 62.8534 18.1392 62.3378C17.8106 62.1252 17.3772 61.9882 16.8745 62.0462V62.0446Z" fill="#1B1B1B"/>
<path d="M12.8 63.5091L12.6082 63.7153L11.1728 62.3813L11.3645 62.1751L12.0991 62.7164L12.2055 62.8147L12.7983 63.5075L12.8 63.5091ZM12.1459 63.2868L11.6368 62.8131C12.1378 62.3056 12.6276 61.7772 13.1141 61.2552L13.4396 60.9056C13.8407 60.4738 14.3321 59.9454 14.7929 59.4185L15.302 59.8922C14.8009 60.3997 14.3112 60.9281 13.8294 61.4437L13.591 61.6998C13.0964 62.2315 12.605 62.7599 12.1442 63.2868H12.1459ZM12.2989 58.8804L13.2382 57.9718L15.049 59.6554L14.8106 59.9115L13.177 58.3923L13.7006 58.4019L12.6082 59.1688L12.2989 58.8804ZM14.7864 59.9389L15.049 59.6554L15.7644 60.3207L15.5726 60.527L14.838 59.9856L14.7848 59.9373L14.7864 59.9389Z" fill="#1B1B1B"/>
<path d="M6.66496 57.2484L6.74713 56.7796L8.09883 58.5518L7.82172 58.7628L6.32341 56.7989L7.27234 56.0143L7.514 56.3317L6.66496 57.2484ZM9.72764 57.7205C9.16054 58.1538 8.58699 58.5904 8.03277 59.0399L7.61067 58.4873C8.17938 58.0797 8.75293 57.6431 9.33131 57.2017L9.53914 57.0438C10.1707 56.5621 10.7426 56.1255 11.2968 55.676L11.7189 56.2286C11.1502 56.6362 10.5767 57.0728 9.9983 57.5142L9.72603 57.7221L9.72764 57.7205ZM8.64015 59.3702L8.4146 59.541L7.82172 58.7628L8.12944 58.5292L8.17294 58.5856L8.64015 59.3702ZM8.74004 56.3752L8.09561 56.7361L7.90389 56.4848L9.20242 55.4939L9.39414 55.7453L8.8496 56.2914L8.74004 56.3752ZM8.8061 56.0465L9.75503 57.2903L9.49725 57.4868L8.54832 56.2447L8.8061 56.0481V56.0465ZM8.91726 54.5853L9.9258 53.878L11.5079 55.9515L11.2308 56.1625L9.7953 54.2808L10.269 54.3259L9.16054 54.9027L8.91887 54.5853H8.91726ZM11.2002 56.1851L11.5079 55.9499L12.1008 56.728L11.8768 56.8988L11.2437 56.2415L11.2002 56.1851Z" fill="#1B1B1B"/>
<path d="M5.73362 48.0378C5.32279 48.2086 5.24063 48.5292 5.25352 49.1656L5.25835 49.4507C5.27124 50.2176 5.08596 50.8185 4.43025 51.0908C3.69237 51.3969 2.98672 50.9635 2.64517 50.1419C2.46634 49.7117 2.45667 49.3105 2.54528 48.9497L3.39754 48.642L3.56188 49.0367L2.66933 49.6167L2.70639 49.114L3.02538 48.9803C2.853 49.4217 2.84172 49.7037 2.98188 50.042C3.18649 50.5334 3.58926 50.8024 4.06131 50.6059C4.46086 50.4399 4.58653 50.0839 4.57203 49.5474L4.56558 49.2542C4.54303 48.2746 4.77825 47.7945 5.3824 47.5432C6.13801 47.229 6.86461 47.6656 7.23354 48.555C7.43332 49.0351 7.47843 49.5683 7.41399 49.9453L6.49889 50.2804L6.33456 49.8841L7.25288 49.3073L7.24966 49.8019L6.94194 49.9292C7.06116 49.4137 7.0966 49.1414 6.91616 48.708C6.66644 48.1087 6.22339 47.8316 5.73201 48.0362L5.73362 48.0378Z" fill="#1B1B1B"/>
<path d="M2.74357 41.8093C4.229 41.4774 5.33581 42.2975 5.56942 43.3495C5.80464 44.4016 5.21015 45.6067 3.66673 45.9498C2.1813 46.2801 1.07126 45.4488 0.839268 44.4032C0.60566 43.3576 1.20015 42.1525 2.74357 41.8093ZM5.22948 43.4253C5.02004 42.4876 3.92934 42.32 2.90952 42.5472C1.8897 42.7744 0.971377 43.3898 1.18082 44.3275C1.39026 45.2651 2.48258 45.4391 3.50401 45.2119C4.52383 44.9848 5.43892 44.3629 5.23109 43.4253H5.22948Z" fill="#1B1B1B"/>
<path d="M4.02115 35.9224L4.39976 35.9112L4.50932 36.3397L3.47661 36.1931L3.46372 35.7645H4.47226C4.71876 36.1899 4.83153 36.6651 4.84603 37.1565C4.88631 38.5517 3.91482 39.5297 2.49062 39.5699C1.09059 39.6102 0.0401567 38.6452 0.0014906 37.2983C-0.00978702 36.9165 0.0417678 36.4267 0.29632 35.9514L1.30325 35.895L1.31453 36.3236L0.291486 36.5298L0.376874 36.0948L0.797368 36.0835C0.446151 36.4847 0.338208 36.8698 0.347875 37.2C0.373652 38.1232 1.11475 38.8514 2.46968 38.8143C3.82299 38.7757 4.52381 38.0797 4.49643 37.1308C4.48515 36.7393 4.35304 36.3059 4.02115 35.924V35.9224Z" fill="#1B1B1B"/>
<path d="M0.53303 33.4462L0.252701 33.4107L0.494364 31.4694L0.774693 31.5048L0.765027 32.4183L0.747305 32.5601L0.531419 33.4478L0.53303 33.4462ZM2.46472 33.0305C1.75585 32.9419 1.04213 32.8533 0.330033 32.7856L0.415421 32.0945C1.10658 32.2024 1.8219 32.291 2.54367 32.3812L2.882 32.4231C3.59087 32.5117 4.3062 32.6003 5.01669 32.668L4.9313 33.3592C4.24014 33.2512 3.52482 33.1626 2.80305 33.0724L2.46472 33.0305ZM4.60103 32.8952L4.81691 32.0075L5.09724 32.0429L4.85558 33.9843L4.57525 33.9488L4.58492 33.0353L4.60264 32.8936L4.60103 32.8952Z" fill="#1B1B1B"/>
<path d="M1.19867 29.0979L0.926392 29.0221L1.189 28.0797L1.56116 28.1844L1.54183 28.2537L1.19705 29.0995L1.19867 29.0979ZM3.17064 28.9722C2.48431 28.7805 1.78993 28.5855 1.09717 28.4148L1.28405 27.7446C1.95265 27.9524 2.64703 28.1473 3.34625 28.3423L3.59758 28.4132C4.36123 28.6274 5.05561 28.8208 5.74838 28.9931L5.56149 29.6634C4.89289 29.4555 4.20012 29.2606 3.4993 29.0656L3.17064 28.9738V28.9722ZM1.70294 26.2446L2.12665 26.0287L1.52733 28.1747L1.19061 28.0813L1.85599 25.7017L3.05464 25.9869L2.9467 26.3703L1.70294 26.2446ZM3.64913 27.374L2.97408 27.0776L3.05947 26.7731L4.63189 27.2129L4.54651 27.5174L3.78124 27.4111L3.64913 27.374ZM3.95202 27.229L3.53152 28.7338L3.21897 28.6468L3.63946 27.142L3.95202 27.229ZM5.18611 26.438L6.35898 26.8166L5.65655 29.3282L5.32144 29.2348L5.95943 26.9551L6.20754 27.3595L5.07978 26.8214L5.18772 26.438H5.18611ZM5.28277 29.2235L5.65493 29.3266L5.39233 30.2691L5.12005 30.1934L5.26344 29.2928L5.28277 29.2235Z" fill="#1B1B1B"/>
<path d="M3.14956 23.2431L2.97395 22.8017L3.99538 23.5315L3.8246 23.8908L2.73228 23.3108L4.36754 19.8824L5.50658 20.3657L5.33419 20.725L4.12426 20.3915L4.57698 20.2514L3.15117 23.2431H3.14956ZM5.34386 22.8178C4.69942 22.5101 4.05015 22.2008 3.39766 21.9124L3.69733 21.2841C4.31921 21.6047 4.97009 21.914 5.6258 22.2265L5.93352 22.3732C6.57795 22.6809 7.22722 22.9902 7.88132 23.2786L7.58166 23.9069C6.95978 23.5863 6.3089 23.277 5.65319 22.9628L5.34547 22.8162L5.34386 22.8178ZM7.41411 23.3608L7.92643 22.5262L8.18098 22.647L7.27877 24.5385L7.02422 24.4176L7.34966 23.4945L7.41411 23.3608Z" fill="#1B1B1B"/>
<path d="M5.71607 18.1118L5.48569 17.9475L6.62473 16.3574L6.85511 16.5217L6.41529 17.3128L6.32829 17.4336L5.71446 18.1118H5.71607ZM9.09291 18.2037L5.7048 17.6414L6.14462 17.0276L9.0768 17.5899L8.93825 17.7864L7.48183 15.1619L7.69127 14.8687L9.32813 17.875L9.09291 18.2037ZM7.77504 15.4149L7.24661 15.9739L7.01622 15.8096L7.93776 14.5223L8.16815 14.6867L7.85238 15.3069L7.77504 15.4149ZM8.59509 17.9926L8.9753 17.461C9.62941 17.9298 10.1659 18.3132 10.6798 18.6564L10.2755 19.2219C9.79696 18.853 9.25563 18.4647 8.59509 17.9926ZM10.2062 18.6548L10.8571 17.9234L11.0874 18.0877L9.86785 19.7906L9.63746 19.6263L10.1192 18.7756L10.2046 18.6548H10.2062Z" fill="#1B1B1B"/>
<path fill-rule="evenodd" clip-rule="evenodd" d="M14.0868 9.86501C14.2721 9.8344 14.4736 9.84978 14.6718 9.88844C15.4403 10.0415 16.0318 10.5687 16.2558 11.2244C16.4426 11.7816 16.4619 12.1989 16.412 12.447C16.3911 12.5485 16.3767 12.6503 16.3622 12.7517C16.3139 13.0738 16.1105 13.3556 15.8915 13.573C15.4871 13.9742 14.9598 14.3124 14.3476 14.3591C13.8563 14.3961 13.3619 14.229 13.0204 14.0437C12.5968 13.8134 12.1797 13.4463 11.9316 13.0711C10.6604 11.1539 10.9245 10.3753 11.0663 10.0095L11.0673 10.0086C11.1011 9.92001 11.2337 9.89355 11.3046 9.96266C11.5123 10.1655 11.6217 10.5875 11.6669 10.8035C11.6878 10.9049 11.7168 11.0053 11.7538 11.1004C12.1435 12.0907 12.4386 12.6237 12.6737 12.7771C12.7574 12.8318 12.8288 12.8964 12.8964 12.9656C13.1203 13.1943 13.3908 13.2977 13.6357 13.3396C14.0384 13.4089 14.4509 13.3157 14.8085 13.116C15.3559 12.8113 15.2768 12.5003 15.2743 12.491L15.1874 12.4783C14.5414 12.3865 13.9206 12.1895 13.3583 11.9011C13.3498 11.8983 13.3455 11.8949 13.3446 11.8943C13.0514 11.6929 12.9337 11.4254 12.8935 11.1853C12.8212 10.7521 13.0222 10.3077 13.4394 10.0613C13.7696 9.8667 14.0808 9.86502 14.0868 9.86501ZM15.245 10.6345C14.9275 10.1726 14.2206 10.2129 13.9452 10.7009C13.8051 10.949 13.7166 11.2391 13.8632 11.4597C14.1853 11.9429 14.427 12.0232 15.0712 12.0232C15.1919 12.0232 15.3127 11.9703 15.3788 11.8689C15.4642 11.7384 15.5194 11.4978 15.4228 11.0564C15.3905 10.91 15.3336 10.7682 15.2499 10.6443C15.2483 10.6412 15.2452 10.6381 15.2421 10.6336L15.245 10.6345Z" fill="#1B1B1B"/>
<path fill-rule="evenodd" clip-rule="evenodd" d="M60.0032 57.4727C60.1884 57.4421 60.39 57.4575 60.5882 57.4961C61.3566 57.6492 61.9482 58.1763 62.1721 58.8321C62.359 59.3893 62.3783 59.8066 62.3284 60.0547C62.3074 60.1562 62.2931 60.2579 62.2786 60.3594C62.2303 60.6815 62.0269 60.9632 61.8079 61.1807C61.4035 61.5818 60.8761 61.9211 60.2639 61.9678C59.7727 62.0047 59.2782 61.8366 58.9368 61.6514C58.5132 61.4211 58.096 61.054 57.8479 60.6787C56.5768 58.7615 56.8409 57.9829 56.9827 57.6172L56.9846 57.6162C57.0184 57.5277 57.15 57.5013 57.221 57.5703C57.4286 57.7732 57.5381 58.1951 57.5833 58.4112C57.6042 58.5126 57.6332 58.613 57.6702 58.708C58.0598 59.6982 58.355 60.2313 58.5901 60.3848C58.6738 60.4395 58.7452 60.5041 58.8128 60.5733C59.0366 60.8019 59.3072 60.9054 59.552 60.9473C59.9547 61.0165 60.3673 60.9233 60.7249 60.7237C61.2731 60.4185 61.193 60.1071 61.1907 60.0987L61.1038 60.086C60.4579 59.9941 59.8378 59.7971 59.2757 59.5088C59.2666 59.5058 59.2616 59.5023 59.261 59.502C58.9678 59.3006 58.8501 59.033 58.8098 58.793C58.7375 58.3597 58.9386 57.9154 59.3557 57.669C59.6842 57.4754 59.994 57.4727 60.0032 57.4727ZM61.1614 58.2422C60.8439 57.7802 60.137 57.8206 59.8616 58.3086C59.7214 58.5567 59.633 58.8467 59.7796 59.0674C60.1017 59.5506 60.3433 59.6309 60.9876 59.6309C61.1084 59.6309 61.2291 59.578 61.2952 59.4766C61.3805 59.3461 61.4356 59.1062 61.3391 58.6651C61.3069 58.5184 61.2501 58.376 61.1663 58.252C61.1647 58.2489 61.1615 58.2458 61.1585 58.2412L61.1614 58.2422Z" fill="#1B1B1B"/>
<path d="M36.5895 34.6496L31.8997 20.2095C31.8997 20.2095 30.1516 21.3453 28.9723 20.0467C28.8322 19.8921 28.7194 19.71 28.6227 19.5167C28.3649 18.9995 27.5111 17.6559 25.6196 17.5206L15.3731 17.1081C15.3731 17.1081 15.9596 18.4179 17.5094 19.1703C18.0781 19.4458 18.6936 19.586 19.3122 19.6166L25.2749 19.9017C25.2749 19.9017 25.8951 19.8357 26.2673 20.3335L18.2296 20.021C18.2296 20.021 18.7467 20.9812 19.7472 21.6417C20.2966 22.0042 20.9169 22.1943 21.5436 22.2217L27.5578 22.494C27.8123 22.5053 28.0669 22.5407 28.315 22.6116C28.5341 22.6744 28.7742 22.7695 28.9272 22.9096L20.8895 22.5971C20.8895 22.5971 21.6064 24.2936 23.3996 24.8172C23.696 24.9042 23.9989 24.9396 24.3018 24.9477L29.889 25.1088C30.1839 25.1168 30.4803 25.1942 30.7429 25.3585C30.8847 25.4455 31.0265 25.5631 31.1425 25.7194L23.7234 25.3327C23.7234 25.3327 24.2889 26.3831 25.3168 27.0501C25.8065 27.3675 26.3559 27.527 26.9101 27.556L31.8594 27.8041C31.8594 27.8041 32.3234 27.7493 32.6955 28.2472L26.5557 28.07C26.5557 28.07 27.0277 29.0431 27.9364 29.6875C28.3569 29.9855 28.8338 30.1563 29.3187 30.2063L31.078 30.3915C31.2117 30.406 31.3438 30.4366 31.4711 30.4914C31.5984 30.5462 31.7224 30.6203 31.7321 30.7089L29.214 30.6461C29.214 30.6461 29.8858 31.7996 30.7655 32.4569C31.1425 32.7389 31.5839 32.8823 32.0269 32.8936L32.7342 32.9113C32.9291 32.9161 33.1241 32.9451 33.311 33.0079C33.4544 33.0547 33.5865 33.1207 33.5945 33.1997L32.2025 33.364C32.2025 33.364 32.2315 33.3994 32.2863 33.4623C33.1515 34.4402 34.3501 34.9171 35.5343 34.7769L36.5911 34.6512L36.5895 34.6496Z" fill="#1B1B1B"/>
<path d="M37.5819 35.0928L40.5415 49.984C40.5415 49.984 42.4103 49.0609 43.4302 50.4899C43.551 50.6591 43.6428 50.854 43.7153 51.057C43.9103 51.6016 44.6014 53.0354 46.4622 53.3931L56.5895 55.0074C56.5895 55.0074 56.1626 53.638 54.711 52.7084C54.1793 52.3668 53.5848 52.1558 52.9726 52.0543L47.0857 51.0699C47.0857 51.0699 46.4622 51.0619 46.1513 50.5238L54.0972 51.7804C54.0972 51.7804 53.696 50.7654 52.7809 49.9937C52.2782 49.5684 51.6838 49.3074 51.0651 49.2059L45.125 48.228C44.8737 48.1861 44.6256 48.1216 44.3871 48.0217C44.1761 47.9331 43.9505 47.8107 43.8136 47.6544L51.7595 48.9111C51.7595 48.9111 51.2472 47.1421 49.5281 46.4106C49.2446 46.2898 48.9465 46.2189 48.6469 46.1738L43.1176 45.357C42.826 45.3135 42.5408 45.2023 42.2992 45.009C42.1687 44.9059 42.0414 44.7722 41.9447 44.6046L49.2671 45.8613C49.2671 45.8613 48.8289 44.7512 47.8864 43.9682C47.4385 43.5961 46.9101 43.3721 46.3623 43.2787L41.4759 42.4506C41.4759 42.4506 41.0087 42.4506 40.6961 41.9125L46.7716 42.8099C46.7716 42.8099 46.4171 41.7884 45.5906 41.0409C45.2088 40.6945 44.7545 40.4706 44.2776 40.3626L42.5521 39.9727C42.4216 39.9437 42.2927 39.897 42.1735 39.8277C42.0543 39.7585 41.9399 39.6715 41.9399 39.5812L44.4323 39.9405C44.4323 39.9405 43.9006 38.7161 43.1047 37.9605C42.7632 37.6367 42.3427 37.4417 41.9028 37.3789L41.2036 37.2774C41.0103 37.25 40.8218 37.1968 40.6414 37.1131C40.5044 37.0486 40.382 36.9697 40.382 36.8891H41.7836C41.7836 36.8891 41.7595 36.8504 41.7127 36.7828C40.9684 35.7098 39.8342 35.096 38.642 35.096H37.5771L37.5819 35.0928Z" fill="#1B1B1B"/>
</g>
<defs>
<clipPath id="clip0_464_621">
<rect width="73" height="71.8755" fill="white"/>
</clipPath>
</defs>
</svg>
