<svg width="100" height="100" viewBox="0 0 100 100" fill="none" xmlns="http://www.w3.org/2000/svg">
<path d="M60.8241 16.205C60.8562 16.2565 60.884 16.3106 60.9072 16.3666C80.55 63.5866 39.4327 98.1594 39.0155 98.5028C38.7848 98.689 38.49 98.7767 38.1951 98.7467C37.9001 98.7167 37.6289 98.5715 37.4405 98.3427C37.252 98.1139 37.1614 97.8199 37.1885 97.5247C37.2156 97.2294 37.3581 96.9568 37.5851 96.7661C37.9895 96.432 77.8246 62.8912 58.8301 17.2311C58.7217 16.9702 58.7155 16.6781 58.8126 16.4128C58.9097 16.1475 59.1031 15.9285 59.3543 15.7992C59.6055 15.6699 59.8961 15.6399 60.1684 15.7151C60.4408 15.7903 60.6748 15.9652 60.8241 16.205Z" fill="url(#paint0_linear_464_775)"/>
<path d="M53.6244 4.7327C58.618 9.36961 65.8051 14.6213 71.8455 17.0761L60.5474 18.4431L52.744 26.7241C54.3532 20.4045 54.3899 11.5044 53.6244 4.7327Z" fill="url(#paint1_linear_464_775)"/>
<defs>
<linearGradient id="paint0_linear_464_775" x1="22.2459" y1="73.8597" x2="75.932" y2="40.5672" gradientUnits="userSpaceOnUse">
<stop stop-color="#D99F4F"/>
<stop offset="1" stop-color="#BF822E"/>
</linearGradient>
<linearGradient id="paint1_linear_464_775" x1="48.4335" y1="19.7732" x2="66.5508" y2="8.53809" gradientUnits="userSpaceOnUse">
<stop stop-color="#D99F4F"/>
<stop offset="1" stop-color="#BF822E"/>
</linearGradient>
</defs>
</svg>
