<svg width="99" height="99" viewBox="0 0 99 99" fill="none" xmlns="http://www.w3.org/2000/svg">
<path d="M14.4862 43.3151C14.5165 43.3677 14.551 43.4178 14.5894 43.4647C46.9254 83.0873 96.823 63.184 97.3228 62.9786C97.5959 62.8633 97.8124 62.6449 97.9254 62.3707C98.0383 62.0966 98.0385 61.789 97.9258 61.5148C97.8132 61.2406 97.5969 61.0219 97.3239 60.9063C97.0509 60.7906 96.7433 60.7875 96.468 60.8974C95.9824 61.0959 47.6002 80.3568 16.3327 42.0425C16.154 41.8237 15.8995 41.6802 15.6198 41.6405C15.3401 41.6007 15.0557 41.6676 14.823 41.828C14.5904 41.9883 14.4266 42.2303 14.3642 42.5058C14.3018 42.7813 14.3454 43.0702 14.4862 43.3151Z" fill="url(#paint0_linear_464_772)"/>
<path d="M7.77687 31.5493C9.50419 38.1412 10.737 46.9568 10.0465 53.4403L16.5894 44.1287L27.5747 41.1639C21.2448 39.5963 13.3834 35.4235 7.77687 31.5493Z" fill="url(#paint1_linear_464_772)"/>
<defs>
<linearGradient id="paint0_linear_464_772" x1="83.5272" y1="36.5555" x2="28.8194" y2="68.141" gradientUnits="userSpaceOnUse">
<stop stop-color="#D99F4F"/>
<stop offset="1" stop-color="#BF822E"/>
</linearGradient>
<linearGradient id="paint1_linear_464_772" x1="23.4853" y1="34.0807" x2="5.02324" y2="44.7398" gradientUnits="userSpaceOnUse">
<stop stop-color="#D99F4F"/>
<stop offset="1" stop-color="#BF822E"/>
</linearGradient>
</defs>
</svg>
