<svg width="219" height="124" viewBox="0 0 219 124" fill="none" xmlns="http://www.w3.org/2000/svg">
<path d="M0.0042586 4.70459V3.47732C0.0042586 3.1151 0.0724404 2.73371 0.208804 2.33314C0.345168 1.93257 0.534798 1.54905 0.777696 1.18257C1.02059 0.816095 1.30611 0.502885 1.63423 0.242942L2.58025 0.920498C2.32031 1.29976 2.09872 1.69607 1.91548 2.10942C1.73224 2.52277 1.64062 2.97235 1.64062 3.45814V4.70459H0.0042586ZM3.2642 4.70459V3.47732C3.2642 3.1151 3.33238 2.73371 3.46875 2.33314C3.60511 1.93257 3.79474 1.54905 4.03764 1.18257C4.28054 0.816095 4.56605 0.502885 4.89417 0.242942L5.8402 0.920498C5.58025 1.29976 5.35866 1.69607 5.17542 2.10942C4.99218 2.52277 4.90057 2.97235 4.90057 3.45814V4.70459H3.2642ZM9.6115 0.61368V13.7046H7.63636V0.61368H9.6115ZM16.9176 3.88641V5.4205H11.5547V3.88641H16.9176ZM12.9929 1.53414H14.9041V10.8218C14.9041 11.1925 14.9595 11.4716 15.0703 11.6591C15.1811 11.8424 15.3239 11.9681 15.4986 12.0363C15.6776 12.1002 15.8714 12.1321 16.0803 12.1321C16.2337 12.1321 16.3679 12.1215 16.483 12.1002C16.598 12.0789 16.6875 12.0618 16.7514 12.049L17.0966 13.6279C16.9858 13.6705 16.8281 13.7131 16.6236 13.7557C16.419 13.8026 16.1633 13.8282 15.8565 13.8324C15.3537 13.841 14.8849 13.7515 14.4503 13.564C14.0156 13.3765 13.6641 13.0867 13.3956 12.6946C13.1271 12.3026 12.9929 11.8104 12.9929 11.2181V1.53414ZM28.468 3.88641V5.4205H22.9197V3.88641H28.468ZM24.441 13.7046V2.74862C24.441 2.13499 24.5753 1.62575 24.8437 1.22092C25.1122 0.811834 25.468 0.507146 25.9112 0.306862C26.3544 0.102316 26.8359 4.35114e-05 27.3558 4.35114e-05C27.7393 4.35114e-05 28.0675 0.032004 28.3402 0.095925C28.6129 0.155584 28.8153 0.210981 28.9474 0.262118L28.5 1.80899C28.4105 1.78342 28.2955 1.7536 28.1548 1.7195C28.0142 1.68115 27.8437 1.66198 27.6435 1.66198C27.179 1.66198 26.8466 1.77703 26.6463 2.00715C26.4503 2.23726 26.3523 2.56965 26.3523 3.00431V13.7046H24.441ZM34.2848 13.9027C33.3175 13.9027 32.4844 13.6961 31.7855 13.2827C31.0909 12.8651 30.554 12.2792 30.1747 11.5249C29.7997 10.7664 29.6122 9.87789 29.6122 8.85942C29.6122 7.85374 29.7997 6.96737 30.1747 6.20033C30.554 5.43328 31.0824 4.83456 31.7599 4.40416C32.4418 3.97377 33.2386 3.75857 34.1506 3.75857C34.7045 3.75857 35.2415 3.85019 35.7614 4.03342C36.2812 4.21666 36.7479 4.50431 37.1612 4.89635C37.5746 5.2884 37.9006 5.79763 38.1392 6.42405C38.3778 7.04621 38.4972 7.8026 38.4972 8.69323V9.37078H30.6925V7.93896H36.6243C36.6243 7.43612 36.522 6.99081 36.3175 6.60303C36.1129 6.21098 35.8253 5.90203 35.4545 5.67618C35.0881 5.45033 34.6577 5.3374 34.1633 5.3374C33.6264 5.3374 33.1577 5.4695 32.7571 5.73371C32.3608 5.99365 32.054 6.33456 31.8366 6.75644C31.6236 7.17405 31.517 7.62789 31.517 8.11794V9.23655C31.517 9.8928 31.6321 10.451 31.8622 10.9113C32.0966 11.3715 32.4226 11.7231 32.8402 11.966C33.2578 12.2046 33.7457 12.3239 34.304 12.3239C34.6662 12.3239 34.9964 12.2728 35.2947 12.1705C35.593 12.064 35.8508 11.9063 36.0682 11.6975C36.2855 11.4887 36.4517 11.2309 36.5668 10.924L38.3757 11.25C38.2308 11.7827 37.9709 12.2493 37.5959 12.6499C37.2251 13.0462 36.7585 13.3552 36.196 13.5767C35.6378 13.7941 35.0007 13.9027 34.2848 13.9027ZM44.8493 13.9027C43.8819 13.9027 43.0488 13.6961 42.35 13.2827C41.6554 12.8651 41.1184 12.2792 40.7392 11.5249C40.3642 10.7664 40.1767 9.87789 40.1767 8.85942C40.1767 7.85374 40.3642 6.96737 40.7392 6.20033C41.1184 5.43328 41.6468 4.83456 42.3244 4.40416C43.0062 3.97377 43.8031 3.75857 44.715 3.75857C45.269 3.75857 45.8059 3.85019 46.3258 4.03342C46.8457 4.21666 47.3123 4.50431 47.7257 4.89635C48.139 5.2884 48.465 5.79763 48.7037 6.42405C48.9423 7.04621 49.0616 7.8026 49.0616 8.69323V9.37078H41.2569V7.93896H47.1887C47.1887 7.43612 47.0865 6.99081 46.8819 6.60303C46.6774 6.21098 46.3897 5.90203 46.019 5.67618C45.6525 5.45033 45.2221 5.3374 44.7278 5.3374C44.1909 5.3374 43.7221 5.4695 43.3216 5.73371C42.9252 5.99365 42.6184 6.33456 42.4011 6.75644C42.188 7.17405 42.0815 7.62789 42.0815 8.11794V9.23655C42.0815 9.8928 42.1966 10.451 42.4267 10.9113C42.661 11.3715 42.987 11.7231 43.4046 11.966C43.8223 12.2046 44.3102 12.3239 44.8684 12.3239C45.2306 12.3239 45.5609 12.2728 45.8592 12.1705C46.1575 12.064 46.4153 11.9063 46.6326 11.6975C46.85 11.4887 47.0162 11.2309 47.1312 10.924L48.9402 11.25C48.7953 11.7827 48.5353 12.2493 48.1603 12.6499C47.7896 13.0462 47.323 13.3552 46.7605 13.5767C46.2022 13.7941 45.5652 13.9027 44.8493 13.9027ZM53.0934 0.61368V13.7046H51.1822V0.61368H53.0934ZM63.0218 6.28342L61.2896 6.59024C61.2171 6.36865 61.1021 6.15771 60.9444 5.95743C60.791 5.75715 60.5822 5.59308 60.318 5.46524C60.0538 5.3374 59.7235 5.27348 59.3272 5.27348C58.786 5.27348 58.3343 5.39493 57.9721 5.63783C57.6099 5.87646 57.4288 6.18541 57.4288 6.56467C57.4288 6.8928 57.5502 7.157 57.7931 7.35729C58.036 7.55757 58.4281 7.72164 58.9693 7.84948L60.5289 8.20743C61.4323 8.41624 62.1056 8.73797 62.5488 9.17263C62.992 9.60729 63.2136 10.1719 63.2136 10.8665C63.2136 11.4546 63.0431 11.9787 62.7022 12.439C62.3656 12.8949 61.8947 13.2529 61.2896 13.5128C60.6887 13.7728 59.992 13.9027 59.1994 13.9027C58.1 13.9027 57.2029 13.6684 56.5083 13.1996C55.8137 12.7266 55.3876 12.0554 55.2299 11.1861L57.0772 10.9049C57.1923 11.3864 57.4288 11.7508 57.7868 11.9979C58.1447 12.2408 58.6113 12.3623 59.1866 12.3623C59.813 12.3623 60.3137 12.2323 60.6887 11.9723C61.0637 11.7081 61.2512 11.3864 61.2512 11.0071C61.2512 10.7003 61.1362 10.4425 60.9061 10.2337C60.6802 10.0249 60.3329 9.86723 59.8642 9.7607L58.2022 9.39635C57.286 9.18754 56.6085 8.85516 56.1696 8.39919C55.7349 7.94323 55.5176 7.36581 55.5176 6.66695C55.5176 6.0874 55.6795 5.5803 56.0034 5.14564C56.3272 4.71098 56.7747 4.3722 57.3457 4.12931C57.9167 3.88215 58.5708 3.75857 59.3081 3.75857C60.3691 3.75857 61.2044 3.98868 61.8137 4.44891C62.4231 4.90487 62.8258 5.51638 63.0218 6.28342ZM77.4359 6.28342L75.7037 6.59024C75.6312 6.36865 75.5162 6.15771 75.3585 5.95743C75.2051 5.75715 74.9963 5.59308 74.7321 5.46524C74.4679 5.3374 74.1376 5.27348 73.7413 5.27348C73.2001 5.27348 72.7484 5.39493 72.3862 5.63783C72.024 5.87646 71.8429 6.18541 71.8429 6.56467C71.8429 6.8928 71.9643 7.157 72.2072 7.35729C72.4501 7.55757 72.8421 7.72164 73.3833 7.84948L74.943 8.20743C75.8464 8.41624 76.5197 8.73797 76.9629 9.17263C77.4061 9.60729 77.6277 10.1719 77.6277 10.8665C77.6277 11.4546 77.4572 11.9787 77.1163 12.439C76.7796 12.8949 76.3088 13.2529 75.7037 13.5128C75.1028 13.7728 74.4061 13.9027 73.6135 13.9027C72.514 13.9027 71.617 13.6684 70.9224 13.1996C70.2278 12.7266 69.8017 12.0554 69.644 11.1861L71.4913 10.9049C71.6064 11.3864 71.8429 11.7508 72.2008 11.9979C72.5588 12.2408 73.0254 12.3623 73.6007 12.3623C74.2271 12.3623 74.7278 12.2323 75.1028 11.9723C75.4778 11.7081 75.6653 11.3864 75.6653 11.0071C75.6653 10.7003 75.5502 10.4425 75.3201 10.2337C75.0943 10.0249 74.747 9.86723 74.2782 9.7607L72.6163 9.39635C71.7001 9.18754 71.0225 8.85516 70.5836 8.39919C70.149 7.94323 69.9316 7.36581 69.9316 6.66695C69.9316 6.0874 70.0936 5.5803 70.4174 5.14564C70.7413 4.71098 71.1887 4.3722 71.7598 4.12931C72.3308 3.88215 72.9849 3.75857 73.7221 3.75857C74.7832 3.75857 75.6184 3.98868 76.2278 4.44891C76.8372 4.90487 77.2399 5.51638 77.4359 6.28342ZM82.5863 13.9219C81.9641 13.9219 81.4016 13.8069 80.8988 13.5767C80.3959 13.3424 79.9975 13.0036 79.7035 12.5604C79.4137 12.1172 79.2688 11.5739 79.2688 10.9304C79.2688 10.3765 79.3754 9.9205 79.5884 9.56254C79.8015 9.20459 80.0891 8.92121 80.4513 8.7124C80.8136 8.5036 81.2184 8.34593 81.6658 8.23939C82.1133 8.13286 82.5692 8.05189 83.0337 7.99649C83.6218 7.92831 84.0991 7.87291 84.4656 7.8303C84.832 7.78342 85.0984 7.70885 85.2646 7.60658C85.4308 7.50431 85.5138 7.33811 85.5138 7.108V7.06325C85.5138 6.50502 85.3562 6.07249 85.0408 5.76567C84.7298 5.45885 84.2653 5.30544 83.6474 5.30544C83.0039 5.30544 82.4968 5.4482 82.1261 5.73371C81.7596 6.01496 81.506 6.32817 81.3654 6.67334L79.5692 6.26425C79.7823 5.66766 80.0934 5.18612 80.5025 4.81965C80.9158 4.44891 81.391 4.18044 81.9279 4.01425C82.4648 3.84379 83.0295 3.75857 83.6218 3.75857C84.0138 3.75857 84.4293 3.80544 84.8683 3.89919C85.3114 3.98868 85.7248 4.15487 86.1083 4.39777C86.4961 4.64067 86.8136 4.98797 87.0607 5.43967C87.3079 5.88712 87.4315 6.46879 87.4315 7.1847V13.7046H85.565V12.3623H85.4883C85.3647 12.6094 85.1793 12.8523 84.9322 13.091C84.685 13.3296 84.3675 13.5277 83.9798 13.6854C83.592 13.8431 83.1275 13.9219 82.5863 13.9219ZM83.0018 12.3878C83.5302 12.3878 83.9819 12.2834 84.3569 12.0746C84.7361 11.8658 85.0238 11.5931 85.2198 11.2564C85.4201 10.9155 85.5202 10.5512 85.5202 10.1634V8.89777C85.4521 8.96595 85.32 9.02987 85.1239 9.08953C84.9322 9.14493 84.7127 9.19394 84.4656 9.23655C84.2184 9.2749 83.9776 9.31112 83.7433 9.34521C83.5089 9.37504 83.3129 9.40061 83.1552 9.42192C82.7844 9.46879 82.4457 9.54763 82.1388 9.65842C81.8363 9.76922 81.5934 9.92902 81.4102 10.1378C81.2312 10.3424 81.1417 10.6151 81.1417 10.956C81.1417 11.429 81.3164 11.787 81.6658 12.0299C82.0153 12.2685 82.4606 12.3878 83.0018 12.3878ZM94.6497 3.88641V5.4205H89.1014V3.88641H94.6497ZM90.6227 13.7046V2.74862C90.6227 2.13499 90.7569 1.62575 91.0254 1.22092C91.2939 0.811834 91.6497 0.507146 92.0929 0.306862C92.536 0.102316 93.0176 4.35114e-05 93.5375 4.35114e-05C93.921 4.35114e-05 94.2491 0.032004 94.5218 0.095925C94.7946 0.155584 94.997 0.210981 95.1291 0.262118L94.6816 1.80899C94.5921 1.78342 94.4771 1.7536 94.3365 1.7195C94.1958 1.68115 94.0254 1.66198 93.8251 1.66198C93.3606 1.66198 93.0282 1.77703 92.8279 2.00715C92.6319 2.23726 92.5339 2.56965 92.5339 3.00431V13.7046H90.6227ZM100.466 13.9027C99.4991 13.9027 98.666 13.6961 97.9671 13.2827C97.2725 12.8651 96.7356 12.2792 96.3564 11.5249C95.9814 10.7664 95.7939 9.87789 95.7939 8.85942C95.7939 7.85374 95.9814 6.96737 96.3564 6.20033C96.7356 5.43328 97.264 4.83456 97.9416 4.40416C98.6234 3.97377 99.4203 3.75857 100.332 3.75857C100.886 3.75857 101.423 3.85019 101.943 4.03342C102.463 4.21666 102.93 4.50431 103.343 4.89635C103.756 5.2884 104.082 5.79763 104.321 6.42405C104.559 7.04621 104.679 7.8026 104.679 8.69323V9.37078H96.8741V7.93896H102.806C102.806 7.43612 102.704 6.99081 102.499 6.60303C102.295 6.21098 102.007 5.90203 101.636 5.67618C101.27 5.45033 100.839 5.3374 100.345 5.3374C99.8081 5.3374 99.3393 5.4695 98.9387 5.73371C98.5424 5.99365 98.2356 6.33456 98.0183 6.75644C97.8052 7.17405 97.6987 7.62789 97.6987 8.11794V9.23655C97.6987 9.8928 97.8137 10.451 98.0439 10.9113C98.2782 11.3715 98.6042 11.7231 99.0218 11.966C99.4395 12.2046 99.9274 12.3239 100.486 12.3239C100.848 12.3239 101.178 12.2728 101.476 12.1705C101.775 12.064 102.032 11.9063 102.25 11.6975C102.467 11.4887 102.633 11.2309 102.748 10.924L104.557 11.25C104.412 11.7827 104.153 12.2493 103.778 12.6499C103.407 13.0462 102.94 13.3552 102.378 13.5767C101.819 13.7941 101.182 13.9027 100.466 13.9027ZM111.716 13.7046V0.61368H113.628V5.47803H113.743C113.854 5.27348 114.013 5.03698 114.222 4.76851C114.431 4.50004 114.721 4.26567 115.091 4.06539C115.462 3.86084 115.952 3.75857 116.562 3.75857C117.354 3.75857 118.062 3.95885 118.684 4.35942C119.306 4.75999 119.794 5.3374 120.148 6.09166C120.506 6.84592 120.684 7.7536 120.684 8.81467C120.684 9.87575 120.508 10.7856 120.154 11.5441C119.8 12.2983 119.314 12.88 118.697 13.2891C118.079 13.6939 117.373 13.8964 116.581 13.8964C115.984 13.8964 115.496 13.7962 115.117 13.5959C114.742 13.3956 114.448 13.1613 114.235 12.8928C114.022 12.6243 113.858 12.3857 113.743 12.1769H113.583V13.7046H111.716ZM113.589 8.7955C113.589 9.48584 113.689 10.091 113.89 10.6108C114.09 11.1307 114.38 11.5377 114.759 11.8317C115.138 12.1215 115.603 12.2664 116.153 12.2664C116.724 12.2664 117.201 12.1151 117.584 11.8125C117.968 11.5057 118.258 11.0902 118.454 10.5661C118.654 10.0419 118.754 9.45175 118.754 8.7955C118.754 8.14777 118.656 7.5661 118.46 7.05047C118.268 6.53485 117.979 6.12789 117.591 5.82959C117.207 5.53129 116.728 5.38215 116.153 5.38215C115.599 5.38215 115.13 5.5249 114.746 5.81041C114.367 6.09592 114.079 6.49436 113.883 7.00573C113.687 7.51709 113.589 8.11368 113.589 8.7955ZM127.062 13.9027C126.095 13.9027 125.262 13.6961 124.563 13.2827C123.868 12.8651 123.331 12.2792 122.952 11.5249C122.577 10.7664 122.39 9.87789 122.39 8.85942C122.39 7.85374 122.577 6.96737 122.952 6.20033C123.331 5.43328 123.86 4.83456 124.537 4.40416C125.219 3.97377 126.016 3.75857 126.928 3.75857C127.482 3.75857 128.019 3.85019 128.539 4.03342C129.059 4.21666 129.525 4.50431 129.939 4.89635C130.352 5.2884 130.678 5.79763 130.917 6.42405C131.155 7.04621 131.275 7.8026 131.275 8.69323V9.37078H123.47V7.93896H129.402C129.402 7.43612 129.299 6.99081 129.095 6.60303C128.89 6.21098 128.603 5.90203 128.232 5.67618C127.865 5.45033 127.435 5.3374 126.941 5.3374C126.404 5.3374 125.935 5.4695 125.534 5.73371C125.138 5.99365 124.831 6.33456 124.614 6.75644C124.401 7.17405 124.294 7.62789 124.294 8.11794V9.23655C124.294 9.8928 124.409 10.451 124.64 10.9113C124.874 11.3715 125.2 11.7231 125.618 11.966C126.035 12.2046 126.523 12.3239 127.081 12.3239C127.444 12.3239 127.774 12.2728 128.072 12.1705C128.37 12.064 128.628 11.9063 128.846 11.6975C129.063 11.4887 129.229 11.2309 129.344 10.924L131.153 11.25C131.008 11.7827 130.748 12.2493 130.373 12.6499C130.002 13.0462 129.536 13.3552 128.973 13.5767C128.415 13.7941 127.778 13.9027 127.062 13.9027ZM137.531 13.9027C136.58 13.9027 135.762 13.6875 135.076 13.2571C134.394 12.8225 133.87 12.2238 133.504 11.461C133.137 10.6982 132.954 9.82462 132.954 8.84024C132.954 7.84308 133.142 6.96311 133.517 6.20033C133.892 5.43328 134.42 4.83456 135.102 4.40416C135.784 3.97377 136.587 3.75857 137.512 3.75857C138.257 3.75857 138.922 3.89706 139.506 4.17405C140.09 4.44678 140.561 4.8303 140.918 5.32462C141.281 5.81894 141.496 6.39635 141.564 7.05686H139.704C139.602 6.59664 139.367 6.20033 139.001 5.86794C138.639 5.53556 138.153 5.36936 137.543 5.36936C137.011 5.36936 136.544 5.50999 136.144 5.79124C135.747 6.06823 135.438 6.46453 135.217 6.98016C134.995 7.49152 134.884 8.09664 134.884 8.7955C134.884 9.51141 134.993 10.1293 135.21 10.6492C135.428 11.1691 135.735 11.5718 136.131 11.8573C136.531 12.1428 137.002 12.2856 137.543 12.2856C137.906 12.2856 138.234 12.2195 138.528 12.0874C138.826 11.951 139.075 11.7571 139.276 11.5057C139.48 11.2543 139.623 10.9517 139.704 10.5981H141.564C141.496 11.233 141.289 11.7998 140.944 12.2983C140.599 12.7969 140.137 13.189 139.557 13.4745C138.982 13.76 138.306 13.9027 137.531 13.9027ZM146.465 13.9219C145.843 13.9219 145.281 13.8069 144.778 13.5767C144.275 13.3424 143.876 13.0036 143.582 12.5604C143.293 12.1172 143.148 11.5739 143.148 10.9304C143.148 10.3765 143.254 9.9205 143.467 9.56254C143.68 9.20459 143.968 8.92121 144.33 8.7124C144.692 8.5036 145.097 8.34593 145.545 8.23939C145.992 8.13286 146.448 8.05189 146.913 7.99649C147.501 7.92831 147.978 7.87291 148.344 7.8303C148.711 7.78342 148.977 7.70885 149.143 7.60658C149.31 7.50431 149.393 7.33811 149.393 7.108V7.06325C149.393 6.50502 149.235 6.07249 148.92 5.76567C148.609 5.45885 148.144 5.30544 147.526 5.30544C146.883 5.30544 146.376 5.4482 146.005 5.73371C145.638 6.01496 145.385 6.32817 145.244 6.67334L143.448 6.26425C143.661 5.66766 143.972 5.18612 144.381 4.81965C144.795 4.44891 145.27 4.18044 145.807 4.01425C146.344 3.84379 146.908 3.75857 147.501 3.75857C147.893 3.75857 148.308 3.80544 148.747 3.89919C149.19 3.98868 149.604 4.15487 149.987 4.39777C150.375 4.64067 150.692 4.98797 150.94 5.43967C151.187 5.88712 151.31 6.46879 151.31 7.1847V13.7046H149.444V12.3623H149.367C149.244 12.6094 149.058 12.8523 148.811 13.091C148.564 13.3296 148.246 13.5277 147.859 13.6854C147.471 13.8431 147.006 13.9219 146.465 13.9219ZM146.881 12.3878C147.409 12.3878 147.861 12.2834 148.236 12.0746C148.615 11.8658 148.903 11.5931 149.099 11.2564C149.299 10.9155 149.399 10.5512 149.399 10.1634V8.89777C149.331 8.96595 149.199 9.02987 149.003 9.08953C148.811 9.14493 148.592 9.19394 148.344 9.23655C148.097 9.2749 147.857 9.31112 147.622 9.34521C147.388 9.37504 147.192 9.40061 147.034 9.42192C146.663 9.46879 146.325 9.54763 146.018 9.65842C145.715 9.76922 145.472 9.92902 145.289 10.1378C145.11 10.3424 145.021 10.6151 145.021 10.956C145.021 11.429 145.195 11.787 145.545 12.0299C145.894 12.2685 146.339 12.3878 146.881 12.3878ZM160.075 9.63286V3.88641H161.993V13.7046H160.114V12.0043H160.012C159.786 12.5285 159.423 12.9652 158.925 13.3147C158.431 13.6598 157.815 13.8324 157.078 13.8324C156.447 13.8324 155.889 13.6939 155.403 13.4169C154.921 13.1357 154.542 12.7202 154.265 12.1705C153.992 11.6208 153.856 10.9411 153.856 10.1314V3.88641H155.767V9.90132C155.767 10.5704 155.953 11.103 156.323 11.4993C156.694 11.8956 157.176 12.0938 157.768 12.0938C158.126 12.0938 158.482 12.0043 158.835 11.8253C159.193 11.6464 159.49 11.3758 159.724 11.0135C159.963 10.6513 160.08 10.1911 160.075 9.63286ZM171.918 6.28342L170.186 6.59024C170.114 6.36865 169.999 6.15771 169.841 5.95743C169.687 5.75715 169.479 5.59308 169.214 5.46524C168.95 5.3374 168.62 5.27348 168.224 5.27348C167.683 5.27348 167.231 5.39493 166.869 5.63783C166.506 5.87646 166.325 6.18541 166.325 6.56467C166.325 6.8928 166.447 7.157 166.69 7.35729C166.933 7.55757 167.325 7.72164 167.866 7.84948L169.425 8.20743C170.329 8.41624 171.002 8.73797 171.445 9.17263C171.888 9.60729 172.11 10.1719 172.11 10.8665C172.11 11.4546 171.94 11.9787 171.599 12.439C171.262 12.8949 170.791 13.2529 170.186 13.5128C169.585 13.7728 168.888 13.9027 168.096 13.9027C166.996 13.9027 166.099 13.6684 165.405 13.1996C164.71 12.7266 164.284 12.0554 164.126 11.1861L165.974 10.9049C166.089 11.3864 166.325 11.7508 166.683 11.9979C167.041 12.2408 167.508 12.3623 168.083 12.3623C168.71 12.3623 169.21 12.2323 169.585 11.9723C169.96 11.7081 170.148 11.3864 170.148 11.0071C170.148 10.7003 170.033 10.4425 169.803 10.2337C169.577 10.0249 169.229 9.86723 168.761 9.7607L167.099 9.39635C166.183 9.18754 165.505 8.85516 165.066 8.39919C164.631 7.94323 164.414 7.36581 164.414 6.66695C164.414 6.0874 164.576 5.5803 164.9 5.14564C165.224 4.71098 165.671 4.3722 166.242 4.12931C166.813 3.88215 167.467 3.75857 168.205 3.75857C169.266 3.75857 170.101 3.98868 170.71 4.44891C171.32 4.90487 171.722 5.51638 171.918 6.28342ZM178.443 13.9027C177.476 13.9027 176.643 13.6961 175.944 13.2827C175.249 12.8651 174.712 12.2792 174.333 11.5249C173.958 10.7664 173.77 9.87789 173.77 8.85942C173.77 7.85374 173.958 6.96737 174.333 6.20033C174.712 5.43328 175.241 4.83456 175.918 4.40416C176.6 3.97377 177.397 3.75857 178.309 3.75857C178.863 3.75857 179.4 3.85019 179.92 4.03342C180.439 4.21666 180.906 4.50431 181.319 4.89635C181.733 5.2884 182.059 5.79763 182.297 6.42405C182.536 7.04621 182.655 7.8026 182.655 8.69323V9.37078H174.851V7.93896H180.782C180.782 7.43612 180.68 6.99081 180.476 6.60303C180.271 6.21098 179.983 5.90203 179.613 5.67618C179.246 5.45033 178.816 5.3374 178.322 5.3374C177.785 5.3374 177.316 5.4695 176.915 5.73371C176.519 5.99365 176.212 6.33456 175.995 6.75644C175.782 7.17405 175.675 7.62789 175.675 8.11794V9.23655C175.675 9.8928 175.79 10.451 176.02 10.9113C176.255 11.3715 176.581 11.7231 176.998 11.966C177.416 12.2046 177.904 12.3239 178.462 12.3239C178.824 12.3239 179.155 12.2728 179.453 12.1705C179.751 12.064 180.009 11.9063 180.226 11.6975C180.444 11.4887 180.61 11.2309 180.725 10.924L182.534 11.25C182.389 11.7827 182.129 12.2493 181.754 12.6499C181.383 13.0462 180.917 13.3552 180.354 13.5767C179.796 13.7941 179.159 13.9027 178.443 13.9027ZM190.748 17.3864C190.462 17.3864 190.202 17.363 189.968 17.3161C189.733 17.2735 189.559 17.2266 189.444 17.1755L189.904 15.6094C190.253 15.7032 190.564 15.7437 190.837 15.7309C191.11 15.7181 191.351 15.6158 191.559 15.4241C191.773 15.2323 191.96 14.9191 192.122 14.4844L192.358 13.8324L188.766 3.88641H190.812L193.298 11.5057H193.4L195.887 3.88641H197.939L193.893 15.015C193.705 15.5263 193.466 15.9589 193.177 16.3125C192.887 16.6705 192.542 16.939 192.141 17.1179C191.741 17.2969 191.276 17.3864 190.748 17.3864ZM203.537 13.9027C202.616 13.9027 201.813 13.6918 201.127 13.2699C200.441 12.8481 199.908 12.2579 199.529 11.4993C199.15 10.7408 198.96 9.85445 198.96 8.84024C198.96 7.82178 199.15 6.93115 199.529 6.16837C199.908 5.40558 200.441 4.81325 201.127 4.39138C201.813 3.9695 202.616 3.75857 203.537 3.75857C204.457 3.75857 205.26 3.9695 205.946 4.39138C206.632 4.81325 207.165 5.40558 207.544 6.16837C207.924 6.93115 208.113 7.82178 208.113 8.84024C208.113 9.85445 207.924 10.7408 207.544 11.4993C207.165 12.2579 206.632 12.8481 205.946 13.2699C205.26 13.6918 204.457 13.9027 203.537 13.9027ZM203.543 12.2983C204.14 12.2983 204.634 12.1407 205.026 11.8253C205.418 11.51 205.708 11.0902 205.895 10.5661C206.087 10.0419 206.183 9.46453 206.183 8.83385C206.183 8.20743 206.087 7.63215 205.895 7.108C205.708 6.57959 205.418 6.15558 205.026 5.83598C204.634 5.51638 204.14 5.35658 203.543 5.35658C202.942 5.35658 202.444 5.51638 202.047 5.83598C201.655 6.15558 201.363 6.57959 201.172 7.108C200.984 7.63215 200.89 8.20743 200.89 8.83385C200.89 9.46453 200.984 10.0419 201.172 10.5661C201.363 11.0902 201.655 11.51 202.047 11.8253C202.444 12.1407 202.942 12.2983 203.543 12.2983ZM216.466 9.63286V3.88641H218.384V13.7046H216.504V12.0043H216.402C216.176 12.5285 215.814 12.9652 215.316 13.3147C214.821 13.6598 214.205 13.8324 213.468 13.8324C212.838 13.8324 212.279 13.6939 211.793 13.4169C211.312 13.1357 210.933 12.7202 210.656 12.1705C210.383 11.6208 210.247 10.9411 210.247 10.1314V3.88641H212.158V9.90132C212.158 10.5704 212.343 11.103 212.714 11.4993C213.085 11.8956 213.566 12.0938 214.159 12.0938C214.517 12.0938 214.872 12.0043 215.226 11.8253C215.584 11.6464 215.88 11.3758 216.115 11.0135C216.353 10.6513 216.47 10.1911 216.466 9.63286ZM0.381389 35.7046V25.8864H2.21591V27.4844H2.33736C2.5419 26.9432 2.87642 26.5214 3.34091 26.2188C3.8054 25.912 4.3615 25.7586 5.00923 25.7586C5.66548 25.7586 6.2152 25.912 6.65838 26.2188C7.10582 26.5256 7.43608 26.9475 7.64915 27.4844H7.75142C7.98579 26.9603 8.35866 26.5427 8.87003 26.2316C9.38139 25.9162 9.99076 25.7586 10.6982 25.7586C11.5888 25.7586 12.3153 26.0377 12.8778 26.5959C13.4446 27.1542 13.728 27.9958 13.728 29.1208V35.7046H11.8168V29.2998C11.8168 28.635 11.6357 28.1535 11.2734 27.8552C10.9112 27.5569 10.4787 27.4077 9.97585 27.4077C9.35369 27.4077 8.87003 27.5995 8.52486 27.983C8.17969 28.3623 8.0071 28.8502 8.0071 29.4468V35.7046H6.10227V29.1783C6.10227 28.6456 5.93608 28.2174 5.60369 27.8935C5.2713 27.5696 4.83878 27.4077 4.30611 27.4077C3.94389 27.4077 3.60937 27.5036 3.30255 27.6954C3 27.8829 2.75497 28.1449 2.56747 28.4816C2.38423 28.8182 2.29261 29.2081 2.29261 29.6513V35.7046H0.381389ZM20.5211 35.9027C19.5538 35.9027 18.7207 35.6961 18.0218 35.2827C17.3272 34.8651 16.7903 34.2792 16.411 33.5249C16.036 32.7664 15.8485 31.8779 15.8485 30.8594C15.8485 29.8537 16.036 28.9674 16.411 28.2003C16.7903 27.4333 17.3187 26.8346 17.9963 26.4042C18.6781 25.9738 19.475 25.7586 20.3869 25.7586C20.9409 25.7586 21.4778 25.8502 21.9977 26.0334C22.5176 26.2167 22.9842 26.5043 23.3975 26.8964C23.8109 27.2884 24.1369 27.7976 24.3755 28.424C24.6142 29.0462 24.7335 29.8026 24.7335 30.6932V31.3708H16.9288V29.939H22.8606C22.8606 29.4361 22.7583 28.9908 22.5538 28.603C22.3493 28.211 22.0616 27.902 21.6909 27.6762C21.3244 27.4503 20.894 27.3374 20.3997 27.3374C19.8627 27.3374 19.394 27.4695 18.9934 27.7337C18.5971 27.9937 18.2903 28.3346 18.073 28.7564C17.8599 29.174 17.7534 29.6279 17.7534 30.1179V31.2365C17.7534 31.8928 17.8684 32.451 18.0985 32.9113C18.3329 33.3715 18.6589 33.7231 19.0765 33.966C19.4941 34.2046 19.9821 34.3239 20.5403 34.3239C20.9025 34.3239 21.2328 34.2728 21.5311 34.1705C21.8294 34.064 22.0872 33.9063 22.3045 33.6975C22.5218 33.4887 22.688 33.2309 22.8031 32.924L24.612 33.25C24.4671 33.7827 24.2072 34.2493 23.8322 34.6499C23.4615 35.0462 22.9948 35.3552 22.4323 35.5767C21.8741 35.7941 21.237 35.9027 20.5211 35.9027ZM31.0856 35.9027C30.1183 35.9027 29.2852 35.6961 28.5863 35.2827C27.8917 34.8651 27.3548 34.2792 26.9755 33.5249C26.6005 32.7664 26.413 31.8779 26.413 30.8594C26.413 29.8537 26.6005 28.9674 26.9755 28.2003C27.3548 27.4333 27.8832 26.8346 28.5607 26.4042C29.2425 25.9738 30.0394 25.7586 30.9513 25.7586C31.5053 25.7586 32.0423 25.8502 32.5621 26.0334C33.082 26.2167 33.5486 26.5043 33.962 26.8964C34.3754 27.2884 34.7013 27.7976 34.94 28.424C35.1786 29.0462 35.2979 29.8026 35.2979 30.6932V31.3708H27.4933V29.939H33.4251C33.4251 29.4361 33.3228 28.9908 33.1183 28.603C32.9137 28.211 32.6261 27.902 32.2553 27.6762C31.8888 27.4503 31.4584 27.3374 30.9641 27.3374C30.4272 27.3374 29.9584 27.4695 29.5579 27.7337C29.1616 27.9937 28.8548 28.3346 28.6374 28.7564C28.4244 29.174 28.3178 29.6279 28.3178 30.1179V31.2365C28.3178 31.8928 28.4329 32.451 28.663 32.9113C28.8974 33.3715 29.2234 33.7231 29.641 33.966C30.0586 34.2046 30.5465 34.3239 31.1048 34.3239C31.467 34.3239 31.7972 34.2728 32.0955 34.1705C32.3938 34.064 32.6516 33.9063 32.869 33.6975C33.0863 33.4887 33.2525 33.2309 33.3675 32.924L35.1765 33.25C35.0316 33.7827 34.7717 34.2493 34.3967 34.6499C34.0259 35.0462 33.5593 35.3552 32.9968 35.5767C32.4386 35.7941 31.8015 35.9027 31.0856 35.9027ZM42.0016 25.8864V27.4205H36.6387V25.8864H42.0016ZM38.0769 23.5341H39.9881V32.8218C39.9881 33.1925 40.0435 33.4716 40.1543 33.6591C40.2651 33.8424 40.4078 33.9681 40.5826 34.0363C40.7615 34.1002 40.9554 34.1321 41.1642 34.1321C41.3176 34.1321 41.4519 34.1215 41.5669 34.1002C41.682 34.0789 41.7715 34.0618 41.8354 34.049L42.1806 35.6279C42.0698 35.6705 41.9121 35.7131 41.7076 35.7557C41.503 35.8026 41.2473 35.8282 40.9405 35.8324C40.4377 35.841 39.9689 35.7515 39.5343 35.564C39.0996 35.3765 38.748 35.0867 38.4796 34.6946C38.2111 34.3026 38.0769 33.8104 38.0769 33.2181V23.5341ZM53.4625 25.8864V27.4205H48.0996V25.8864H53.4625ZM49.5378 23.5341H51.449V32.8218C51.449 33.1925 51.5044 33.4716 51.6152 33.6591C51.726 33.8424 51.8688 33.9681 52.0435 34.0363C52.2225 34.1002 52.4164 34.1321 52.6252 34.1321C52.7786 34.1321 52.9128 34.1215 53.0279 34.1002C53.1429 34.0789 53.2324 34.0618 53.2963 34.049L53.6415 35.6279C53.5307 35.6705 53.373 35.7131 53.1685 35.7557C52.964 35.8026 52.7083 35.8282 52.4015 35.8324C51.8986 35.841 51.4299 35.7515 50.9952 35.564C50.5605 35.3765 50.209 35.0867 49.9405 34.6946C49.672 34.3026 49.5378 33.8104 49.5378 33.2181V23.5341ZM57.6989 29.875V35.7046H55.7876V22.6137H57.6733V27.4844H57.7947C58.0249 26.956 58.3764 26.5363 58.8494 26.2252C59.3224 25.9141 59.9403 25.7586 60.7031 25.7586C61.3764 25.7586 61.9645 25.8971 62.4673 26.174C62.9744 26.451 63.3665 26.8644 63.6435 27.4141C63.9247 27.9596 64.0653 28.6414 64.0653 29.4596V35.7046H62.1541V29.6897C62.1541 28.9695 61.9687 28.4113 61.598 28.015C61.2273 27.6144 60.7116 27.4141 60.0511 27.4141C59.5994 27.4141 59.1946 27.51 58.8366 27.7017C58.483 27.8935 58.2038 28.1748 57.9993 28.5455C57.799 28.912 57.6989 29.3552 57.6989 29.875ZM66.6158 35.7046V25.8864H68.4631V27.4461H68.5653C68.7443 26.9177 69.0597 26.5022 69.5114 26.1996C69.9673 25.8928 70.483 25.7394 71.0582 25.7394C71.1776 25.7394 71.3182 25.7437 71.4801 25.7522C71.6463 25.7607 71.7763 25.7714 71.87 25.7841V27.6123C71.7933 27.591 71.657 27.5675 71.4609 27.5419C71.2649 27.5121 71.0689 27.4972 70.8729 27.4972C70.4212 27.4972 70.0185 27.5931 69.6648 27.7848C69.3153 27.9723 69.0383 28.2344 68.8338 28.5711C68.6293 28.9035 68.527 29.2827 68.527 29.7089V35.7046H66.6158ZM77.3081 35.9027C76.3876 35.9027 75.5843 35.6918 74.8983 35.2699C74.2122 34.8481 73.6795 34.2579 73.3002 33.4993C72.921 32.7408 72.7314 31.8544 72.7314 30.8402C72.7314 29.8218 72.921 28.9312 73.3002 28.1684C73.6795 27.4056 74.2122 26.8133 74.8983 26.3914C75.5843 25.9695 76.3876 25.7586 77.3081 25.7586C78.2285 25.7586 79.0318 25.9695 79.7179 26.3914C80.4039 26.8133 80.9366 27.4056 81.3159 28.1684C81.6951 28.9312 81.8848 29.8218 81.8848 30.8402C81.8848 31.8544 81.6951 32.7408 81.3159 33.4993C80.9366 34.2579 80.4039 34.8481 79.7179 35.2699C79.0318 35.6918 78.2285 35.9027 77.3081 35.9027ZM77.3145 34.2983C77.911 34.2983 78.4054 34.1407 78.7974 33.8253C79.1895 33.51 79.4792 33.0902 79.6667 32.5661C79.8585 32.0419 79.9544 31.4645 79.9544 30.8339C79.9544 30.2074 79.8585 29.6321 79.6667 29.108C79.4792 28.5796 79.1895 28.1556 78.7974 27.836C78.4054 27.5164 77.911 27.3566 77.3145 27.3566C76.7136 27.3566 76.215 27.5164 75.8187 27.836C75.4267 28.1556 75.1348 28.5796 74.943 29.108C74.7555 29.6321 74.6618 30.2074 74.6618 30.8339C74.6618 31.4645 74.7555 32.0419 74.943 32.5661C75.1348 33.0902 75.4267 33.51 75.8187 33.8253C76.215 34.1407 76.7136 34.2983 77.3145 34.2983ZM90.2376 31.6329V25.8864H92.1552V35.7046H90.2759V34.0043H90.1736C89.9478 34.5285 89.5856 34.9652 89.087 35.3147C88.5927 35.6598 87.9769 35.8324 87.2397 35.8324C86.609 35.8324 86.0508 35.6939 85.565 35.4169C85.0834 35.1357 84.7042 34.7202 84.4272 34.1705C84.1545 33.6208 84.0181 32.9411 84.0181 32.1314V25.8864H85.9293V31.9013C85.9293 32.5704 86.1147 33.103 86.4854 33.4993C86.8562 33.8956 87.3377 34.0938 87.93 34.0938C88.288 34.0938 88.6438 34.0043 88.9975 33.8253C89.3555 33.6464 89.6516 33.3758 89.886 33.0135C90.1246 32.6513 90.2418 32.1911 90.2376 31.6329ZM98.8397 39.591C98.0598 39.591 97.3887 39.4887 96.8262 39.2841C96.2679 39.0796 95.812 38.809 95.4583 38.4723C95.1046 38.1357 94.8404 37.7671 94.6657 37.3665L96.3084 36.689C96.4235 36.8765 96.5769 37.0746 96.7686 37.2834C96.9647 37.4965 97.2289 37.6776 97.5613 37.8267C97.8979 37.9759 98.3304 38.0505 98.8588 38.0505C99.5833 38.0505 100.182 37.8736 100.655 37.5199C101.128 37.1705 101.365 36.6123 101.365 35.8452V33.9148H101.243C101.128 34.1236 100.962 34.3559 100.744 34.6116C100.531 34.8672 100.237 35.0888 99.8624 35.2763C99.4874 35.4638 98.9995 35.5576 98.3986 35.5576C97.623 35.5576 96.9242 35.3765 96.302 35.0142C95.6841 34.6478 95.1941 34.1087 94.8319 33.3971C94.4739 32.6812 94.2949 31.8012 94.2949 30.7571C94.2949 29.7131 94.4718 28.8182 94.8255 28.0725C95.1834 27.3267 95.6735 26.7557 96.2956 26.3594C96.9178 25.9589 97.623 25.7586 98.4114 25.7586C99.0208 25.7586 99.513 25.8608 99.888 26.0654C100.263 26.2657 100.555 26.5 100.764 26.7685C100.977 27.037 101.141 27.2735 101.256 27.478H101.396V25.8864H103.269V35.9219C103.269 36.7657 103.073 37.4581 102.681 37.9993C102.289 38.5405 101.759 38.9411 101.09 39.201C100.425 39.461 99.6749 39.591 98.8397 39.591ZM98.8205 33.9723C99.3702 33.9723 99.8347 33.8445 100.214 33.5888C100.597 33.3289 100.887 32.9581 101.083 32.4766C101.284 31.9908 101.384 31.4091 101.384 30.7316C101.384 30.0711 101.286 29.4894 101.09 28.9865C100.894 28.4837 100.606 28.0917 100.227 27.8104C99.8475 27.5249 99.3787 27.3821 98.8205 27.3821C98.2452 27.3821 97.7658 27.5313 97.3823 27.8296C96.9988 28.1236 96.709 28.5242 96.513 29.0313C96.3212 29.5384 96.2253 30.1052 96.2253 30.7316C96.2253 31.375 96.3233 31.9397 96.5194 32.4255C96.7154 32.9113 97.0051 33.2905 97.3887 33.5633C97.7765 33.836 98.2537 33.9723 98.8205 33.9723ZM107.744 29.875V35.7046H105.833V22.6137H107.718V27.4844H107.84C108.07 26.956 108.421 26.5363 108.894 26.2252C109.367 25.9141 109.985 25.7586 110.748 25.7586C111.421 25.7586 112.009 25.8971 112.512 26.174C113.019 26.451 113.411 26.8644 113.688 27.4141C113.97 27.9596 114.11 28.6414 114.11 29.4596V35.7046H112.199V29.6897C112.199 28.9695 112.014 28.4113 111.643 28.015C111.272 27.6144 110.757 27.4141 110.096 27.4141C109.644 27.4141 109.24 27.51 108.882 27.7017C108.528 27.8935 108.249 28.1748 108.044 28.5455C107.844 28.912 107.744 29.3552 107.744 29.875ZM128.782 28.2834L127.049 28.5902C126.977 28.3687 126.862 28.1577 126.704 27.9574C126.551 27.7571 126.342 27.5931 126.078 27.4652C125.814 27.3374 125.483 27.2735 125.087 27.2735C124.546 27.2735 124.094 27.3949 123.732 27.6378C123.37 27.8765 123.189 28.1854 123.189 28.5647C123.189 28.8928 123.31 29.157 123.553 29.3573C123.796 29.5576 124.188 29.7216 124.729 29.8495L126.289 30.2074C127.192 30.4162 127.865 30.738 128.309 31.1726C128.752 31.6073 128.973 32.1719 128.973 32.8665C128.973 33.4546 128.803 33.9787 128.462 34.439C128.125 34.8949 127.654 35.2529 127.049 35.5128C126.449 35.7728 125.752 35.9027 124.959 35.9027C123.86 35.9027 122.963 35.6684 122.268 35.1996C121.574 34.7266 121.147 34.0554 120.99 33.1861L122.837 32.9049C122.952 33.3864 123.189 33.7508 123.547 33.9979C123.904 34.2408 124.371 34.3623 124.946 34.3623C125.573 34.3623 126.074 34.2323 126.449 33.9723C126.824 33.7081 127.011 33.3864 127.011 33.0071C127.011 32.7003 126.896 32.4425 126.666 32.2337C126.44 32.0249 126.093 31.8672 125.624 31.7607L123.962 31.3964C123.046 31.1875 122.368 30.8552 121.929 30.3992C121.495 29.9432 121.277 29.3658 121.277 28.6669C121.277 28.0874 121.439 27.5803 121.763 27.1456C122.087 26.711 122.534 26.3722 123.105 26.1293C123.676 25.8821 124.331 25.7586 125.068 25.7586C126.129 25.7586 126.964 25.9887 127.574 26.4489C128.183 26.9049 128.586 27.5164 128.782 28.2834ZM132.986 29.875V35.7046H131.075V22.6137H132.96V27.4844H133.082C133.312 26.956 133.664 26.5363 134.137 26.2252C134.61 25.9141 135.227 25.7586 135.99 25.7586C136.664 25.7586 137.252 25.8971 137.754 26.174C138.262 26.451 138.654 26.8644 138.931 27.4141C139.212 27.9596 139.352 28.6414 139.352 29.4596V35.7046H137.441V29.6897C137.441 28.9695 137.256 28.4113 136.885 28.015C136.514 27.6144 135.999 27.4141 135.338 27.4141C134.887 27.4141 134.482 27.51 134.124 27.7017C133.77 27.8935 133.491 28.1748 133.286 28.5455C133.086 28.912 132.986 29.3552 132.986 29.875ZM144.76 35.9219C144.138 35.9219 143.575 35.8069 143.073 35.5767C142.57 35.3424 142.171 35.0036 141.877 34.5604C141.588 34.1172 141.443 33.5739 141.443 32.9304C141.443 32.3765 141.549 31.9205 141.762 31.5625C141.975 31.2046 142.263 30.9212 142.625 30.7124C142.987 30.5036 143.392 30.3459 143.84 30.2394C144.287 30.1329 144.743 30.0519 145.208 29.9965C145.796 29.9283 146.273 29.8729 146.639 29.8303C147.006 29.7834 147.272 29.7089 147.438 29.6066C147.605 29.5043 147.688 29.3381 147.688 29.108V29.0633C147.688 28.505 147.53 28.0725 147.215 27.7657C146.904 27.4589 146.439 27.3054 145.821 27.3054C145.178 27.3054 144.671 27.4482 144.3 27.7337C143.933 28.015 143.68 28.3282 143.539 28.6733L141.743 28.2642C141.956 27.6677 142.267 27.1861 142.676 26.8196C143.09 26.4489 143.565 26.1804 144.102 26.0142C144.639 25.8438 145.203 25.7586 145.796 25.7586C146.188 25.7586 146.603 25.8054 147.042 25.8992C147.485 25.9887 147.899 26.1549 148.282 26.3978C148.67 26.6407 148.987 26.988 149.235 27.4397C149.482 27.8871 149.605 28.4688 149.605 29.1847V35.7046H147.739V34.3623H147.662C147.539 34.6094 147.353 34.8523 147.106 35.091C146.859 35.3296 146.541 35.5277 146.154 35.6854C145.766 35.8431 145.301 35.9219 144.76 35.9219ZM145.176 34.3878C145.704 34.3878 146.156 34.2834 146.531 34.0746C146.91 33.8658 147.198 33.5931 147.394 33.2564C147.594 32.9155 147.694 32.5512 147.694 32.1634V30.8978C147.626 30.966 147.494 31.0299 147.298 31.0895C147.106 31.1449 146.887 31.1939 146.639 31.2365C146.392 31.2749 146.151 31.3111 145.917 31.3452C145.683 31.375 145.487 31.4006 145.329 31.4219C144.958 31.4688 144.619 31.5476 144.313 31.6584C144.01 31.7692 143.767 31.929 143.584 32.1378C143.405 32.3424 143.316 32.6151 143.316 32.956C143.316 33.429 143.49 33.787 143.84 34.0299C144.189 34.2685 144.634 34.3878 145.176 34.3878ZM152.151 35.7046V25.8864H153.998V27.4461H154.1C154.279 26.9177 154.595 26.5022 155.047 26.1996C155.502 25.8928 156.018 25.7394 156.593 25.7394C156.713 25.7394 156.853 25.7437 157.015 25.7522C157.181 25.7607 157.311 25.7714 157.405 25.7841V27.6123C157.328 27.591 157.192 27.5675 156.996 27.5419C156.8 27.5121 156.604 27.4972 156.408 27.4972C155.956 27.4972 155.554 27.5931 155.2 27.7848C154.85 27.9723 154.574 28.2344 154.369 28.5711C154.164 28.9035 154.062 29.2827 154.062 29.7089V35.7046H152.151ZM162.939 35.9027C161.972 35.9027 161.139 35.6961 160.44 35.2827C159.745 34.8651 159.208 34.2792 158.829 33.5249C158.454 32.7664 158.267 31.8779 158.267 30.8594C158.267 29.8537 158.454 28.9674 158.829 28.2003C159.208 27.4333 159.737 26.8346 160.414 26.4042C161.096 25.9738 161.893 25.7586 162.805 25.7586C163.359 25.7586 163.896 25.8502 164.416 26.0334C164.936 26.2167 165.402 26.5043 165.816 26.8964C166.229 27.2884 166.555 27.7976 166.793 28.424C167.032 29.0462 167.151 29.8026 167.151 30.6932V31.3708H159.347V29.939H165.279C165.279 29.4361 165.176 28.9908 164.972 28.603C164.767 28.211 164.48 27.902 164.109 27.6762C163.742 27.4503 163.312 27.3374 162.818 27.3374C162.281 27.3374 161.812 27.4695 161.411 27.7337C161.015 27.9937 160.708 28.3346 160.491 28.7564C160.278 29.174 160.171 29.6279 160.171 30.1179V31.2365C160.171 31.8928 160.286 32.451 160.517 32.9113C160.751 33.3715 161.077 33.7231 161.494 33.966C161.912 34.2046 162.4 34.3239 162.958 34.3239C163.32 34.3239 163.651 34.2728 163.949 34.1705C164.247 34.064 164.505 33.9063 164.722 33.6975C164.94 33.4887 165.106 33.2309 165.221 32.924L167.03 33.25C166.885 33.7827 166.625 34.2493 166.25 34.6499C165.879 35.0462 165.413 35.3552 164.85 35.5767C164.292 35.7941 163.655 35.9027 162.939 35.9027ZM172.947 35.8964C172.155 35.8964 171.447 35.6939 170.825 35.2891C170.207 34.88 169.722 34.2983 169.368 33.5441C169.018 32.7856 168.844 31.8758 168.844 30.8147C168.844 29.7536 169.021 28.8459 169.374 28.0917C169.732 27.3374 170.222 26.76 170.844 26.3594C171.467 25.9589 172.172 25.7586 172.96 25.7586C173.57 25.7586 174.06 25.8608 174.43 26.0654C174.805 26.2657 175.095 26.5 175.3 26.7685C175.509 27.037 175.67 27.2735 175.786 27.478H175.901V22.6137H177.812V35.7046H175.945V34.1769H175.786C175.67 34.3857 175.504 34.6243 175.287 34.8928C175.074 35.1613 174.78 35.3956 174.405 35.5959C174.03 35.7962 173.544 35.8964 172.947 35.8964ZM173.369 34.2664C173.919 34.2664 174.384 34.1215 174.763 33.8317C175.146 33.5377 175.436 33.1307 175.632 32.6108C175.832 32.091 175.933 31.4858 175.933 30.7955C175.933 30.1137 175.835 29.5171 175.638 29.0057C175.442 28.4944 175.155 28.0959 174.776 27.8104C174.396 27.5249 173.928 27.3821 173.369 27.3821C172.794 27.3821 172.315 27.5313 171.931 27.8296C171.548 28.1279 171.258 28.5348 171.062 29.0505C170.87 29.5661 170.774 30.1478 170.774 30.7955C170.774 31.4517 170.872 32.0419 171.068 32.5661C171.264 33.0902 171.554 33.5057 171.937 33.8125C172.325 34.1151 172.803 34.2664 173.369 34.2664ZM0.381389 57.7046V47.8864H2.29261V57.7046H0.381389ZM1.34659 46.3715C1.0142 46.3715 0.72869 46.2607 0.490054 46.0391C0.255679 45.8133 0.138492 45.5448 0.138492 45.2337C0.138492 44.9184 0.255679 44.6499 0.490054 44.4283C0.72869 44.2025 1.0142 44.0895 1.34659 44.0895C1.67897 44.0895 1.96236 44.2025 2.19673 44.4283C2.43537 44.6499 2.55468 44.9184 2.55468 45.2337C2.55468 45.5448 2.43537 45.8133 2.19673 46.0391C1.96236 46.2607 1.67897 46.3715 1.34659 46.3715ZM6.77503 51.875V57.7046H4.86381V47.8864H6.69833V49.4844H6.81978C7.04563 48.9645 7.39932 48.5469 7.88086 48.2316C8.36665 47.9162 8.97816 47.7586 9.71537 47.7586C10.3844 47.7586 10.9703 47.8992 11.4732 48.1804C11.976 48.4574 12.3659 48.8708 12.6429 49.4205C12.9199 49.9702 13.0584 50.6499 13.0584 51.4596V57.7046H11.1472V51.6897C11.1472 50.978 10.9618 50.4219 10.5911 50.0214C10.2203 49.6165 9.71111 49.4141 9.06339 49.4141C8.6202 49.4141 8.22603 49.51 7.88086 49.7017C7.53995 49.8935 7.26935 50.1748 7.06907 50.5455C6.87304 50.912 6.77503 51.3552 6.77503 51.875ZM20.2047 47.8864V49.4205H14.8418V47.8864H20.2047ZM16.28 45.5341H18.1912V54.8218C18.1912 55.1925 18.2466 55.4716 18.3574 55.6591C18.4682 55.8424 18.611 55.9681 18.7857 56.0363C18.9647 56.1002 19.1586 56.1321 19.3674 56.1321C19.5208 56.1321 19.655 56.1215 19.7701 56.1002C19.8851 56.0789 19.9746 56.0618 20.0385 56.049L20.3837 57.6279C20.2729 57.6705 20.1152 57.7131 19.9107 57.7557C19.7061 57.8026 19.4505 57.8282 19.1436 57.8324C18.6408 57.841 18.172 57.7515 17.7374 57.564C17.3027 57.3765 16.9512 57.0867 16.6827 56.6946C16.4142 56.3026 16.28 55.8104 16.28 55.2181V45.5341ZM26.445 57.9027C25.4776 57.9027 24.6445 57.6961 23.9457 57.2827C23.2511 56.8651 22.7141 56.2792 22.3349 55.5249C21.9599 54.7664 21.7724 53.8779 21.7724 52.8594C21.7724 51.8537 21.9599 50.9674 22.3349 50.2003C22.7141 49.4333 23.2425 48.8346 23.9201 48.4042C24.6019 47.9738 25.3988 47.7586 26.3107 47.7586C26.8647 47.7586 27.4016 47.8502 27.9215 48.0334C28.4414 48.2167 28.908 48.5043 29.3214 48.8964C29.7347 49.2884 30.0607 49.7976 30.2994 50.424C30.538 51.0462 30.6573 51.8026 30.6573 52.6932V53.3708H22.8526V51.939H28.7844C28.7844 51.4361 28.6822 50.9908 28.4776 50.603C28.2731 50.211 27.9854 49.902 27.6147 49.6762C27.2482 49.4503 26.8178 49.3374 26.3235 49.3374C25.7866 49.3374 25.3178 49.4695 24.9173 49.7337C24.5209 49.9937 24.2141 50.3346 23.9968 50.7564C23.7837 51.174 23.6772 51.6279 23.6772 52.1179V53.2365C23.6772 53.8928 23.7923 54.451 24.0224 54.9113C24.2567 55.3715 24.5827 55.7231 25.0004 55.966C25.418 56.2046 25.9059 56.3239 26.4641 56.3239C26.8263 56.3239 27.1566 56.2728 27.4549 56.1705C27.7532 56.064 28.011 55.9063 28.2283 55.6975C28.4457 55.4887 28.6119 55.2309 28.7269 54.924L30.5359 55.25C30.391 55.7827 30.131 56.2493 29.756 56.6499C29.3853 57.0462 28.9187 57.3552 28.3562 57.5767C27.7979 57.7941 27.1609 57.9027 26.445 57.9027ZM32.7779 57.7046V47.8864H34.6252V49.4461H34.7274C34.9064 48.9177 35.2218 48.5022 35.6735 48.1996C36.1294 47.8928 36.6451 47.7394 37.2203 47.7394C37.3397 47.7394 37.4803 47.7437 37.6422 47.7522C37.8084 47.7607 37.9384 47.7714 38.0321 47.7841V49.6123C37.9554 49.591 37.8191 49.5675 37.623 49.5419C37.427 49.5121 37.231 49.4972 37.035 49.4972C36.5833 49.4972 36.1806 49.5931 35.8269 49.7848C35.4774 49.9723 35.2005 50.2344 34.9959 50.5711C34.7914 50.9035 34.6891 51.2827 34.6891 51.7089V57.7046H32.7779ZM43.566 57.9027C42.5987 57.9027 41.7656 57.6961 41.0668 57.2827C40.3722 56.8651 39.8352 56.2792 39.456 55.5249C39.081 54.7664 38.8935 53.8779 38.8935 52.8594C38.8935 51.8537 39.081 50.9674 39.456 50.2003C39.8352 49.4333 40.3636 48.8346 41.0412 48.4042C41.723 47.9738 42.5199 47.7586 43.4318 47.7586C43.9858 47.7586 44.5227 47.8502 45.0426 48.0334C45.5625 48.2167 46.0291 48.5043 46.4425 48.8964C46.8558 49.2884 47.1818 49.7976 47.4205 50.424C47.6591 51.0462 47.7784 51.8026 47.7784 52.6932V53.3708H39.9737V51.939H45.9055C45.9055 51.4361 45.8033 50.9908 45.5987 50.603C45.3942 50.211 45.1065 49.902 44.7358 49.6762C44.3693 49.4503 43.9389 49.3374 43.4446 49.3374C42.9077 49.3374 42.4389 49.4695 42.0383 49.7337C41.642 49.9937 41.3352 50.3346 41.1179 50.7564C40.9048 51.174 40.7983 51.6279 40.7983 52.1179V53.2365C40.7983 53.8928 40.9133 54.451 41.1435 54.9113C41.3778 55.3715 41.7038 55.7231 42.1214 55.966C42.5391 56.2046 43.027 56.3239 43.5852 56.3239C43.9474 56.3239 44.2777 56.2728 44.576 56.1705C44.8743 56.064 45.1321 55.9063 45.3494 55.6975C45.5668 55.4887 45.733 55.2309 45.848 54.924L47.657 55.25C47.5121 55.7827 47.2521 56.2493 46.8771 56.6499C46.5064 57.0462 46.0398 57.3552 45.4773 57.5767C44.919 57.7941 44.282 57.9027 43.566 57.9027ZM57.2562 50.2834L55.524 50.5902C55.4515 50.3687 55.3365 50.1577 55.1788 49.9574C55.0254 49.7571 54.8166 49.5931 54.5524 49.4652C54.2882 49.3374 53.9579 49.2735 53.5616 49.2735C53.0204 49.2735 52.5687 49.3949 52.2065 49.6378C51.8443 49.8765 51.6632 50.1854 51.6632 50.5647C51.6632 50.8928 51.7846 51.157 52.0275 51.3573C52.2704 51.5576 52.6625 51.7216 53.2037 51.8495L54.7633 52.2074C55.6667 52.4162 56.34 52.738 56.7832 53.1726C57.2264 53.6073 57.448 54.1719 57.448 54.8665C57.448 55.4546 57.2775 55.9787 56.9366 56.439C56.6 56.8949 56.1291 57.2529 55.524 57.5128C54.9231 57.7728 54.2264 57.9027 53.4338 57.9027C52.3343 57.9027 51.4373 57.6684 50.7427 57.1996C50.0481 56.7266 49.622 56.0554 49.4643 55.1861L51.3116 54.9049C51.4267 55.3864 51.6632 55.7508 52.0211 55.9979C52.3791 56.2408 52.8457 56.3623 53.421 56.3623C54.0474 56.3623 54.5481 56.2323 54.9231 55.9723C55.2981 55.7081 55.4856 55.3864 55.4856 55.0071C55.4856 54.7003 55.3706 54.4425 55.1404 54.2337C54.9146 54.0249 54.5673 53.8672 54.0985 53.7607L52.4366 53.3964C51.5204 53.1875 50.8429 52.8552 50.4039 52.3992C49.9693 51.9432 49.752 51.3658 49.752 50.6669C49.752 50.0874 49.9139 49.5803 50.2377 49.1456C50.5616 48.711 51.0091 48.3722 51.5801 48.1293C52.1511 47.8821 52.8052 47.7586 53.5424 47.7586C54.6035 47.7586 55.4387 47.9887 56.0481 48.4489C56.6575 48.9049 57.0602 49.5164 57.2562 50.2834ZM64.1325 47.8864V49.4205H58.7695V47.8864H64.1325ZM60.2077 45.5341H62.119V54.8218C62.119 55.1925 62.1744 55.4716 62.2852 55.6591C62.3959 55.8424 62.5387 55.9681 62.7134 56.0363C62.8924 56.1002 63.0863 56.1321 63.2951 56.1321C63.4485 56.1321 63.5827 56.1215 63.6978 56.1002C63.8129 56.0789 63.9023 56.0618 63.9663 56.049L64.3114 57.6279C64.2006 57.6705 64.043 57.7131 63.8384 57.7557C63.6339 57.8026 63.3782 57.8282 63.0714 57.8324C62.5685 57.841 62.0998 57.7515 61.6651 57.564C61.2305 57.3765 60.8789 57.0867 60.6104 56.6946C60.342 56.3026 60.2077 55.8104 60.2077 55.2181V45.5341ZM73.4457 50.2834L71.7134 50.5902C71.641 50.3687 71.5259 50.1577 71.3683 49.9574C71.2148 49.7571 71.006 49.5931 70.7418 49.4652C70.4776 49.3374 70.1474 49.2735 69.7511 49.2735C69.2099 49.2735 68.7582 49.3949 68.3959 49.6378C68.0337 49.8765 67.8526 50.1854 67.8526 50.5647C67.8526 50.8928 67.9741 51.157 68.217 51.3573C68.4599 51.5576 68.8519 51.7216 69.3931 51.8495L70.9528 52.2074C71.8562 52.4162 72.5295 52.738 72.9727 53.1726C73.4158 53.6073 73.6374 54.1719 73.6374 54.8665C73.6374 55.4546 73.467 55.9787 73.1261 56.439C72.7894 56.8949 72.3185 57.2529 71.7134 57.5128C71.1126 57.7728 70.4158 57.9027 69.6232 57.9027C68.5238 57.9027 67.6268 57.6684 66.9322 57.1996C66.2376 56.7266 65.8114 56.0554 65.6538 55.1861L67.5011 54.9049C67.6161 55.3864 67.8526 55.7508 68.2106 55.9979C68.5685 56.2408 69.0352 56.3623 69.6104 56.3623C70.2369 56.3623 70.7376 56.2323 71.1126 55.9723C71.4876 55.7081 71.6751 55.3864 71.6751 55.0071C71.6751 54.7003 71.56 54.4425 71.3299 54.2337C71.104 54.0249 70.7567 53.8672 70.288 53.7607L68.6261 53.3964C67.7099 53.1875 67.0323 52.8552 66.5934 52.3992C66.1587 51.9432 65.9414 51.3658 65.9414 50.6669C65.9414 50.0874 66.1033 49.5803 66.4272 49.1456C66.7511 48.711 67.1985 48.3722 67.7695 48.1293C68.3406 47.8821 68.9947 47.7586 69.7319 47.7586C70.793 47.7586 71.6282 47.9887 72.2376 48.4489C72.8469 48.9049 73.2496 49.5164 73.4457 50.2834ZM76.998 57.826C76.6486 57.826 76.3482 57.7025 76.0968 57.4553C75.8453 57.2039 75.7196 56.9013 75.7196 56.5476C75.7196 56.1982 75.8453 55.8999 76.0968 55.6527C76.3482 55.4013 76.6486 55.2756 76.998 55.2756C77.3475 55.2756 77.6479 55.4013 77.8993 55.6527C78.1507 55.8999 78.2765 56.1982 78.2765 56.5476C78.2765 56.782 78.2168 56.9972 78.0975 57.1932C77.9824 57.385 77.829 57.5384 77.6372 57.6535C77.4455 57.7685 77.2324 57.826 76.998 57.826Z" fill="#5A5A5A"/>
<path d="M11.1008 88.6137V101.705H9.28551L2.63139 92.1037H2.50994V101.705H0.534798V88.6137H2.36292L9.02344 98.2273H9.14488V88.6137H11.1008ZM17.9643 101.903C17.0439 101.903 16.2406 101.692 15.5545 101.27C14.8684 100.848 14.3358 100.258 13.9565 99.4993C13.5772 98.7408 13.3876 97.8544 13.3876 96.8402C13.3876 95.8218 13.5772 94.9312 13.9565 94.1684C14.3358 93.4056 14.8684 92.8133 15.5545 92.3914C16.2406 91.9695 17.0439 91.7586 17.9643 91.7586C18.8848 91.7586 19.688 91.9695 20.3741 92.3914C21.0602 92.8133 21.5929 93.4056 21.9721 94.1684C22.3514 94.9312 22.541 95.8218 22.541 96.8402C22.541 97.8544 22.3514 98.7408 21.9721 99.4993C21.5929 100.258 21.0602 100.848 20.3741 101.27C19.688 101.692 18.8848 101.903 17.9643 101.903ZM17.9707 100.298C18.5673 100.298 19.0616 100.141 19.4537 99.8253C19.8457 99.51 20.1355 99.0902 20.323 98.5661C20.5147 98.0419 20.6106 97.4645 20.6106 96.8339C20.6106 96.2074 20.5147 95.6321 20.323 95.108C20.1355 94.5796 19.8457 94.1556 19.4537 93.836C19.0616 93.5164 18.5673 93.3566 17.9707 93.3566C17.3698 93.3566 16.8713 93.5164 16.475 93.836C16.0829 94.1556 15.791 94.5796 15.5993 95.108C15.4118 95.6321 15.318 96.2074 15.318 96.8339C15.318 97.4645 15.4118 98.0419 15.5993 98.5661C15.791 99.0902 16.0829 99.51 16.475 99.8253C16.8713 100.141 17.3698 100.298 17.9707 100.298ZM30.8938 97.6329V91.8864H32.8114V101.705H30.9322V100.004H30.8299C30.604 100.528 30.2418 100.965 29.7433 101.315C29.2489 101.66 28.6332 101.832 27.8959 101.832C27.2653 101.832 26.707 101.694 26.2212 101.417C25.7397 101.136 25.3604 100.72 25.0834 100.17C24.8107 99.6208 24.6744 98.9411 24.6744 98.1314V91.8864H26.5856V97.9013C26.5856 98.5704 26.7709 99.103 27.1417 99.4993C27.5124 99.8956 27.994 100.094 28.5863 100.094C28.9442 100.094 29.3001 100.004 29.6538 99.8253C30.0117 99.6464 30.3079 99.3758 30.5423 99.0135C30.7809 98.6513 30.8981 98.1911 30.8938 97.6329ZM35.3794 101.705V91.8864H37.2267V93.4461H37.329C37.508 92.9177 37.8233 92.5022 38.275 92.1996C38.731 91.8928 39.2466 91.7394 39.8219 91.7394C39.9412 91.7394 40.0819 91.7437 40.2438 91.7522C40.41 91.7607 40.5399 91.7714 40.6337 91.7841V93.6123C40.557 93.591 40.4206 93.5675 40.2246 93.5419C40.0286 93.5121 39.8326 93.4972 39.6365 93.4972C39.1848 93.4972 38.7821 93.5931 38.4284 93.7848C38.079 93.9723 37.802 94.2344 37.5975 94.5711C37.3929 94.9035 37.2907 95.2827 37.2907 95.7089V101.705H35.3794ZM45.057 101.922C44.4348 101.922 43.8723 101.807 43.3695 101.577C42.8667 101.342 42.4682 101.004 42.1742 100.56C41.8844 100.117 41.7395 99.5739 41.7395 98.9304C41.7395 98.3765 41.8461 97.9205 42.0591 97.5625C42.2722 97.2046 42.5598 96.9212 42.922 96.7124C43.2843 96.5036 43.6891 96.3459 44.1365 96.2394C44.584 96.1329 45.0399 96.0519 45.5044 95.9965C46.0925 95.9283 46.5698 95.8729 46.9363 95.8303C47.3027 95.7834 47.5691 95.7089 47.7353 95.6066C47.9015 95.5043 47.9845 95.3381 47.9845 95.108V95.0633C47.9845 94.505 47.8269 94.0725 47.5115 93.7657C47.2005 93.4589 46.736 93.3054 46.1181 93.3054C45.4746 93.3054 44.9675 93.4482 44.5968 93.7337C44.2303 94.015 43.9767 94.3282 43.8361 94.6733L42.0399 94.2642C42.253 93.6677 42.5641 93.1861 42.9732 92.8196C43.3865 92.4489 43.8617 92.1804 44.3986 92.0142C44.9355 91.8438 45.5002 91.7586 46.0925 91.7586C46.4845 91.7586 46.9 91.8054 47.339 91.8992C47.7821 91.9887 48.1955 92.1549 48.579 92.3978C48.9668 92.6407 49.2843 92.988 49.5314 93.4397C49.7786 93.8871 49.9022 94.4688 49.9022 95.1847V101.705H48.0357V100.362H47.959C47.8354 100.609 47.65 100.852 47.4029 101.091C47.1557 101.33 46.8382 101.528 46.4505 101.685C46.0627 101.843 45.5982 101.922 45.057 101.922ZM45.4725 100.388C46.0009 100.388 46.4526 100.283 46.8276 100.075C47.2069 99.8658 47.4945 99.5931 47.6905 99.2564C47.8908 98.9155 47.9909 98.5512 47.9909 98.1634V96.8978C47.9228 96.966 47.7907 97.0299 47.5946 97.0895C47.4029 97.1449 47.1834 97.1939 46.9363 97.2365C46.6891 97.2749 46.4483 97.3111 46.214 97.3452C45.9796 97.375 45.7836 97.4006 45.6259 97.4219C45.2551 97.4688 44.9164 97.5476 44.6095 97.6584C44.307 97.7692 44.0641 97.929 43.8809 98.1378C43.7019 98.3424 43.6124 98.6151 43.6124 98.956C43.6124 99.429 43.7871 99.787 44.1365 100.03C44.486 100.269 44.9313 100.388 45.4725 100.388ZM54.9343 99.9148L54.8384 100.612C54.7745 101.123 54.6658 101.656 54.5124 102.21C54.3633 102.768 54.2077 103.286 54.0458 103.763C53.8881 104.24 53.7582 104.619 53.6559 104.901H52.3008C52.3562 104.636 52.4329 104.278 52.5309 103.827C52.6289 103.379 52.7248 102.879 52.8185 102.325C52.9123 101.771 52.9826 101.206 53.0295 100.631L53.0934 99.9148H54.9343ZM70.7578 88.6137H72.7393V97.2238C72.7393 98.14 72.5241 98.9517 72.0937 99.6591C71.6633 100.362 71.0582 100.916 70.2784 101.321C69.4986 101.722 68.5845 101.922 67.5362 101.922C66.4922 101.922 65.5803 101.722 64.8004 101.321C64.0206 100.916 63.4155 100.362 62.9851 99.6591C62.5547 98.9517 62.3395 98.14 62.3395 97.2238V88.6137H64.3146V97.064C64.3146 97.6563 64.4446 98.1826 64.7045 98.6428C64.9687 99.103 65.3416 99.4652 65.8232 99.7294C66.3047 99.9894 66.8757 100.119 67.5362 100.119C68.201 100.119 68.7741 99.9894 69.2557 99.7294C69.7415 99.4652 70.1122 99.103 70.3679 98.6428C70.6278 98.1826 70.7578 97.6563 70.7578 97.064V88.6137ZM76.7168 101.705H74.6202L79.3311 88.6137H81.6131L86.324 101.705H84.2274L80.5265 90.9915H80.4242L76.7168 101.705ZM77.0684 96.5782H83.8695V98.2401H77.0684V96.5782ZM88.2145 101.705V88.6137H96.4219V90.314H90.1896V94.3026H95.9936V95.9965H90.1896V100.004H96.4986V101.705H88.2145Z" fill="#1B1B1B"/>
<path d="M10.0398 112.852H8.26704C8.19886 112.474 8.07197 112.14 7.88636 111.852C7.70076 111.564 7.47348 111.32 7.20454 111.119C6.9356 110.919 6.63447 110.767 6.30113 110.665C5.97159 110.563 5.62121 110.511 5.25 110.511C4.57954 110.511 3.97916 110.68 3.44886 111.017C2.92235 111.354 2.50568 111.849 2.19886 112.5C1.89583 113.152 1.74432 113.947 1.74432 114.886C1.74432 115.833 1.89583 116.633 2.19886 117.284C2.50568 117.936 2.92424 118.428 3.45454 118.761C3.98485 119.095 4.58144 119.261 5.24432 119.261C5.61174 119.261 5.96022 119.212 6.28977 119.114C6.6231 119.011 6.92424 118.862 7.19318 118.665C7.46212 118.468 7.68939 118.227 7.875 117.943C8.06439 117.655 8.19507 117.326 8.26704 116.955L10.0398 116.96C9.94507 117.532 9.76136 118.059 9.48863 118.54C9.21969 119.017 8.8731 119.43 8.44886 119.778C8.02841 120.123 7.54735 120.39 7.00568 120.58C6.46401 120.769 5.8731 120.864 5.23295 120.864C4.22538 120.864 3.32765 120.625 2.53977 120.148C1.75189 119.667 1.13068 118.979 0.676134 118.085C0.225376 117.191 -2.74181e-06 116.125 -2.74181e-06 114.886C-2.74181e-06 113.644 0.22727 112.578 0.681816 111.688C1.13636 110.794 1.75757 110.108 2.54545 109.631C3.33333 109.15 4.22916 108.909 5.23295 108.909C5.85038 108.909 6.42613 108.998 6.96022 109.176C7.4981 109.35 7.98106 109.608 8.40909 109.949C8.83712 110.286 9.19129 110.699 9.47159 111.188C9.75189 111.672 9.94129 112.227 10.0398 112.852ZM15.6804 120.881C14.8622 120.881 14.1482 120.693 13.5383 120.318C12.9285 119.943 12.455 119.419 12.1179 118.744C11.7808 118.07 11.6122 117.282 11.6122 116.381C11.6122 115.475 11.7808 114.684 12.1179 114.006C12.455 113.328 12.9285 112.801 13.5383 112.426C14.1482 112.051 14.8622 111.864 15.6804 111.864C16.4986 111.864 17.2126 112.051 17.8224 112.426C18.4323 112.801 18.9058 113.328 19.2429 114.006C19.58 114.684 19.7486 115.475 19.7486 116.381C19.7486 117.282 19.58 118.07 19.2429 118.744C18.9058 119.419 18.4323 119.943 17.8224 120.318C17.2126 120.693 16.4986 120.881 15.6804 120.881ZM15.6861 119.455C16.2164 119.455 16.6558 119.314 17.0043 119.034C17.3527 118.754 17.6103 118.381 17.777 117.915C17.9474 117.449 18.0327 116.936 18.0327 116.375C18.0327 115.818 17.9474 115.307 17.777 114.841C17.6103 114.371 17.3527 113.994 17.0043 113.71C16.6558 113.426 16.2164 113.284 15.6861 113.284C15.152 113.284 14.7088 113.426 14.3565 113.71C14.008 113.994 13.7486 114.371 13.5781 114.841C13.4115 115.307 13.3281 115.818 13.3281 116.375C13.3281 116.936 13.4115 117.449 13.5781 117.915C13.7486 118.381 14.008 118.754 14.3565 119.034C14.7088 119.314 15.152 119.455 15.6861 119.455ZM21.6449 120.705V111.977H23.2756V113.398H23.3835C23.5653 112.917 23.8627 112.542 24.2756 112.273C24.6884 112 25.1828 111.864 25.7585 111.864C26.3419 111.864 26.8305 112 27.2244 112.273C27.6222 112.545 27.9157 112.92 28.1051 113.398H28.196C28.4044 112.932 28.7358 112.561 29.1903 112.284C29.6449 112.004 30.1866 111.864 30.8153 111.864C31.607 111.864 32.2528 112.112 32.7528 112.608C33.2566 113.104 33.5085 113.852 33.5085 114.852V120.705H31.8097V115.011C31.8097 114.42 31.6487 113.992 31.3267 113.727C31.0047 113.462 30.6203 113.33 30.1733 113.33C29.6203 113.33 29.1903 113.5 28.8835 113.841C28.5767 114.178 28.4233 114.612 28.4233 115.142V120.705H26.7301V114.903C26.7301 114.43 26.5824 114.049 26.2869 113.761C25.9915 113.474 25.607 113.33 25.1335 113.33C24.8116 113.33 24.5142 113.415 24.2415 113.585C23.9725 113.752 23.7547 113.985 23.5881 114.284C23.4252 114.583 23.3437 114.93 23.3437 115.324V120.705H21.6449ZM35.7855 120.705V111.977H37.4162V113.398H37.5241C37.706 112.917 38.0033 112.542 38.4162 112.273C38.8291 112 39.3234 111.864 39.8991 111.864C40.4825 111.864 40.9711 112 41.3651 112.273C41.7628 112.545 42.0563 112.92 42.2457 113.398H42.3366C42.545 112.932 42.8764 112.561 43.331 112.284C43.7855 112.004 44.3272 111.864 44.956 111.864C45.7476 111.864 46.3935 112.112 46.8935 112.608C47.3973 113.104 47.6491 113.852 47.6491 114.852V120.705H45.9503V115.011C45.9503 114.42 45.7893 113.992 45.4673 113.727C45.1454 113.462 44.7609 113.33 44.3139 113.33C43.7609 113.33 43.331 113.5 43.0241 113.841C42.7173 114.178 42.5639 114.612 42.5639 115.142V120.705H40.8707V114.903C40.8707 114.43 40.723 114.049 40.4276 113.761C40.1321 113.474 39.7476 113.33 39.2741 113.33C38.9522 113.33 38.6548 113.415 38.3821 113.585C38.1132 113.752 37.8954 113.985 37.7287 114.284C37.5658 114.583 37.4844 114.93 37.4844 115.324V120.705H35.7855ZM55.4545 117.085V111.977H57.1591V120.705H55.4886V119.193H55.3977C55.197 119.659 54.875 120.047 54.4318 120.358C53.9924 120.665 53.4451 120.818 52.7898 120.818C52.2292 120.818 51.733 120.695 51.3011 120.449C50.8731 120.199 50.536 119.83 50.2898 119.341C50.0473 118.852 49.9261 118.248 49.9261 117.528V111.977H51.625V117.324C51.625 117.919 51.7898 118.392 52.1193 118.744C52.4489 119.097 52.8769 119.273 53.4034 119.273C53.7216 119.273 54.0379 119.193 54.3523 119.034C54.6705 118.875 54.9337 118.635 55.142 118.313C55.3542 117.991 55.4583 117.581 55.4545 117.085ZM61.1406 115.523V120.705H59.4418V111.977H61.0724V113.398H61.1804C61.3812 112.936 61.6955 112.564 62.1236 112.284C62.5554 112.004 63.099 111.864 63.7543 111.864C64.349 111.864 64.8698 111.989 65.3168 112.239C65.7637 112.485 66.1103 112.852 66.3565 113.341C66.6027 113.83 66.7259 114.434 66.7259 115.153V120.705H65.027V115.358C65.027 114.725 64.8622 114.231 64.5327 113.875C64.2031 113.515 63.7505 113.335 63.1747 113.335C62.7808 113.335 62.4304 113.42 62.1236 113.591C61.8205 113.761 61.58 114.011 61.402 114.341C61.2277 114.667 61.1406 115.061 61.1406 115.523ZM69.0043 120.705V111.977H70.7031V120.705H69.0043ZM69.8622 110.631C69.5668 110.631 69.313 110.532 69.1008 110.335C68.8925 110.135 68.7883 109.896 68.7883 109.619C68.7883 109.339 68.8925 109.1 69.1008 108.903C69.313 108.703 69.5668 108.602 69.8622 108.602C70.1577 108.602 70.4096 108.703 70.6179 108.903C70.83 109.1 70.9361 109.339 70.9361 109.619C70.9361 109.896 70.83 110.135 70.6179 110.335C70.4096 110.532 70.1577 110.631 69.8622 110.631ZM77.0625 111.977V113.341H72.2955V111.977H77.0625ZM73.5739 109.886H75.2727V118.142C75.2727 118.472 75.322 118.72 75.4205 118.886C75.5189 119.049 75.6458 119.161 75.8011 119.222C75.9602 119.278 76.1326 119.307 76.3182 119.307C76.4545 119.307 76.5739 119.297 76.6761 119.278C76.7784 119.26 76.858 119.244 76.9148 119.233L77.2216 120.636C77.1231 120.674 76.983 120.712 76.8011 120.75C76.6193 120.792 76.392 120.814 76.1193 120.818C75.6723 120.826 75.2557 120.746 74.8693 120.58C74.483 120.413 74.1705 120.155 73.9318 119.807C73.6932 119.458 73.5739 119.021 73.5739 118.494V109.886ZM80.0156 123.977C79.7618 123.977 79.5308 123.956 79.3224 123.915C79.1141 123.877 78.9588 123.835 78.8565 123.79L79.2656 122.398C79.5762 122.481 79.8527 122.517 80.0952 122.506C80.3376 122.494 80.5516 122.403 80.7372 122.233C80.9266 122.063 81.0933 121.784 81.2372 121.398L81.4474 120.818L78.2543 111.977H80.0724L82.2827 118.75H82.3736L84.5838 111.977H86.4077L82.8111 121.869C82.6444 122.324 82.4323 122.708 82.1747 123.023C81.9171 123.341 81.6103 123.58 81.2543 123.739C80.8982 123.898 80.4853 123.977 80.0156 123.977ZM92.375 109.068H94.5057L98.2102 118.114H98.3466L102.051 109.068H104.182V120.705H102.511V112.284H102.403L98.9716 120.688H97.5852L94.1534 112.278H94.0455V120.705H92.375V109.068ZM110.359 120.881C109.5 120.881 108.759 120.697 108.138 120.33C107.52 119.958 107.043 119.438 106.706 118.767C106.373 118.093 106.206 117.303 106.206 116.398C106.206 115.504 106.373 114.716 106.706 114.034C107.043 113.352 107.513 112.82 108.115 112.438C108.721 112.055 109.429 111.864 110.24 111.864C110.732 111.864 111.21 111.945 111.672 112.108C112.134 112.271 112.549 112.527 112.916 112.875C113.284 113.224 113.573 113.676 113.786 114.233C113.998 114.786 114.104 115.458 114.104 116.25V116.852H107.166V115.58H112.439C112.439 115.133 112.348 114.737 112.166 114.392C111.984 114.044 111.729 113.769 111.399 113.568C111.073 113.367 110.691 113.267 110.251 113.267C109.774 113.267 109.357 113.385 109.001 113.619C108.649 113.85 108.376 114.153 108.183 114.528C107.994 114.9 107.899 115.303 107.899 115.739V116.733C107.899 117.316 108.001 117.813 108.206 118.222C108.414 118.631 108.704 118.943 109.075 119.159C109.446 119.371 109.88 119.477 110.376 119.477C110.698 119.477 110.992 119.432 111.257 119.341C111.522 119.246 111.751 119.106 111.945 118.92C112.138 118.735 112.286 118.506 112.388 118.233L113.996 118.523C113.867 118.996 113.636 119.411 113.303 119.767C112.973 120.119 112.558 120.394 112.058 120.591C111.562 120.784 110.996 120.881 110.359 120.881ZM115.989 120.705V111.977H117.619V113.398H117.727C117.909 112.917 118.206 112.542 118.619 112.273C119.032 112 119.527 111.864 120.102 111.864C120.686 111.864 121.174 112 121.568 112.273C121.966 112.545 122.259 112.92 122.449 113.398H122.54C122.748 112.932 123.08 112.561 123.534 112.284C123.989 112.004 124.53 111.864 125.159 111.864C125.951 111.864 126.597 112.112 127.097 112.608C127.6 113.104 127.852 113.852 127.852 114.852V120.705H126.153V115.011C126.153 114.42 125.992 113.992 125.67 113.727C125.348 113.462 124.964 113.33 124.517 113.33C123.964 113.33 123.534 113.5 123.227 113.841C122.92 114.178 122.767 114.612 122.767 115.142V120.705H121.074V114.903C121.074 114.43 120.926 114.049 120.631 113.761C120.335 113.474 119.951 113.33 119.477 113.33C119.155 113.33 118.858 113.415 118.585 113.585C118.316 113.752 118.098 113.985 117.932 114.284C117.769 114.583 117.687 114.93 117.687 115.324V120.705H115.989ZM130.266 120.705V109.068H131.964V113.392H132.067C132.165 113.21 132.307 113 132.493 112.761C132.679 112.523 132.936 112.314 133.266 112.136C133.595 111.955 134.031 111.864 134.572 111.864C135.277 111.864 135.906 112.042 136.459 112.398C137.012 112.754 137.446 113.267 137.76 113.938C138.078 114.608 138.237 115.415 138.237 116.358C138.237 117.301 138.08 118.11 137.766 118.784C137.451 119.455 137.019 119.972 136.47 120.335C135.921 120.695 135.294 120.875 134.589 120.875C134.059 120.875 133.625 120.786 133.288 120.608C132.955 120.43 132.694 120.222 132.504 119.983C132.315 119.744 132.169 119.532 132.067 119.347H131.925V120.705H130.266ZM131.93 116.341C131.93 116.955 132.019 117.492 132.197 117.955C132.375 118.417 132.633 118.778 132.97 119.04C133.307 119.297 133.72 119.426 134.209 119.426C134.716 119.426 135.141 119.292 135.482 119.023C135.822 118.75 136.08 118.381 136.254 117.915C136.432 117.449 136.521 116.924 136.521 116.341C136.521 115.765 136.434 115.248 136.26 114.79C136.089 114.331 135.832 113.97 135.487 113.705C135.146 113.439 134.72 113.307 134.209 113.307C133.716 113.307 133.3 113.434 132.959 113.688C132.622 113.941 132.366 114.295 132.192 114.75C132.018 115.205 131.93 115.735 131.93 116.341ZM143.906 120.881C143.046 120.881 142.306 120.697 141.685 120.33C141.067 119.958 140.59 119.438 140.253 118.767C139.92 118.093 139.753 117.303 139.753 116.398C139.753 115.504 139.92 114.716 140.253 114.034C140.59 113.352 141.06 112.82 141.662 112.438C142.268 112.055 142.976 111.864 143.787 111.864C144.279 111.864 144.757 111.945 145.219 112.108C145.681 112.271 146.096 112.527 146.463 112.875C146.83 113.224 147.12 113.676 147.332 114.233C147.545 114.786 147.651 115.458 147.651 116.25V116.852H140.713V115.58H145.986C145.986 115.133 145.895 114.737 145.713 114.392C145.531 114.044 145.276 113.769 144.946 113.568C144.62 113.367 144.238 113.267 143.798 113.267C143.321 113.267 142.904 113.385 142.548 113.619C142.196 113.85 141.923 114.153 141.73 114.528C141.541 114.9 141.446 115.303 141.446 115.739V116.733C141.446 117.316 141.548 117.813 141.753 118.222C141.961 118.631 142.251 118.943 142.622 119.159C142.993 119.371 143.427 119.477 143.923 119.477C144.245 119.477 144.539 119.432 144.804 119.341C145.069 119.246 145.298 119.106 145.491 118.92C145.685 118.735 145.832 118.506 145.935 118.233L147.543 118.523C147.414 118.996 147.183 119.411 146.849 119.767C146.52 120.119 146.105 120.394 145.605 120.591C145.109 120.784 144.543 120.881 143.906 120.881ZM149.536 120.705V111.977H151.178V113.364H151.268C151.428 112.894 151.708 112.525 152.109 112.256C152.515 111.983 152.973 111.847 153.484 111.847C153.59 111.847 153.715 111.85 153.859 111.858C154.007 111.866 154.123 111.875 154.206 111.886V113.511C154.138 113.492 154.017 113.472 153.842 113.449C153.668 113.422 153.494 113.409 153.32 113.409C152.918 113.409 152.56 113.494 152.246 113.665C151.935 113.831 151.689 114.064 151.507 114.364C151.325 114.659 151.234 114.996 151.234 115.375V120.705H149.536Z" fill="#8A8A8A"/>
</svg>
