<svg width="206" height="62" viewBox="0 0 206 62" fill="none" xmlns="http://www.w3.org/2000/svg">
<rect x="0.763404" y="0.763404" width="204.473" height="60.0405" rx="13.4719" fill="#1B1B1B"/>
<rect x="0.763404" y="0.763404" width="204.473" height="60.0405" rx="13.4719" stroke="#2E2E2E" stroke-width="1.52681"/>
<path d="M30.6516 32.2742L14.1533 50.1803C14.1549 50.1835 14.1549 50.1883 14.1564 50.1914C14.6631 52.1357 16.3987 53.5667 18.4596 53.5667C19.284 53.5667 20.0572 53.3385 20.7204 52.9391L20.7731 52.9075L39.3431 41.9499L30.6516 32.2742Z" fill="#EA4335"/>
<path d="M47.3397 29.2257L47.3242 29.2146L39.3067 24.4623L30.2743 32.6817L39.3393 41.9485L47.3133 37.2438C48.711 36.4705 49.6609 34.9635 49.6609 33.2268C49.6609 31.4996 48.725 30.0005 47.3397 29.2257Z" fill="#FBBC04"/>
<path d="M14.1517 16.1958C14.0525 16.5697 13.9998 16.9627 13.9998 17.3684V49.0099C13.9998 49.4155 14.0525 49.8085 14.1533 50.1809L31.2171 32.7328L14.1517 16.1958Z" fill="#4285F4"/>
<path d="M30.7726 33.1887L39.3107 24.4591L20.7624 13.4619C20.0883 13.0483 19.3011 12.8106 18.4597 12.8106C16.3988 12.8106 14.6602 14.2447 14.1535 16.1906C14.1535 16.1922 14.1519 16.1938 14.1519 16.1954L30.7726 33.1887Z" fill="#34A853"/>
<path d="M70.157 13.7421C70.0436 13.395 69.8941 13.084 69.7085 12.8091C69.5264 12.5307 69.3082 12.2936 69.0538 12.0977C68.803 11.9018 68.5178 11.7523 68.1982 11.6492C67.8786 11.5461 67.528 11.4946 67.1466 11.4946C66.5211 11.4946 65.9524 11.6561 65.4403 11.9791C64.9283 12.3022 64.5211 12.7781 64.2187 13.407C63.9163 14.0359 63.765 14.8074 63.765 15.7215C63.765 16.6356 63.918 17.4071 64.2238 18.036C64.5297 18.6649 64.9438 19.1408 65.4661 19.4639C65.9885 19.7869 66.5761 19.9484 67.2291 19.9484C67.8339 19.9484 68.3665 19.8196 68.827 19.5618C69.291 19.3006 69.6518 18.9329 69.9095 18.4587C70.1707 17.981 70.3013 17.4191 70.3013 16.7731L70.6931 16.8556H67.5177V15.7215H71.5385V16.8556C71.5385 17.725 71.3529 18.481 70.9817 19.1237C70.614 19.7663 70.1054 20.2646 69.4559 20.6185C68.8099 20.9691 68.0676 21.1443 67.2291 21.1443C66.2943 21.1443 65.473 20.9244 64.7651 20.4845C64.0606 20.0446 63.5107 19.4192 63.1155 18.6082C62.7238 17.7972 62.5279 16.8349 62.5279 15.7215C62.5279 14.8864 62.6396 14.1356 62.863 13.4689C63.0898 12.7987 63.4094 12.2283 63.8217 11.7575C64.2341 11.2867 64.7221 10.9258 65.2857 10.675C65.8493 10.4241 66.4696 10.2987 67.1466 10.2987C67.7033 10.2987 68.2222 10.3829 68.7033 10.5513C69.1879 10.7162 69.6192 10.9516 69.9972 11.2575C70.3786 11.5599 70.6965 11.9224 70.9508 12.3451C71.2051 12.7644 71.3804 13.23 71.4766 13.7421H70.157ZM76.8827 21.165C76.1198 21.165 75.4617 20.9966 74.9084 20.6598C74.3585 20.3196 73.9341 19.8453 73.6352 19.2371C73.3396 18.6254 73.1918 17.914 73.1918 17.103C73.1918 16.292 73.3396 15.5772 73.6352 14.9586C73.9341 14.3366 74.35 13.852 74.8826 13.505C75.4187 13.1544 76.0442 12.9792 76.759 12.9792C77.1713 12.9792 77.5786 13.0479 77.9806 13.1854C78.3827 13.3228 78.7487 13.5462 79.0786 13.8555C79.4085 14.1613 79.6714 14.5668 79.8673 15.072C80.0632 15.5772 80.1611 16.1992 80.1611 16.938V17.4535H74.0579V16.4019H78.924C78.924 15.9552 78.8346 15.5566 78.6559 15.206C78.4807 14.8555 78.2298 14.5789 77.9033 14.3761C77.5803 14.1734 77.1988 14.072 76.759 14.072C76.2744 14.072 75.8551 14.1923 75.5012 14.4328C75.1507 14.6699 74.8809 14.9792 74.6919 15.3607C74.5029 15.7421 74.4084 16.1511 74.4084 16.5875V17.2886C74.4084 17.8865 74.5115 18.3934 74.7177 18.8092C74.9273 19.2216 75.2177 19.536 75.5888 19.7525C75.96 19.9656 76.3912 20.0721 76.8827 20.0721C77.2023 20.0721 77.4909 20.0275 77.7487 19.9381C78.0098 19.8453 78.2349 19.7079 78.4239 19.5257C78.613 19.3402 78.759 19.1099 78.8621 18.835L80.0374 19.1649C79.9137 19.5635 79.7058 19.9141 79.4137 20.2165C79.1216 20.5155 78.7607 20.7491 78.3312 20.9175C77.9016 21.0825 77.4188 21.165 76.8827 21.165ZM85.4551 13.0823V14.1132H81.3519V13.0823H85.4551ZM82.5478 11.1853H83.7643V18.7319C83.7643 19.0755 83.8141 19.3333 83.9138 19.5051C84.0169 19.6735 84.1475 19.7869 84.3056 19.8453C84.4671 19.9003 84.6372 19.9278 84.8159 19.9278C84.9499 19.9278 85.0599 19.9209 85.1458 19.9072C85.2317 19.89 85.3004 19.8763 85.352 19.8659L85.5994 20.9588C85.5169 20.9897 85.4018 21.0206 85.254 21.0515C85.1063 21.0859 84.919 21.1031 84.6922 21.1031C84.3485 21.1031 84.0117 21.0292 83.6818 20.8814C83.3554 20.7337 83.0839 20.5086 82.8674 20.2062C82.6543 19.9038 82.5478 19.5223 82.5478 19.0618V11.1853ZM91.3676 21V13.0823H92.5841V21H91.3676ZM91.9862 11.7626C91.7491 11.7626 91.5446 11.6819 91.3728 11.5204C91.2044 11.3588 91.1202 11.1647 91.1202 10.9379C91.1202 10.7111 91.2044 10.5169 91.3728 10.3554C91.5446 10.1939 91.7491 10.1131 91.9862 10.1131C92.2233 10.1131 92.426 10.1939 92.5944 10.3554C92.7663 10.5169 92.8522 10.7111 92.8522 10.9379C92.8522 11.1647 92.7663 11.3588 92.5944 11.5204C92.426 11.6819 92.2233 11.7626 91.9862 11.7626ZM98.2557 13.0823V14.1132H94.1525V13.0823H98.2557ZM95.3484 11.1853H96.5649V18.7319C96.5649 19.0755 96.6147 19.3333 96.7144 19.5051C96.8175 19.6735 96.9481 19.7869 97.1062 19.8453C97.2677 19.9003 97.4378 19.9278 97.6165 19.9278C97.7505 19.9278 97.8605 19.9209 97.9464 19.9072C98.0323 19.89 98.101 19.8763 98.1526 19.8659L98.4 20.9588C98.3175 20.9897 98.2024 21.0206 98.0546 21.0515C97.9069 21.0859 97.7196 21.1031 97.4928 21.1031C97.1491 21.1031 96.8123 21.0292 96.4824 20.8814C96.156 20.7337 95.8845 20.5086 95.668 20.2062C95.4549 19.9038 95.3484 19.5223 95.3484 19.0618V11.1853ZM107.385 21.165C106.67 21.165 106.043 20.9948 105.503 20.6546C104.967 20.3144 104.548 19.8385 104.246 19.2268C103.947 18.6151 103.797 17.9003 103.797 17.0824C103.797 16.2576 103.947 15.5377 104.246 14.9225C104.548 14.3074 104.967 13.8297 105.503 13.4895C106.043 13.1493 106.67 12.9792 107.385 12.9792C108.1 12.9792 108.725 13.1493 109.261 13.4895C109.801 13.8297 110.22 14.3074 110.519 14.9225C110.821 15.5377 110.973 16.2576 110.973 17.0824C110.973 17.9003 110.821 18.6151 110.519 19.2268C110.22 19.8385 109.801 20.3144 109.261 20.6546C108.725 20.9948 108.1 21.165 107.385 21.165ZM107.385 20.0721C107.928 20.0721 108.375 19.933 108.725 19.6546C109.076 19.3762 109.335 19.0103 109.503 18.5566C109.672 18.103 109.756 17.6116 109.756 17.0824C109.756 16.5531 109.672 16.06 109.503 15.6029C109.335 15.1459 109.076 14.7765 108.725 14.4947C108.375 14.2129 107.928 14.072 107.385 14.072C106.842 14.072 106.395 14.2129 106.045 14.4947C105.694 14.7765 105.435 15.1459 105.266 15.6029C105.098 16.06 105.014 16.5531 105.014 17.0824C105.014 17.6116 105.098 18.103 105.266 18.5566C105.435 19.0103 105.694 19.3762 106.045 19.6546C106.395 19.933 106.842 20.0721 107.385 20.0721ZM114.046 16.237V21H112.83V13.0823H114.005V14.3194H114.108C114.293 13.9173 114.575 13.5943 114.953 13.3503C115.331 13.1029 115.819 12.9792 116.417 12.9792C116.953 12.9792 117.422 13.0891 117.825 13.3091C118.227 13.5256 118.539 13.8555 118.763 14.2988C118.986 14.7387 119.098 15.2954 119.098 15.9689V21H117.881V16.0514C117.881 15.4294 117.72 14.9449 117.397 14.5978C117.074 14.2472 116.63 14.072 116.067 14.072C115.678 14.072 115.331 14.1562 115.025 14.3246C114.723 14.493 114.484 14.7387 114.309 15.0617C114.134 15.3847 114.046 15.7765 114.046 16.237Z" fill="#F4EDE2"/>
<path d="M159.338 47.4703H162.104V28.7707H159.338V47.4703ZM184.252 35.5065L181.081 43.614H180.986L177.696 35.5065H174.716L179.651 46.8376L176.839 53.1411H179.722L187.328 35.5065H184.252ZM168.566 45.3462C167.659 45.3462 166.396 44.89 166.396 43.7576C166.396 42.3156 167.968 41.7622 169.328 41.7622C170.543 41.7622 171.117 42.0269 171.855 42.3874C171.64 44.1196 170.162 45.3462 168.566 45.3462ZM168.899 35.0982C166.897 35.0982 164.822 35.9882 163.965 37.9612L166.419 38.9948C166.944 37.9612 167.921 37.6231 168.947 37.6231C170.377 37.6231 171.831 38.4892 171.855 40.03V40.2214C171.354 39.9327 170.282 39.5004 168.971 39.5004C166.325 39.5004 163.63 40.9679 163.63 43.7097C163.63 46.2123 165.8 47.8248 168.231 47.8248C170.091 47.8248 171.117 46.9827 171.76 45.9954H171.855V47.4389H174.525V40.2693C174.525 36.95 172.07 35.0982 168.899 35.0982ZM151.805 37.7832H147.871V31.3735H151.805C153.873 31.3735 155.047 33.1012 155.047 34.5776C155.047 36.0271 153.873 37.7832 151.805 37.7832ZM151.734 28.7707H145.107V47.4703H147.871V40.386H151.734C154.799 40.386 157.813 38.1452 157.813 34.5776C157.813 31.01 154.799 28.7707 151.734 28.7707ZM115.593 45.3492C113.683 45.3492 112.083 43.7352 112.083 41.5183C112.083 39.2775 113.683 37.6381 115.593 37.6381C117.48 37.6381 118.96 39.2775 118.96 41.5183C118.96 43.7352 117.48 45.3492 115.593 45.3492ZM118.77 36.5536H118.674C118.053 35.8072 116.859 35.1326 115.355 35.1326C112.202 35.1326 109.313 37.9268 109.313 41.5183C109.313 45.0844 112.202 47.8562 115.355 47.8562C116.859 47.8562 118.053 47.1816 118.674 46.4098H118.77V47.3267C118.77 49.7604 117.48 51.0618 115.402 51.0618C113.706 51.0618 112.655 49.8323 112.226 48.7956L109.814 49.8083C110.506 51.4956 112.346 53.5674 115.402 53.5674C118.65 53.5674 121.397 51.6392 121.397 46.9408V35.517H118.77V36.5536ZM123.307 47.4703H126.078V28.7692H123.307V47.4703ZM130.16 41.3014C130.089 38.8438 132.047 37.5902 133.455 37.5902C134.555 37.5902 135.486 38.1437 135.796 38.9395L130.16 41.3014ZM138.758 39.1803C138.233 37.7593 136.632 35.1326 133.361 35.1326C130.113 35.1326 127.415 37.7099 127.415 41.4944C127.415 45.0605 130.089 47.8562 133.67 47.8562C136.561 47.8562 138.233 46.0732 138.925 45.0366L136.776 43.5901C136.06 44.6506 135.08 45.3492 133.67 45.3492C132.262 45.3492 131.259 44.6985 130.614 43.4225L139.044 39.9028L138.758 39.1803ZM71.5965 37.0846V39.7831H77.9957C77.8044 41.3014 77.3034 42.4099 76.54 43.1802C75.6076 44.1211 74.1505 45.1577 71.5965 45.1577C67.6549 45.1577 64.5747 41.9521 64.5747 37.9762C64.5747 33.9987 67.6549 30.7946 71.5965 30.7946C73.7221 30.7946 75.2741 31.6383 76.4199 32.7227L78.3069 30.8185C76.706 29.2763 74.5819 28.0946 71.5965 28.0946C66.1993 28.0946 61.6619 32.5298 61.6619 37.9762C61.6619 43.4225 66.1993 47.8562 71.5965 47.8562C74.5092 47.8562 76.706 46.8914 78.4255 45.0844C80.194 43.3014 80.7424 40.7958 80.7424 38.7705C80.7424 38.1437 80.695 37.5663 80.5986 37.0846H71.5965ZM88.0192 45.3492C86.1084 45.3492 84.4601 43.7591 84.4601 41.4944C84.4601 39.2043 86.1084 37.6381 88.0192 37.6381C89.9284 37.6381 91.5767 39.2043 91.5767 41.4944C91.5767 43.7591 89.9284 45.3492 88.0192 45.3492ZM88.0192 35.1326C84.5312 35.1326 81.6896 37.8071 81.6896 41.4944C81.6896 45.1577 84.5312 47.8562 88.0192 47.8562C91.5056 47.8562 94.3472 45.1577 94.3472 41.4944C94.3472 37.8071 91.5056 35.1326 88.0192 35.1326ZM101.824 45.3492C99.9134 45.3492 98.265 43.7591 98.265 41.4944C98.265 39.2043 99.9134 37.6381 101.824 37.6381C103.735 37.6381 105.382 39.2043 105.382 41.4944C105.382 43.7591 103.735 45.3492 101.824 45.3492ZM101.824 35.1326C98.3376 35.1326 95.496 37.8071 95.496 41.4944C95.496 45.1577 98.3376 47.8562 101.824 47.8562C105.311 47.8562 108.152 45.1577 108.152 41.4944C108.152 37.8071 105.311 35.1326 101.824 35.1326Z" fill="white"/>
</svg>
