<svg width="206" height="62" viewBox="0 0 206 62" fill="none" xmlns="http://www.w3.org/2000/svg">
<rect x="0.725052" y="0.725052" width="204.55" height="60.5499" rx="13.5102" fill="#1B1B1B"/>
<rect x="0.725052" y="0.725052" width="204.55" height="60.5499" rx="13.5102" stroke="#2E2E2E" stroke-width="1.4501"/>
<path d="M44.6836 28.1277C44.7031 26.644 45.1068 25.1893 45.857 23.8988C46.6072 22.6083 47.6796 21.5241 48.9743 20.747C48.1518 19.6002 47.0667 18.6564 45.8053 17.9906C44.5438 17.3248 43.1407 16.9553 41.7074 16.9115C38.6499 16.5982 35.6858 18.6977 34.1277 18.6977C32.5395 18.6977 30.1407 16.9426 27.5575 16.9945C25.8867 17.0472 24.2583 17.5216 22.831 18.3714C21.4038 19.2212 20.2264 20.4174 19.4135 21.8436C15.8922 27.7957 18.5187 36.5434 21.8919 41.3546C23.5795 43.7106 25.5519 46.3422 28.1327 46.2489C30.6582 46.1466 31.6015 44.6767 34.6499 44.6767C37.6701 44.6767 38.5551 46.2489 41.1883 46.1896C43.8983 46.1466 45.6056 43.8232 47.2341 41.4449C48.4467 39.7662 49.3798 37.9109 49.9988 35.9477C48.4244 35.2976 47.0808 34.2093 46.1356 32.8187C45.1904 31.4281 44.6854 29.7966 44.6836 28.1277Z" fill="white"/>
<path d="M39.7097 13.7479C41.1873 12.0162 41.9153 9.79027 41.739 7.54297C39.4816 7.77445 37.3964 8.82778 35.8988 10.4931C35.1666 11.3066 34.6058 12.2531 34.2485 13.2784C33.8912 14.3036 33.7444 15.3876 33.8164 16.4683C34.9455 16.4796 36.0626 16.2407 37.0834 15.7695C38.1042 15.2983 39.0022 14.6071 39.7097 13.7479Z" fill="white"/>
<path d="M66.9909 23.397H63.7331V12.84H67.1353C68.1593 12.84 69.0356 13.0513 69.7642 13.474C70.4927 13.8933 71.0512 14.4964 71.4395 15.2834C71.8278 16.0669 72.022 17.005 72.022 18.0979C72.022 19.1975 71.8261 20.1443 71.4343 20.9381C71.0426 21.7285 70.4721 22.3368 69.723 22.7629C68.9738 23.1856 68.0631 23.397 66.9909 23.397ZM65.0115 22.2629H66.9084C67.7813 22.2629 68.5047 22.0945 69.0786 21.7578C69.6525 21.421 70.0803 20.9416 70.3621 20.3196C70.6439 19.6976 70.7848 18.957 70.7848 18.0979C70.7848 17.2456 70.6457 16.5119 70.3673 15.8968C70.0889 15.2782 69.6731 14.804 69.1198 14.474C68.5666 14.1407 67.8775 13.974 67.0528 13.974H65.0115V22.2629ZM77.218 23.5619C76.5032 23.5619 75.876 23.3918 75.3365 23.0516C74.8004 22.7114 74.3812 22.2354 74.0787 21.6237C73.7798 21.012 73.6303 20.2972 73.6303 19.4793C73.6303 18.6546 73.7798 17.9346 74.0787 17.3195C74.3812 16.7044 74.8004 16.2267 75.3365 15.8865C75.876 15.5462 76.5032 15.3761 77.218 15.3761C77.9328 15.3761 78.5582 15.5462 79.0943 15.8865C79.6339 16.2267 80.0531 16.7044 80.3521 17.3195C80.6545 17.9346 80.8057 18.6546 80.8057 19.4793C80.8057 20.2972 80.6545 21.012 80.3521 21.6237C80.0531 22.2354 79.6339 22.7114 79.0943 23.0516C78.5582 23.3918 77.9328 23.5619 77.218 23.5619ZM77.218 22.4691C77.761 22.4691 78.2077 22.3299 78.5582 22.0516C78.9088 21.7732 79.1682 21.4072 79.3366 20.9536C79.505 20.5 79.5892 20.0086 79.5892 19.4793C79.5892 18.9501 79.505 18.457 79.3366 17.9999C79.1682 17.5429 78.9088 17.1734 78.5582 16.8916C78.2077 16.6098 77.761 16.4689 77.218 16.4689C76.675 16.4689 76.2283 16.6098 75.8778 16.8916C75.5272 17.1734 75.2678 17.5429 75.0994 17.9999C74.931 18.457 74.8468 18.9501 74.8468 19.4793C74.8468 20.0086 74.931 20.5 75.0994 20.9536C75.2678 21.4072 75.5272 21.7732 75.8778 22.0516C76.2283 22.3299 76.675 22.4691 77.218 22.4691ZM84.1873 23.397L81.7748 15.4792H83.0532L84.7646 21.5413H84.8471L86.5378 15.4792H87.8368L89.507 21.5206H89.5895L91.3009 15.4792H92.5792L90.1668 23.397H88.9709L87.2389 17.3143H87.1152L85.3832 23.397H84.1873ZM95.4041 18.634V23.397H94.1875V15.4792H95.3628V16.7164H95.4659C95.6515 16.3143 95.9333 15.9913 96.3113 15.7473C96.6893 15.4999 97.1773 15.3761 97.7753 15.3761C98.3114 15.3761 98.7804 15.4861 99.1825 15.706C99.5846 15.9225 99.8973 16.2524 100.121 16.6958C100.344 17.1356 100.456 17.6924 100.456 18.3659V23.397H99.2392V18.4484C99.2392 17.8264 99.0777 17.3418 98.7547 16.9947C98.4316 16.6442 97.9883 16.4689 97.4247 16.4689C97.0364 16.4689 96.6893 16.5531 96.3835 16.7215C96.0811 16.8899 95.8422 17.1356 95.667 17.4587C95.4917 17.7817 95.4041 18.1735 95.4041 18.634ZM103.895 12.84V23.397H102.679V12.84H103.895ZM109.34 23.5619C108.625 23.5619 107.998 23.3918 107.459 23.0516C106.922 22.7114 106.503 22.2354 106.201 21.6237C105.902 21.012 105.752 20.2972 105.752 19.4793C105.752 18.6546 105.902 17.9346 106.201 17.3195C106.503 16.7044 106.922 16.2267 107.459 15.8865C107.998 15.5462 108.625 15.3761 109.34 15.3761C110.055 15.3761 110.68 15.5462 111.216 15.8865C111.756 16.2267 112.175 16.7044 112.474 17.3195C112.777 17.9346 112.928 18.6546 112.928 19.4793C112.928 20.2972 112.777 21.012 112.474 21.6237C112.175 22.2354 111.756 22.7114 111.216 23.0516C110.68 23.3918 110.055 23.5619 109.34 23.5619ZM109.34 22.4691C109.883 22.4691 110.33 22.3299 110.68 22.0516C111.031 21.7732 111.29 21.4072 111.459 20.9536C111.627 20.5 111.711 20.0086 111.711 19.4793C111.711 18.9501 111.627 18.457 111.459 17.9999C111.29 17.5429 111.031 17.1734 110.68 16.8916C110.33 16.6098 109.883 16.4689 109.34 16.4689C108.797 16.4689 108.35 16.6098 108 16.8916C107.649 17.1734 107.39 17.5429 107.221 17.9999C107.053 18.457 106.969 18.9501 106.969 19.4793C106.969 20.0086 107.053 20.5 107.221 20.9536C107.39 21.4072 107.649 21.7732 108 22.0516C108.35 22.3299 108.797 22.4691 109.34 22.4691ZM117.115 23.5825C116.613 23.5825 116.158 23.488 115.749 23.299C115.34 23.1066 115.015 22.8299 114.774 22.4691C114.534 22.1048 114.414 21.665 114.414 21.1495C114.414 20.6959 114.503 20.3282 114.682 20.0464C114.86 19.7611 115.099 19.5378 115.398 19.3762C115.697 19.2147 116.027 19.0945 116.388 19.0154C116.752 18.9329 117.118 18.8676 117.486 18.8195C117.967 18.7577 118.357 18.7113 118.656 18.6803C118.958 18.646 119.178 18.5893 119.316 18.5102C119.457 18.4312 119.527 18.2937 119.527 18.0979V18.0566C119.527 17.548 119.388 17.1528 119.11 16.871C118.835 16.5892 118.417 16.4483 117.857 16.4483C117.276 16.4483 116.821 16.5755 116.491 16.8298C116.161 17.0841 115.929 17.3556 115.795 17.6442L114.64 17.2319C114.847 16.7507 115.122 16.3762 115.465 16.1081C115.812 15.8366 116.19 15.6476 116.599 15.5411C117.012 15.4311 117.417 15.3761 117.816 15.3761C118.07 15.3761 118.362 15.4071 118.692 15.4689C119.025 15.5273 119.347 15.6493 119.656 15.8349C119.969 16.0205 120.228 16.3006 120.434 16.6751C120.641 17.0497 120.744 17.5515 120.744 18.1803V23.397H119.527V22.3248H119.465C119.383 22.4966 119.245 22.6805 119.053 22.8763C118.86 23.0722 118.604 23.2389 118.285 23.3764C117.965 23.5138 117.575 23.5825 117.115 23.5825ZM117.3 22.4897C117.781 22.4897 118.187 22.3952 118.517 22.2062C118.85 22.0172 119.101 21.7732 119.269 21.4742C119.441 21.1753 119.527 20.8608 119.527 20.5309V19.4175C119.476 19.4793 119.362 19.536 119.187 19.5876C119.015 19.6357 118.816 19.6787 118.589 19.7165C118.366 19.7508 118.147 19.7818 117.934 19.8092C117.725 19.8333 117.555 19.8539 117.424 19.8711C117.108 19.9123 116.812 19.9794 116.537 20.0721C116.266 20.1615 116.046 20.2972 115.878 20.4794C115.713 20.6581 115.63 20.9021 115.63 21.2113C115.63 21.634 115.786 21.9536 116.099 22.1701C116.415 22.3832 116.816 22.4897 117.3 22.4897ZM125.954 23.5619C125.294 23.5619 124.712 23.3953 124.206 23.0619C123.701 22.7251 123.306 22.2509 123.021 21.6392C122.736 21.0241 122.593 20.2972 122.593 19.4587C122.593 18.6271 122.736 17.9054 123.021 17.2937C123.306 16.682 123.703 16.2095 124.212 15.8761C124.72 15.5428 125.308 15.3761 125.974 15.3761C126.49 15.3761 126.897 15.462 127.196 15.6339C127.499 15.8023 127.729 15.9947 127.887 16.2112C128.048 16.4243 128.174 16.5995 128.263 16.737H128.366V12.84H129.583V23.397H128.408V22.1804H128.263C128.174 22.3248 128.047 22.5069 127.882 22.7269C127.717 22.9434 127.481 23.1375 127.176 23.3093C126.87 23.4777 126.462 23.5619 125.954 23.5619ZM126.119 22.4691C126.607 22.4691 127.019 22.342 127.356 22.0877C127.693 21.8299 127.949 21.4742 128.124 21.0206C128.299 20.5636 128.387 20.0361 128.387 19.4381C128.387 18.847 128.301 18.3298 128.129 17.8865C127.957 17.4398 127.703 17.0927 127.366 16.8452C127.029 16.5944 126.614 16.4689 126.119 16.4689C125.603 16.4689 125.174 16.6013 124.83 16.8659C124.49 17.127 124.234 17.4827 124.062 17.9329C123.894 18.3797 123.809 18.8814 123.809 19.4381C123.809 20.0017 123.895 20.5137 124.067 20.9742C124.242 21.4313 124.5 21.7956 124.84 22.067C125.184 22.3351 125.61 22.4691 126.119 22.4691ZM139.279 23.5619C138.564 23.5619 137.937 23.3918 137.397 23.0516C136.861 22.7114 136.442 22.2354 136.14 21.6237C135.841 21.012 135.691 20.2972 135.691 19.4793C135.691 18.6546 135.841 17.9346 136.14 17.3195C136.442 16.7044 136.861 16.2267 137.397 15.8865C137.937 15.5462 138.564 15.3761 139.279 15.3761C139.994 15.3761 140.619 15.5462 141.155 15.8865C141.695 16.2267 142.114 16.7044 142.413 17.3195C142.715 17.9346 142.867 18.6546 142.867 19.4793C142.867 20.2972 142.715 21.012 142.413 21.6237C142.114 22.2354 141.695 22.7114 141.155 23.0516C140.619 23.3918 139.994 23.5619 139.279 23.5619ZM139.279 22.4691C139.822 22.4691 140.269 22.3299 140.619 22.0516C140.97 21.7732 141.229 21.4072 141.398 20.9536C141.566 20.5 141.65 20.0086 141.65 19.4793C141.65 18.9501 141.566 18.457 141.398 17.9999C141.229 17.5429 140.97 17.1734 140.619 16.8916C140.269 16.6098 139.822 16.4689 139.279 16.4689C138.736 16.4689 138.289 16.6098 137.939 16.8916C137.588 17.1734 137.329 17.5429 137.16 17.9999C136.992 18.457 136.908 18.9501 136.908 19.4793C136.908 20.0086 136.992 20.5 137.16 20.9536C137.329 21.4072 137.588 21.7732 137.939 22.0516C138.289 22.3299 138.736 22.4691 139.279 22.4691ZM145.94 18.634V23.397H144.724V15.4792H145.899V16.7164H146.002C146.188 16.3143 146.469 15.9913 146.847 15.7473C147.225 15.4999 147.713 15.3761 148.311 15.3761C148.848 15.3761 149.317 15.4861 149.719 15.706C150.121 15.9225 150.433 16.2524 150.657 16.6958C150.88 17.1356 150.992 17.6924 150.992 18.3659V23.397H149.775V18.4484C149.775 17.8264 149.614 17.3418 149.291 16.9947C148.968 16.6442 148.524 16.4689 147.961 16.4689C147.573 16.4689 147.225 16.5531 146.92 16.7215C146.617 16.8899 146.378 17.1356 146.203 17.4587C146.028 17.7817 145.94 18.1735 145.94 18.634ZM160.741 15.4792V16.5102H156.638V15.4792H160.741ZM157.834 13.5823H159.05V21.1289C159.05 21.4725 159.1 21.7303 159.2 21.9021C159.303 22.0705 159.433 22.1839 159.591 22.2423C159.753 22.2973 159.923 22.3248 160.102 22.3248C160.236 22.3248 160.346 22.3179 160.432 22.3042C160.518 22.287 160.586 22.2732 160.638 22.2629L160.885 23.3557C160.803 23.3867 160.688 23.4176 160.54 23.4485C160.392 23.4829 160.205 23.5001 159.978 23.5001C159.634 23.5001 159.298 23.4262 158.968 23.2784C158.641 23.1306 158.37 22.9056 158.153 22.6031C157.94 22.3007 157.834 21.9193 157.834 21.4588V13.5823ZM163.957 18.634V23.397H162.741V12.84H163.957V16.7164H164.061C164.246 16.3074 164.524 15.9827 164.896 15.7421C165.27 15.4981 165.769 15.3761 166.391 15.3761C166.93 15.3761 167.403 15.4844 167.808 15.7009C168.214 15.914 168.528 16.2421 168.751 16.6855C168.978 17.1253 169.092 17.6855 169.092 18.3659V23.397H167.875V18.4484C167.875 17.8195 167.712 17.3332 167.385 16.9896C167.062 16.6425 166.614 16.4689 166.04 16.4689C165.641 16.4689 165.284 16.5531 164.968 16.7215C164.655 16.8899 164.408 17.1356 164.226 17.4587C164.047 17.7817 163.957 18.1735 163.957 18.634ZM174.637 23.5619C173.874 23.5619 173.216 23.3935 172.663 23.0568C172.113 22.7165 171.688 22.2423 171.389 21.634C171.094 21.0223 170.946 20.311 170.946 19.5C170.946 18.6889 171.094 17.9741 171.389 17.3556C171.688 16.7336 172.104 16.249 172.637 15.9019C173.173 15.5514 173.798 15.3761 174.513 15.3761C174.926 15.3761 175.333 15.4449 175.735 15.5823C176.137 15.7198 176.503 15.9432 176.833 16.2524C177.163 16.5583 177.426 16.9638 177.621 17.469C177.817 17.9741 177.915 18.5962 177.915 19.335V19.8505H171.812V18.7989H176.678C176.678 18.3522 176.589 17.9535 176.41 17.603C176.235 17.2525 175.984 16.9758 175.658 16.7731C175.334 16.5703 174.953 16.4689 174.513 16.4689C174.029 16.4689 173.609 16.5892 173.255 16.8298C172.905 17.0669 172.635 17.3762 172.446 17.7576C172.257 18.1391 172.163 18.548 172.163 18.9845V19.6855C172.163 20.2835 172.266 20.7904 172.472 21.2062C172.681 21.6186 172.972 21.933 173.343 22.1495C173.714 22.3626 174.145 22.4691 174.637 22.4691C174.956 22.4691 175.245 22.4244 175.503 22.3351C175.764 22.2423 175.989 22.1048 176.178 21.9227C176.367 21.7371 176.513 21.5069 176.616 21.232L177.792 21.5619C177.668 21.9605 177.46 22.311 177.168 22.6134C176.876 22.9124 176.515 23.1461 176.085 23.3145C175.656 23.4794 175.173 23.5619 174.637 23.5619Z" fill="#F4EDE2"/>
<path d="M66.0128 50.397H62.7382L69.4008 31.0472H73.0014L79.6498 50.397H76.2476L74.5324 45.0386H67.7422L66.0128 50.397ZM71.2153 34.3927H71.0877L68.4652 42.572H73.8094L71.2153 34.3927ZM88.6871 50.6096C86.745 50.6096 85.2708 49.6882 84.4769 48.3132H84.3635V55.3726H81.2165V35.4133H84.2785V37.6105H84.3919C85.2141 36.1788 86.745 35.2149 88.758 35.2149C92.1176 35.2149 94.5133 37.7523 94.5133 42.2318V43.5643C94.5133 48.0155 92.1459 50.6096 88.6871 50.6096ZM87.9641 48.0155C89.9629 48.0155 91.3238 46.4136 91.3238 43.3942V42.3452C91.3238 39.4392 90.0479 37.7807 87.9074 37.7807C85.7102 37.7807 84.3352 39.5668 84.3352 42.331V43.3942C84.3352 46.2293 85.7244 48.0155 87.9641 48.0155ZM104.685 50.6096C102.743 50.6096 101.268 49.6882 100.474 48.3132H100.361V55.3726H97.2141V35.4133H100.276V37.6105H100.389C101.212 36.1788 102.743 35.2149 104.756 35.2149C108.115 35.2149 110.511 37.7523 110.511 42.2318V43.5643C110.511 48.0155 108.143 50.6096 104.685 50.6096ZM103.962 48.0155C105.96 48.0155 107.321 46.4136 107.321 43.3942V42.3452C107.321 39.4392 106.046 37.7807 103.905 37.7807C101.708 37.7807 100.333 39.5668 100.333 42.331V43.3942C100.333 46.2293 101.722 48.0155 103.962 48.0155ZM117.032 45.0244H120.179C120.321 46.6971 121.795 48.1289 124.531 48.1289C127.04 48.1289 128.529 46.9523 128.529 45.1236C128.529 43.6494 127.536 42.8555 125.467 42.3594L122.291 41.5655C119.797 40.9843 117.557 39.4959 117.557 36.3489C117.557 32.6491 120.789 30.622 124.545 30.622C128.302 30.622 131.435 32.6491 131.506 36.2639H128.415C128.274 34.6195 127.012 33.2586 124.503 33.2586C122.291 33.2586 120.789 34.3076 120.789 36.1079C120.789 37.3696 121.668 38.2768 123.468 38.6879L126.629 39.4676C129.535 40.1763 131.747 41.5514 131.747 44.8401C131.747 48.6392 128.671 50.7797 124.29 50.7797C118.904 50.7797 117.103 47.6327 117.032 45.0244ZM135.581 35.4133V31.7702H138.672V35.4133H141.592V37.9366H138.672V45.9316C138.672 47.5618 139.281 48.0155 140.968 48.0155C141.238 48.0155 141.493 48.0155 141.677 47.9871V50.397C141.422 50.4395 140.826 50.4962 140.189 50.4962C136.545 50.4962 135.539 49.192 135.539 46.1868V37.9366H133.469V35.4133H135.581ZM150.091 35.1582C154.4 35.1582 156.739 38.1917 156.739 42.2743V43.4793C156.739 47.7036 154.414 50.6521 150.091 50.6521C145.767 50.6521 143.414 47.7036 143.414 43.4793V42.2743C143.414 38.2059 145.781 35.1582 150.091 35.1582ZM150.091 37.6814C147.752 37.6814 146.589 39.5951 146.589 42.3169V43.4651C146.589 46.1443 147.737 48.1147 150.091 48.1147C152.444 48.1147 153.578 46.1585 153.578 43.4651V42.3169C153.578 39.581 152.43 37.6814 150.091 37.6814ZM159.397 50.397V35.4133H162.544V37.3837H162.658C163.04 36.4481 164.16 35.2007 166.244 35.2007C166.655 35.2007 167.01 35.229 167.307 35.2857V38.0642C167.038 37.9933 166.485 37.9508 165.961 37.9508C163.437 37.9508 162.587 39.5101 162.587 41.523V50.397H159.397ZM174.941 50.6521C170.929 50.6521 168.378 48.0013 168.378 43.5643V42.0475C168.378 37.8657 170.873 35.1582 174.814 35.1582C178.811 35.1582 181.221 37.9649 181.221 42.1893V43.621H171.482V43.9754C171.482 46.4987 172.843 48.1714 174.984 48.1714C176.586 48.1714 177.677 47.3776 178.06 46.0876H181.051C180.597 48.5116 178.641 50.6521 174.941 50.6521ZM171.482 41.4238H178.145V41.3954C178.145 39.2691 176.827 37.5964 174.828 37.5964C172.801 37.5964 171.482 39.2691 171.482 41.3954V41.4238Z" fill="white"/>
</svg>
