<svg width="28" height="16" viewBox="0 0 28 16" fill="none" xmlns="http://www.w3.org/2000/svg">
<path d="M20.9114 0.911621H7.08861C3.17368 0.911621 0 4.0853 0 8.00023C0 11.9152 3.17368 15.0888 7.08861 15.0888H20.9114C24.8263 15.0888 28 11.9152 28 8.00023C28 4.0853 24.8263 0.911621 20.9114 0.911621Z" fill="white"/>
<path d="M20.9115 1.44727H7.08865C3.46973 1.44727 0.536011 4.38098 0.536011 7.9999V7.99993C0.536011 11.6188 3.46973 14.5526 7.08865 14.5526H20.9115C24.5304 14.5526 27.4641 11.6188 27.4641 7.99993V7.9999C27.4641 4.38098 24.5304 1.44727 20.9115 1.44727Z" stroke="black" stroke-width="1.07193"/>
<path d="M15.9013 0.911621H20.9114C24.8264 0.911621 28 4.0853 28 8.00023C28 11.9152 24.8264 15.0888 20.9114 15.0888H12.0988L15.9013 0.911621Z" fill="black"/>
<path fill-rule="evenodd" clip-rule="evenodd" d="M11.9067 5.16211C12.1291 5.34245 12.1633 5.66907 11.983 5.89163L8.16295 10.6073C7.84003 11.0059 7.24312 11.0371 6.88044 10.6743L4.64564 8.43879C4.44315 8.23624 4.44315 7.90782 4.64564 7.70526C4.84814 7.50271 5.17645 7.50271 5.37894 7.70526L7.47805 9.80503L11.1773 5.23853C11.3576 5.01598 11.6842 4.98175 11.9067 5.16211Z" fill="black"/>
<path fill-rule="evenodd" clip-rule="evenodd" d="M17.2154 4.93038C17.4234 4.73357 17.7516 4.74275 17.9483 4.95089L22.9458 10.2375C23.1425 10.4457 23.1334 10.774 22.9254 10.9708C22.7172 11.1676 22.3891 11.1584 22.1923 10.9503L17.1948 5.66362C16.9981 5.45547 17.0073 5.1272 17.2154 4.93038Z" fill="white"/>
<path fill-rule="evenodd" clip-rule="evenodd" d="M23.0087 5.01129C23.2112 5.21385 23.2112 5.54225 23.0087 5.74481L17.8654 10.8896C17.6629 11.0922 17.3346 11.0922 17.1321 10.8896C16.9296 10.6871 16.9296 10.3587 17.1321 10.1561L22.2754 5.01129C22.4779 4.80874 22.8062 4.80874 23.0087 5.01129Z" fill="white"/>
</svg>
