<svg width="24" height="24" viewBox="0 0 24 24" fill="none" xmlns="http://www.w3.org/2000/svg">
<path d="M6.84592 0C3.07081 0 0 3.07365 0 6.84974V16.6323C0 20.4074 3.07365 23.4783 6.84974 23.4783H16.6323C20.4074 23.4783 23.4783 20.4046 23.4783 16.6286V6.84592C23.4783 3.07081 20.4046 0 16.6286 0H6.84592ZM18.587 3.91304C19.127 3.91304 19.5652 4.3513 19.5652 4.8913C19.5652 5.4313 19.127 5.86957 18.587 5.86957C18.047 5.86957 17.6087 5.4313 17.6087 4.8913C17.6087 4.3513 18.047 3.91304 18.587 3.91304ZM11.7391 5.86957C14.9762 5.86957 17.6087 8.50206 17.6087 11.7391C17.6087 14.9762 14.9762 17.6087 11.7391 17.6087C8.50206 17.6087 5.86957 14.9762 5.86957 11.7391C5.86957 8.50206 8.50206 5.86957 11.7391 5.86957ZM11.7391 7.82609C10.7013 7.82609 9.70603 8.23835 8.97219 8.97219C8.23835 9.70603 7.82609 10.7013 7.82609 11.7391C7.82609 12.777 8.23835 13.7722 8.97219 14.506C9.70603 15.2399 10.7013 15.6522 11.7391 15.6522C12.777 15.6522 13.7722 15.2399 14.506 14.506C15.2399 13.7722 15.6522 12.777 15.6522 11.7391C15.6522 10.7013 15.2399 9.70603 14.506 8.97219C13.7722 8.23835 12.777 7.82609 11.7391 7.82609Z" fill="black"/>
</svg>
