<svg width="24" height="20" viewBox="0 0 24 20" fill="none" xmlns="http://www.w3.org/2000/svg">
<path d="M23.3658 2.28281C22.5058 2.67074 21.582 2.93179 20.6124 3.04953C21.6027 2.44711 22.362 1.49328 22.7197 0.355977C21.7941 0.91367 20.7678 1.31894 19.675 1.538C18.8007 0.591468 17.5551 0 16.1766 0C13.5292 0 11.3832 2.18059 11.3832 4.86866C11.3832 5.2502 11.4263 5.62261 11.5072 5.97767C7.5235 5.77503 3.99181 3.83633 1.62656 0.889944C1.21497 1.6092 0.978634 2.44528 0.978634 3.33888C0.978634 5.02748 1.82426 6.51802 3.11023 7.39062C2.32481 7.36507 1.58522 7.146 0.939094 6.78181C0.939094 6.80281 0.939094 6.82197 0.939094 6.84296C0.939094 9.20246 2.59081 11.1704 4.78442 11.6167C4.38272 11.728 3.95856 11.7874 3.52091 11.7874C3.21267 11.7874 2.91163 11.7563 2.61957 11.7007C3.22975 13.6348 5.00009 15.0432 7.09755 15.0825C5.45751 16.3886 3.39061 17.1672 1.14399 17.1672C0.757563 17.1672 0.375636 17.1444 0 17.0987C2.12171 18.4797 4.64063 19.2857 7.34827 19.2857C16.1658 19.2857 20.9862 11.8668 20.9862 5.43275C20.9862 5.2219 20.9817 5.01197 20.9727 4.80295C21.91 4.11564 22.7233 3.25856 23.3658 2.28281Z" fill="black"/>
</svg>
