<svg width="24" height="24" viewBox="0 0 24 24" fill="none" xmlns="http://www.w3.org/2000/svg">
<path fill-rule="evenodd" clip-rule="evenodd" d="M4.17391 0C1.87826 0 0 1.87826 0 4.17391V19.3043C0 21.6 1.87826 23.4783 4.17391 23.4783H19.3043C21.6 23.4783 23.4783 21.6 23.4783 19.3043V4.17391C23.4783 1.87826 21.6 0 19.3043 0H4.17391ZM16.9043 10.2261C17.0087 10.2261 17.2174 10.2261 17.3217 10.2261V8.03478C16.3826 7.93043 15.6522 7.61739 15.0261 6.9913C14.4 6.46956 14.087 5.63478 13.9826 4.8H12V14.1913C12 15.3391 10.9565 16.1739 9.80869 16.1739C9.28696 16.1739 8.66087 15.9652 8.34783 15.6522C7.93043 15.2348 7.72174 14.713 7.72174 14.1913C7.72174 13.5652 7.93043 13.0435 8.34783 12.6261C8.66087 12.313 9.28696 12.1043 9.80869 12.1043C9.91304 12.1043 9.91304 12.1043 10.0174 12.1043V10.1217C9.91304 10.1217 9.91304 10.1217 9.80869 10.1217C8.97391 10.1217 8.13913 10.3304 7.51304 10.7478C6.78261 11.1652 6.26087 11.8957 5.94783 12.6261C5.63478 13.3565 5.63478 14.1913 5.73913 14.9217C5.94783 15.7565 6.26087 16.487 6.88696 17.0087C7.4087 17.6348 8.24348 17.9478 8.97391 18.1565C9.8087 18.2609 10.6435 18.2609 11.3739 17.9478C12.1043 17.6348 12.7304 17.113 13.2522 16.3826C13.6696 15.7565 13.8783 14.9217 13.8783 14.1913V8.66087C14.2957 9.18261 14.713 9.49565 15.2348 9.80869C15.7565 10.1217 16.3826 10.2261 16.9043 10.2261Z" fill="black"/>
</svg>
